%TF.GenerationSoftware,KiCad,Pcbnew,9.99.0-4546-gb76221958b*%
%TF.CreationDate,2025-12-28T23:01:28+05:30*%
%TF.ProjectId,universal-psu,756e6976-6572-4736-916c-2d7073752e6b,rev?*%
%TF.SameCoordinates,Original*%
%TF.FileFunction,Copper,L4,Bot*%
%TF.FilePolarity,Positive*%
%FSLAX46Y46*%
G04 Gerber Fmt 4.6, Leading zero omitted, Abs format (unit mm)*
G04 Created by KiCad (PCBNEW 9.99.0-4546-gb76221958b) date 2025-12-28 23:01:28*
%MOMM*%
%LPD*%
G01*
G04 APERTURE LIST*
G04 Aperture macros list*
%AMRoundRect*
0 Rectangle with rounded corners*
0 $1 Rounding radius*
0 $2 $3 $4 $5 $6 $7 $8 $9 X,Y pos of 4 corners*
0 Add a 4 corners polygon primitive as box body*
4,1,4,$2,$3,$4,$5,$6,$7,$8,$9,$2,$3,0*
0 Add four circle primitives for the rounded corners*
1,1,$1+$1,$2,$3*
1,1,$1+$1,$4,$5*
1,1,$1+$1,$6,$7*
1,1,$1+$1,$8,$9*
0 Add four rect primitives between the rounded corners*
20,1,$1+$1,$2,$3,$4,$5,0*
20,1,$1+$1,$4,$5,$6,$7,0*
20,1,$1+$1,$6,$7,$8,$9,0*
20,1,$1+$1,$8,$9,$2,$3,0*%
G04 Aperture macros list end*
%TA.AperFunction,ComponentPad*%
%ADD10RoundRect,0.250000X1.050000X-1.050000X1.050000X1.050000X-1.050000X1.050000X-1.050000X-1.050000X0*%
%TD*%
%TA.AperFunction,ComponentPad*%
%ADD11C,2.600000*%
%TD*%
%TA.AperFunction,ComponentPad*%
%ADD12RoundRect,0.250000X-1.050000X1.050000X-1.050000X-1.050000X1.050000X-1.050000X1.050000X1.050000X0*%
%TD*%
%TA.AperFunction,ComponentPad*%
%ADD13RoundRect,0.250000X-0.350000X0.350000X-0.350000X-0.350000X0.350000X-0.350000X0.350000X0.350000X0*%
%TD*%
%TA.AperFunction,ComponentPad*%
%ADD14C,1.200000*%
%TD*%
%TA.AperFunction,ComponentPad*%
%ADD15RoundRect,0.250000X0.350000X-0.350000X0.350000X0.350000X-0.350000X0.350000X-0.350000X-0.350000X0*%
%TD*%
%TA.AperFunction,ComponentPad*%
%ADD16RoundRect,0.250000X1.050000X1.050000X-1.050000X1.050000X-1.050000X-1.050000X1.050000X-1.050000X0*%
%TD*%
%TA.AperFunction,ComponentPad*%
%ADD17R,2.500000X2.500000*%
%TD*%
%TA.AperFunction,ComponentPad*%
%ADD18C,2.500000*%
%TD*%
%TA.AperFunction,ComponentPad*%
%ADD19C,4.000000*%
%TD*%
%TA.AperFunction,ViaPad*%
%ADD20C,0.600000*%
%TD*%
%TA.AperFunction,Conductor*%
%ADD21C,0.200000*%
%TD*%
G04 APERTURE END LIST*
D10*
%TO.P,J3,1,Pin_1_1*%
%TO.N,+5V*%
X151962500Y-80635000D03*
D11*
%TO.P,J3,2,Pin_2_2*%
X151962500Y-75555000D03*
%TO.P,J3,3,Pin_3_3*%
%TO.N,GND*%
X151962500Y-70475000D03*
%TO.P,J3,4,Pin_4_4*%
X151962500Y-65395000D03*
%TD*%
D12*
%TO.P,J2,1,Pin_1_1*%
%TO.N,+3V3*%
X151462500Y-37735000D03*
D11*
%TO.P,J2,2,Pin_2_2*%
X151462500Y-42815000D03*
%TO.P,J2,3,Pin_3_3*%
%TO.N,GND*%
X151462500Y-47895000D03*
%TO.P,J2,4,Pin_4_4*%
X151462500Y-52975000D03*
%TD*%
D13*
%TO.P,C16,1*%
%TO.N,+12V*%
X140875000Y-74002401D03*
D14*
%TO.P,C16,2*%
%TO.N,GND*%
X140875000Y-76002401D03*
%TD*%
D15*
%TO.P,C4,1*%
%TO.N,+12V*%
X115150000Y-44697599D03*
D14*
%TO.P,C4,2*%
%TO.N,GND*%
X115150000Y-42697599D03*
%TD*%
D16*
%TO.P,J1,1,Pin_1_1*%
%TO.N,AC_In_Neutral*%
X38960000Y-26725000D03*
D11*
%TO.P,J1,2,Pin_2_2*%
X33880000Y-26725000D03*
%TO.P,J1,3,Pin_3_3*%
%TO.N,AC_In_Live*%
X28800000Y-26725000D03*
%TO.P,J1,4,Pin_4_4*%
X23720000Y-26725000D03*
%TD*%
D17*
%TO.P,PS1,1,AC/L_1*%
%TO.N,AC_In_Live*%
X26300000Y-38475000D03*
D18*
%TO.P,PS1,2,AC/N_2*%
%TO.N,AC_In_Neutral*%
X26300000Y-45225000D03*
D19*
%TO.P,PS1,3,+Vout_3*%
%TO.N,+12V*%
X102300000Y-79725000D03*
%TO.P,PS1,4,-Vout_4*%
%TO.N,GND*%
X102300000Y-74225000D03*
%TD*%
D20*
%TO.N,GND*%
X136925000Y-50325000D03*
X118962500Y-71975000D03*
%TO.N,+3V3*%
X127900000Y-34500000D03*
X124650000Y-56975000D03*
X121900000Y-54725000D03*
%TO.N,GND*%
X132300000Y-37400000D03*
X127000000Y-77000000D03*
X141000000Y-39250000D03*
X129100000Y-41600000D03*
X133900000Y-36200000D03*
X129250000Y-37750000D03*
X125000000Y-77000000D03*
X133100000Y-35200000D03*
X124500000Y-80500000D03*
X124000000Y-77000000D03*
X127500000Y-80500000D03*
X133900000Y-36900000D03*
X130600000Y-42300000D03*
X123500000Y-80500000D03*
X132400000Y-35200000D03*
X126500000Y-39750000D03*
X123250000Y-83000000D03*
X128750000Y-38500000D03*
X128500000Y-36750000D03*
X126000000Y-77000000D03*
X131800000Y-38000000D03*
X124000000Y-81250000D03*
X131200000Y-38500000D03*
X123000000Y-81250000D03*
X131900000Y-41600000D03*
X126500000Y-40500000D03*
X127250000Y-36500000D03*
X131200000Y-37700000D03*
X114987500Y-50225000D03*
X129800000Y-41600000D03*
X127000000Y-39000000D03*
X130500000Y-41600000D03*
X133800000Y-35200000D03*
X119650000Y-45062500D03*
X133000000Y-86500000D03*
X123250000Y-82000000D03*
X122750000Y-83500000D03*
X132400000Y-34300000D03*
X128500000Y-37750000D03*
X133100000Y-36200000D03*
X118675000Y-50975000D03*
X126750000Y-80750000D03*
X131200000Y-41600000D03*
X122250000Y-83000000D03*
X138962500Y-65975000D03*
X133800000Y-34300000D03*
X125500000Y-76250000D03*
X122250000Y-82000000D03*
X130500000Y-39100000D03*
X121400000Y-45062500D03*
X132400000Y-36200000D03*
X133100000Y-36900000D03*
%TO.N,/DC_DC_Converter_3v3/Enable*%
X132360364Y-45802236D03*
X128880413Y-45909555D03*
%TO.N,/DC_DC_Converter_3v3/RT*%
X131150000Y-47975000D03*
X123400000Y-46975000D03*
%TO.N,+12V*%
X132400000Y-43975000D03*
X125900000Y-43725000D03*
X130125000Y-74975000D03*
X126875000Y-74725000D03*
X123625000Y-74725000D03*
X129150000Y-43975000D03*
%TO.N,/DC_DC_Converter_5V/Enable*%
X123664636Y-72897764D03*
X127144587Y-72790445D03*
%TO.N,/DC_DC_Converter_5V/RT*%
X132625000Y-71725000D03*
X124875000Y-70725000D03*
%TO.N,+5V*%
X128125000Y-79750000D03*
X128125000Y-83475000D03*
X125375000Y-80225000D03*
X134125000Y-63975000D03*
X124125000Y-79725000D03*
X126625000Y-79725000D03*
X122625000Y-79625000D03*
X131375000Y-61725000D03*
X128125000Y-81475000D03*
%TD*%
%TO.N,+3V3*%
D21*
X124150000Y-56975000D02*
X124650000Y-56975000D01*
X121900000Y-54725000D02*
X124150000Y-56975000D01*
%TO.N,/DC_DC_Converter_3v3/RT*%
X124400000Y-47975000D02*
X123650000Y-47225000D01*
X131150000Y-47975000D02*
X124400000Y-47975000D01*
X123650000Y-47225000D02*
X123400000Y-46975000D01*
%TO.N,/DC_DC_Converter_5V/RT*%
X132375000Y-71475000D02*
X132625000Y-71725000D01*
X124875000Y-70725000D02*
X131625000Y-70725000D01*
X131625000Y-70725000D02*
X132375000Y-71475000D01*
%TO.N,+5V*%
X134125000Y-63975000D02*
X131875000Y-61725000D01*
X131875000Y-61725000D02*
X131375000Y-61725000D01*
%TD*%
%TA.AperFunction,Conductor*%
%TO.N,GND*%
G36*
X163192538Y-16270185D02*
G01*
X163238293Y-16322989D01*
X163249499Y-16374500D01*
X163249499Y-95125499D01*
X163229814Y-95192538D01*
X163177010Y-95238293D01*
X163125499Y-95249499D01*
X14374500Y-95249499D01*
X14307461Y-95229814D01*
X14261706Y-95177010D01*
X14250500Y-95125499D01*
X14250500Y-91893713D01*
X15649500Y-91893713D01*
X15649500Y-92106286D01*
X15682753Y-92316239D01*
X15748444Y-92518414D01*
X15844951Y-92707820D01*
X15969890Y-92879786D01*
X16120213Y-93030109D01*
X16292179Y-93155048D01*
X16292181Y-93155049D01*
X16292184Y-93155051D01*
X16481588Y-93251557D01*
X16683757Y-93317246D01*
X16893713Y-93350500D01*
X16893714Y-93350500D01*
X17106286Y-93350500D01*
X17106287Y-93350500D01*
X17316243Y-93317246D01*
X17518412Y-93251557D01*
X17707816Y-93155051D01*
X17729789Y-93139086D01*
X17879786Y-93030109D01*
X17879788Y-93030106D01*
X17879792Y-93030104D01*
X18030104Y-92879792D01*
X18030106Y-92879788D01*
X18030109Y-92879786D01*
X18155048Y-92707820D01*
X18155047Y-92707820D01*
X18155051Y-92707816D01*
X18251557Y-92518412D01*
X18317246Y-92316243D01*
X18350500Y-92106287D01*
X18350500Y-91893713D01*
X158649500Y-91893713D01*
X158649500Y-92106286D01*
X158682753Y-92316239D01*
X158748444Y-92518414D01*
X158844951Y-92707820D01*
X158969890Y-92879786D01*
X159120213Y-93030109D01*
X159292179Y-93155048D01*
X159292181Y-93155049D01*
X159292184Y-93155051D01*
X159481588Y-93251557D01*
X159683757Y-93317246D01*
X159893713Y-93350500D01*
X159893714Y-93350500D01*
X160106286Y-93350500D01*
X160106287Y-93350500D01*
X160316243Y-93317246D01*
X160518412Y-93251557D01*
X160707816Y-93155051D01*
X160729789Y-93139086D01*
X160879786Y-93030109D01*
X160879788Y-93030106D01*
X160879792Y-93030104D01*
X161030104Y-92879792D01*
X161030106Y-92879788D01*
X161030109Y-92879786D01*
X161155048Y-92707820D01*
X161155047Y-92707820D01*
X161155051Y-92707816D01*
X161251557Y-92518412D01*
X161317246Y-92316243D01*
X161350500Y-92106287D01*
X161350500Y-91893713D01*
X161317246Y-91683757D01*
X161251557Y-91481588D01*
X161155051Y-91292184D01*
X161155049Y-91292181D01*
X161155048Y-91292179D01*
X161030109Y-91120213D01*
X160879786Y-90969890D01*
X160707820Y-90844951D01*
X160518414Y-90748444D01*
X160518413Y-90748443D01*
X160518412Y-90748443D01*
X160316243Y-90682754D01*
X160316241Y-90682753D01*
X160316240Y-90682753D01*
X160154957Y-90657208D01*
X160106287Y-90649500D01*
X159893713Y-90649500D01*
X159845042Y-90657208D01*
X159683760Y-90682753D01*
X159481585Y-90748444D01*
X159292179Y-90844951D01*
X159120213Y-90969890D01*
X158969890Y-91120213D01*
X158844951Y-91292179D01*
X158748444Y-91481585D01*
X158682753Y-91683760D01*
X158649500Y-91893713D01*
X18350500Y-91893713D01*
X18317246Y-91683757D01*
X18251557Y-91481588D01*
X18155051Y-91292184D01*
X18155049Y-91292181D01*
X18155048Y-91292179D01*
X18030109Y-91120213D01*
X17879786Y-90969890D01*
X17707820Y-90844951D01*
X17518414Y-90748444D01*
X17518413Y-90748443D01*
X17518412Y-90748443D01*
X17316243Y-90682754D01*
X17316241Y-90682753D01*
X17316240Y-90682753D01*
X17154957Y-90657208D01*
X17106287Y-90649500D01*
X16893713Y-90649500D01*
X16845042Y-90657208D01*
X16683760Y-90682753D01*
X16481585Y-90748444D01*
X16292179Y-90844951D01*
X16120213Y-90969890D01*
X15969890Y-91120213D01*
X15844951Y-91292179D01*
X15748444Y-91481585D01*
X15682753Y-91683760D01*
X15649500Y-91893713D01*
X14250500Y-91893713D01*
X14250500Y-83396153D01*
X127324500Y-83396153D01*
X127324500Y-83553846D01*
X127355261Y-83708489D01*
X127355264Y-83708501D01*
X127415602Y-83854172D01*
X127415609Y-83854185D01*
X127503210Y-83985288D01*
X127503213Y-83985292D01*
X127614707Y-84096786D01*
X127614711Y-84096789D01*
X127745814Y-84184390D01*
X127745827Y-84184397D01*
X127891498Y-84244735D01*
X127891503Y-84244737D01*
X128046153Y-84275499D01*
X128046156Y-84275500D01*
X128046158Y-84275500D01*
X128203844Y-84275500D01*
X128203845Y-84275499D01*
X128358497Y-84244737D01*
X128504179Y-84184394D01*
X128635289Y-84096789D01*
X128746789Y-83985289D01*
X128834394Y-83854179D01*
X128894737Y-83708497D01*
X128925500Y-83553842D01*
X128925500Y-83396158D01*
X128925500Y-83396155D01*
X128925499Y-83396153D01*
X128894738Y-83241510D01*
X128894737Y-83241503D01*
X128894735Y-83241498D01*
X128834397Y-83095827D01*
X128834390Y-83095814D01*
X128746789Y-82964711D01*
X128746786Y-82964707D01*
X128635292Y-82853213D01*
X128635288Y-82853210D01*
X128504185Y-82765609D01*
X128504172Y-82765602D01*
X128358501Y-82705264D01*
X128358489Y-82705261D01*
X128203845Y-82674500D01*
X128203842Y-82674500D01*
X128046158Y-82674500D01*
X128046155Y-82674500D01*
X127891510Y-82705261D01*
X127891498Y-82705264D01*
X127745827Y-82765602D01*
X127745814Y-82765609D01*
X127614711Y-82853210D01*
X127614707Y-82853213D01*
X127503213Y-82964707D01*
X127503210Y-82964711D01*
X127415609Y-83095814D01*
X127415602Y-83095827D01*
X127355264Y-83241498D01*
X127355261Y-83241510D01*
X127324500Y-83396153D01*
X14250500Y-83396153D01*
X14250500Y-79584568D01*
X99799500Y-79584568D01*
X99799500Y-79865431D01*
X99830942Y-80144494D01*
X99830945Y-80144512D01*
X99893439Y-80418317D01*
X99893443Y-80418329D01*
X99986200Y-80683411D01*
X100108053Y-80936442D01*
X100108055Y-80936445D01*
X100257477Y-81174248D01*
X100432584Y-81393825D01*
X100631175Y-81592416D01*
X100850752Y-81767523D01*
X101088555Y-81916945D01*
X101341592Y-82038801D01*
X101507304Y-82096786D01*
X101606670Y-82131556D01*
X101606682Y-82131560D01*
X101880491Y-82194055D01*
X101880497Y-82194055D01*
X101880505Y-82194057D01*
X102066547Y-82215018D01*
X102159569Y-82225499D01*
X102159572Y-82225500D01*
X102159575Y-82225500D01*
X102440428Y-82225500D01*
X102440429Y-82225499D01*
X102583055Y-82209429D01*
X102719494Y-82194057D01*
X102719499Y-82194056D01*
X102719509Y-82194055D01*
X102993318Y-82131560D01*
X103258408Y-82038801D01*
X103511445Y-81916945D01*
X103749248Y-81767523D01*
X103968825Y-81592416D01*
X104167416Y-81393825D01*
X104342523Y-81174248D01*
X104491945Y-80936445D01*
X104613801Y-80683408D01*
X104706560Y-80418318D01*
X104769055Y-80144509D01*
X104770094Y-80135292D01*
X104800499Y-79865431D01*
X104800500Y-79865427D01*
X104800500Y-79584572D01*
X104800499Y-79584568D01*
X104797050Y-79553949D01*
X104796172Y-79546153D01*
X121824500Y-79546153D01*
X121824500Y-79703846D01*
X121855261Y-79858489D01*
X121855264Y-79858501D01*
X121915602Y-80004172D01*
X121915609Y-80004185D01*
X122003210Y-80135288D01*
X122003213Y-80135292D01*
X122114707Y-80246786D01*
X122114711Y-80246789D01*
X122245814Y-80334390D01*
X122245827Y-80334397D01*
X122391498Y-80394735D01*
X122391503Y-80394737D01*
X122546153Y-80425499D01*
X122546156Y-80425500D01*
X122546158Y-80425500D01*
X122703844Y-80425500D01*
X122703845Y-80425499D01*
X122858497Y-80394737D01*
X123004179Y-80334394D01*
X123135289Y-80246789D01*
X123171868Y-80210210D01*
X123251097Y-80130982D01*
X123252414Y-80132299D01*
X123302949Y-80097859D01*
X123372793Y-80095970D01*
X123432571Y-80132142D01*
X123444189Y-80146957D01*
X123503210Y-80235288D01*
X123503213Y-80235292D01*
X123614707Y-80346786D01*
X123614711Y-80346789D01*
X123745814Y-80434390D01*
X123745827Y-80434397D01*
X123891498Y-80494735D01*
X123891503Y-80494737D01*
X124017186Y-80519737D01*
X124046153Y-80525499D01*
X124046156Y-80525500D01*
X124046158Y-80525500D01*
X124203844Y-80525500D01*
X124203845Y-80525499D01*
X124358497Y-80494737D01*
X124445989Y-80458497D01*
X124467377Y-80449638D01*
X124536846Y-80442169D01*
X124599325Y-80473444D01*
X124629390Y-80516746D01*
X124665604Y-80604176D01*
X124665609Y-80604185D01*
X124753210Y-80735288D01*
X124753213Y-80735292D01*
X124864707Y-80846786D01*
X124864711Y-80846789D01*
X124995814Y-80934390D01*
X124995827Y-80934397D01*
X125069013Y-80964711D01*
X125141503Y-80994737D01*
X125296153Y-81025499D01*
X125296156Y-81025500D01*
X125296158Y-81025500D01*
X125453844Y-81025500D01*
X125453845Y-81025499D01*
X125608497Y-80994737D01*
X125721166Y-80948067D01*
X125754172Y-80934397D01*
X125754172Y-80934396D01*
X125754179Y-80934394D01*
X125885289Y-80846789D01*
X125996789Y-80735289D01*
X126084394Y-80604179D01*
X126120610Y-80516743D01*
X126164449Y-80462344D01*
X126230743Y-80440278D01*
X126282622Y-80449638D01*
X126391498Y-80494735D01*
X126391503Y-80494737D01*
X126517186Y-80519737D01*
X126546153Y-80525499D01*
X126546156Y-80525500D01*
X126546158Y-80525500D01*
X126703844Y-80525500D01*
X126703845Y-80525499D01*
X126858497Y-80494737D01*
X127004179Y-80434394D01*
X127135289Y-80346789D01*
X127246789Y-80235289D01*
X127263545Y-80210210D01*
X127317155Y-80165407D01*
X127386479Y-80156698D01*
X127449508Y-80186852D01*
X127469749Y-80210210D01*
X127503213Y-80260292D01*
X127614707Y-80371786D01*
X127614711Y-80371789D01*
X127745814Y-80459390D01*
X127745827Y-80459397D01*
X127838876Y-80497939D01*
X127893280Y-80541780D01*
X127915345Y-80608074D01*
X127898066Y-80675773D01*
X127846929Y-80723384D01*
X127838876Y-80727061D01*
X127745827Y-80765602D01*
X127745814Y-80765609D01*
X127614711Y-80853210D01*
X127614707Y-80853213D01*
X127503213Y-80964707D01*
X127503210Y-80964711D01*
X127415609Y-81095814D01*
X127415602Y-81095827D01*
X127355264Y-81241498D01*
X127355261Y-81241510D01*
X127324500Y-81396153D01*
X127324500Y-81553846D01*
X127355261Y-81708489D01*
X127355264Y-81708501D01*
X127415602Y-81854172D01*
X127415609Y-81854185D01*
X127503210Y-81985288D01*
X127503213Y-81985292D01*
X127614707Y-82096786D01*
X127614711Y-82096789D01*
X127745814Y-82184390D01*
X127745827Y-82184397D01*
X127845060Y-82225500D01*
X127891503Y-82244737D01*
X128046153Y-82275499D01*
X128046156Y-82275500D01*
X128046158Y-82275500D01*
X128203844Y-82275500D01*
X128203845Y-82275499D01*
X128358497Y-82244737D01*
X128504179Y-82184394D01*
X128635289Y-82096789D01*
X128746789Y-81985289D01*
X128834394Y-81854179D01*
X128894737Y-81708497D01*
X128925500Y-81553842D01*
X128925500Y-81396158D01*
X128925500Y-81396155D01*
X128925499Y-81396153D01*
X128894738Y-81241510D01*
X128894737Y-81241503D01*
X128894735Y-81241498D01*
X128834397Y-81095827D01*
X128834390Y-81095814D01*
X128746789Y-80964711D01*
X128746786Y-80964707D01*
X128635292Y-80853213D01*
X128635288Y-80853210D01*
X128504185Y-80765609D01*
X128504172Y-80765602D01*
X128411123Y-80727061D01*
X128356719Y-80683221D01*
X128334654Y-80616927D01*
X128351933Y-80549227D01*
X128403070Y-80501616D01*
X128411123Y-80497939D01*
X128504172Y-80459397D01*
X128504172Y-80459396D01*
X128504179Y-80459394D01*
X128635289Y-80371789D01*
X128746789Y-80260289D01*
X128834394Y-80129179D01*
X128894737Y-79983497D01*
X128925500Y-79828842D01*
X128925500Y-79671158D01*
X128925500Y-79671155D01*
X128902599Y-79556026D01*
X128902599Y-79556025D01*
X128898413Y-79534983D01*
X150162000Y-79534983D01*
X150162000Y-81735001D01*
X150162001Y-81735018D01*
X150172500Y-81837796D01*
X150172501Y-81837799D01*
X150177927Y-81854172D01*
X150227686Y-82004334D01*
X150319788Y-82153656D01*
X150443844Y-82277712D01*
X150593166Y-82369814D01*
X150759703Y-82424999D01*
X150862491Y-82435500D01*
X153062508Y-82435499D01*
X153165297Y-82424999D01*
X153331834Y-82369814D01*
X153481156Y-82277712D01*
X153605212Y-82153656D01*
X153697314Y-82004334D01*
X153752499Y-81837797D01*
X153763000Y-81735009D01*
X153762999Y-79534992D01*
X153760224Y-79507831D01*
X153752499Y-79432203D01*
X153752498Y-79432200D01*
X153740064Y-79394678D01*
X153697314Y-79265666D01*
X153605212Y-79116344D01*
X153481156Y-78992288D01*
X153356834Y-78915606D01*
X153331836Y-78900187D01*
X153331831Y-78900185D01*
X153330362Y-78899698D01*
X153165297Y-78845001D01*
X153165295Y-78845000D01*
X153062510Y-78834500D01*
X150862498Y-78834500D01*
X150862481Y-78834501D01*
X150759703Y-78845000D01*
X150759700Y-78845001D01*
X150593168Y-78900185D01*
X150593163Y-78900187D01*
X150443842Y-78992289D01*
X150319789Y-79116342D01*
X150227687Y-79265663D01*
X150227685Y-79265668D01*
X150213130Y-79309594D01*
X150172501Y-79432203D01*
X150172501Y-79432204D01*
X150172500Y-79432204D01*
X150162000Y-79534983D01*
X128898413Y-79534983D01*
X128894738Y-79516510D01*
X128894737Y-79516503D01*
X128894735Y-79516498D01*
X128834397Y-79370827D01*
X128834390Y-79370814D01*
X128746789Y-79239711D01*
X128746786Y-79239707D01*
X128635292Y-79128213D01*
X128635288Y-79128210D01*
X128504185Y-79040609D01*
X128504172Y-79040602D01*
X128358501Y-78980264D01*
X128358489Y-78980261D01*
X128203845Y-78949500D01*
X128203842Y-78949500D01*
X128046158Y-78949500D01*
X128046155Y-78949500D01*
X127891510Y-78980261D01*
X127891498Y-78980264D01*
X127745827Y-79040602D01*
X127745814Y-79040609D01*
X127614711Y-79128210D01*
X127614707Y-79128213D01*
X127503211Y-79239709D01*
X127486453Y-79264790D01*
X127432840Y-79309594D01*
X127363515Y-79318300D01*
X127300488Y-79288144D01*
X127280250Y-79264788D01*
X127246789Y-79214711D01*
X127246786Y-79214707D01*
X127135292Y-79103213D01*
X127135288Y-79103210D01*
X127004185Y-79015609D01*
X127004172Y-79015602D01*
X126858501Y-78955264D01*
X126858489Y-78955261D01*
X126703845Y-78924500D01*
X126703842Y-78924500D01*
X126546158Y-78924500D01*
X126546155Y-78924500D01*
X126391510Y-78955261D01*
X126391498Y-78955264D01*
X126245827Y-79015602D01*
X126245814Y-79015609D01*
X126114711Y-79103210D01*
X126114707Y-79103213D01*
X126003213Y-79214707D01*
X126003210Y-79214711D01*
X125915609Y-79345814D01*
X125915604Y-79345823D01*
X125879390Y-79433254D01*
X125835549Y-79487657D01*
X125769255Y-79509722D01*
X125717377Y-79500362D01*
X125608501Y-79455264D01*
X125608489Y-79455261D01*
X125453845Y-79424500D01*
X125453842Y-79424500D01*
X125296158Y-79424500D01*
X125296155Y-79424500D01*
X125141510Y-79455261D01*
X125141498Y-79455264D01*
X125032622Y-79500362D01*
X124963153Y-79507831D01*
X124900674Y-79476555D01*
X124870611Y-79433257D01*
X124834394Y-79345821D01*
X124834392Y-79345818D01*
X124834390Y-79345814D01*
X124746789Y-79214711D01*
X124746786Y-79214707D01*
X124635292Y-79103213D01*
X124635288Y-79103210D01*
X124504185Y-79015609D01*
X124504172Y-79015602D01*
X124358501Y-78955264D01*
X124358489Y-78955261D01*
X124203845Y-78924500D01*
X124203842Y-78924500D01*
X124046158Y-78924500D01*
X124046155Y-78924500D01*
X123891510Y-78955261D01*
X123891498Y-78955264D01*
X123745827Y-79015602D01*
X123745814Y-79015609D01*
X123614711Y-79103210D01*
X123614707Y-79103213D01*
X123498903Y-79219018D01*
X123497591Y-79217706D01*
X123447004Y-79252155D01*
X123377159Y-79254017D01*
X123317396Y-79217822D01*
X123305810Y-79203042D01*
X123246789Y-79114710D01*
X123135292Y-79003213D01*
X123135288Y-79003210D01*
X123004185Y-78915609D01*
X123004172Y-78915602D01*
X122858501Y-78855264D01*
X122858489Y-78855261D01*
X122703845Y-78824500D01*
X122703842Y-78824500D01*
X122546158Y-78824500D01*
X122546155Y-78824500D01*
X122391510Y-78855261D01*
X122391498Y-78855264D01*
X122245827Y-78915602D01*
X122245814Y-78915609D01*
X122114711Y-79003210D01*
X122114707Y-79003213D01*
X122003213Y-79114707D01*
X122003210Y-79114711D01*
X121915609Y-79245814D01*
X121915602Y-79245827D01*
X121855264Y-79391498D01*
X121855261Y-79391510D01*
X121824500Y-79546153D01*
X104796172Y-79546153D01*
X104778442Y-79388810D01*
X104769055Y-79305491D01*
X104706560Y-79031682D01*
X104700933Y-79015602D01*
X104660548Y-78900187D01*
X104613801Y-78766592D01*
X104491945Y-78513555D01*
X104342523Y-78275752D01*
X104167416Y-78056175D01*
X103968825Y-77857584D01*
X103749248Y-77682477D01*
X103511445Y-77533055D01*
X103511442Y-77533053D01*
X103258411Y-77411200D01*
X102993329Y-77318443D01*
X102993317Y-77318439D01*
X102719512Y-77255945D01*
X102719494Y-77255942D01*
X102440431Y-77224500D01*
X102440425Y-77224500D01*
X102159575Y-77224500D01*
X102159568Y-77224500D01*
X101880505Y-77255942D01*
X101880487Y-77255945D01*
X101606682Y-77318439D01*
X101606670Y-77318443D01*
X101341588Y-77411200D01*
X101088557Y-77533053D01*
X100850753Y-77682476D01*
X100631175Y-77857583D01*
X100432583Y-78056175D01*
X100257476Y-78275753D01*
X100108053Y-78513557D01*
X99986200Y-78766588D01*
X99893443Y-79031670D01*
X99893439Y-79031682D01*
X99830945Y-79305487D01*
X99830942Y-79305505D01*
X99799500Y-79584568D01*
X14250500Y-79584568D01*
X14250500Y-74077533D01*
X100050000Y-74077533D01*
X100050000Y-74372466D01*
X100050001Y-74372483D01*
X100088496Y-74664884D01*
X100088499Y-74664897D01*
X100164835Y-74949790D01*
X100164838Y-74949800D01*
X100277704Y-75222281D01*
X100277709Y-75222292D01*
X100425174Y-75477707D01*
X100425185Y-75477723D01*
X100604729Y-75711709D01*
X100604734Y-75711715D01*
X100620621Y-75727602D01*
X100620622Y-75727602D01*
X101438098Y-74910125D01*
X101460967Y-74941602D01*
X101583398Y-75064033D01*
X101614874Y-75086901D01*
X100797398Y-75904378D01*
X100813284Y-75920265D01*
X100813290Y-75920270D01*
X101047276Y-76099814D01*
X101047292Y-76099825D01*
X101302707Y-76247290D01*
X101302718Y-76247295D01*
X101575199Y-76360161D01*
X101575209Y-76360164D01*
X101860102Y-76436500D01*
X101860115Y-76436503D01*
X102152516Y-76474998D01*
X102152534Y-76475000D01*
X102447466Y-76475000D01*
X102447483Y-76474998D01*
X102739884Y-76436503D01*
X102739897Y-76436500D01*
X103024790Y-76360164D01*
X103024800Y-76360161D01*
X103297281Y-76247295D01*
X103297292Y-76247290D01*
X103552707Y-76099825D01*
X103552723Y-76099814D01*
X103786709Y-75920270D01*
X103786715Y-75920265D01*
X103802602Y-75904378D01*
X102985125Y-75086901D01*
X103016602Y-75064033D01*
X103139033Y-74941602D01*
X103161901Y-74910125D01*
X103979378Y-75727602D01*
X103979379Y-75727602D01*
X103995265Y-75711715D01*
X103995270Y-75711709D01*
X104174814Y-75477723D01*
X104174825Y-75477707D01*
X104322290Y-75222292D01*
X104322295Y-75222281D01*
X104435161Y-74949800D01*
X104435164Y-74949790D01*
X104511500Y-74664897D01*
X104511502Y-74664887D01*
X104513969Y-74646153D01*
X122824500Y-74646153D01*
X122824500Y-74803846D01*
X122855261Y-74958489D01*
X122855264Y-74958501D01*
X122915602Y-75104172D01*
X122915609Y-75104185D01*
X123003210Y-75235288D01*
X123003213Y-75235292D01*
X123114707Y-75346786D01*
X123114711Y-75346789D01*
X123245814Y-75434390D01*
X123245827Y-75434397D01*
X123391498Y-75494735D01*
X123391503Y-75494737D01*
X123546153Y-75525499D01*
X123546156Y-75525500D01*
X123546158Y-75525500D01*
X123703844Y-75525500D01*
X123703845Y-75525499D01*
X123858497Y-75494737D01*
X124004179Y-75434394D01*
X124135289Y-75346789D01*
X124246789Y-75235289D01*
X124334394Y-75104179D01*
X124394737Y-74958497D01*
X124425500Y-74803842D01*
X124425500Y-74646158D01*
X124425500Y-74646155D01*
X124425499Y-74646153D01*
X126074500Y-74646153D01*
X126074500Y-74803846D01*
X126105261Y-74958489D01*
X126105264Y-74958501D01*
X126165602Y-75104172D01*
X126165609Y-75104185D01*
X126253210Y-75235288D01*
X126253213Y-75235292D01*
X126364707Y-75346786D01*
X126364711Y-75346789D01*
X126495814Y-75434390D01*
X126495827Y-75434397D01*
X126641498Y-75494735D01*
X126641503Y-75494737D01*
X126796153Y-75525499D01*
X126796156Y-75525500D01*
X126796158Y-75525500D01*
X126953844Y-75525500D01*
X126953845Y-75525499D01*
X127108497Y-75494737D01*
X127254179Y-75434394D01*
X127385289Y-75346789D01*
X127496789Y-75235289D01*
X127584394Y-75104179D01*
X127644737Y-74958497D01*
X127657138Y-74896153D01*
X129324500Y-74896153D01*
X129324500Y-75053846D01*
X129355261Y-75208489D01*
X129355264Y-75208501D01*
X129415602Y-75354172D01*
X129415609Y-75354185D01*
X129503210Y-75485288D01*
X129503213Y-75485292D01*
X129614707Y-75596786D01*
X129614711Y-75596789D01*
X129745814Y-75684390D01*
X129745827Y-75684397D01*
X129850135Y-75727602D01*
X129891503Y-75744737D01*
X130046153Y-75775499D01*
X130046156Y-75775500D01*
X130046158Y-75775500D01*
X130203844Y-75775500D01*
X130203845Y-75775499D01*
X130358497Y-75744737D01*
X130504179Y-75684394D01*
X130635289Y-75596789D01*
X130746789Y-75485289D01*
X130834394Y-75354179D01*
X130894737Y-75208497D01*
X130925500Y-75053842D01*
X130925500Y-74896158D01*
X130925500Y-74896155D01*
X130925499Y-74896153D01*
X130919476Y-74865874D01*
X130894737Y-74741503D01*
X130865839Y-74671737D01*
X130834397Y-74595827D01*
X130834390Y-74595814D01*
X130746789Y-74464711D01*
X130746786Y-74464707D01*
X130635292Y-74353213D01*
X130635288Y-74353210D01*
X130504185Y-74265609D01*
X130504172Y-74265602D01*
X130358501Y-74205264D01*
X130358489Y-74205261D01*
X130203845Y-74174500D01*
X130203842Y-74174500D01*
X130046158Y-74174500D01*
X130046155Y-74174500D01*
X129891510Y-74205261D01*
X129891498Y-74205264D01*
X129745827Y-74265602D01*
X129745814Y-74265609D01*
X129614711Y-74353210D01*
X129614707Y-74353213D01*
X129503213Y-74464707D01*
X129503210Y-74464711D01*
X129415609Y-74595814D01*
X129415602Y-74595827D01*
X129355264Y-74741498D01*
X129355261Y-74741510D01*
X129324500Y-74896153D01*
X127657138Y-74896153D01*
X127672076Y-74821057D01*
X127675500Y-74803844D01*
X127675500Y-74646155D01*
X127675499Y-74646153D01*
X127656879Y-74552545D01*
X127644737Y-74491503D01*
X127641043Y-74482584D01*
X127584397Y-74345827D01*
X127584390Y-74345814D01*
X127496789Y-74214711D01*
X127496786Y-74214707D01*
X127385292Y-74103213D01*
X127385288Y-74103210D01*
X127254185Y-74015609D01*
X127254172Y-74015602D01*
X127108501Y-73955264D01*
X127108489Y-73955261D01*
X126953845Y-73924500D01*
X126953842Y-73924500D01*
X126796158Y-73924500D01*
X126796155Y-73924500D01*
X126641510Y-73955261D01*
X126641498Y-73955264D01*
X126495827Y-74015602D01*
X126495814Y-74015609D01*
X126364711Y-74103210D01*
X126364707Y-74103213D01*
X126253213Y-74214707D01*
X126253210Y-74214711D01*
X126165609Y-74345814D01*
X126165602Y-74345827D01*
X126105264Y-74491498D01*
X126105261Y-74491510D01*
X126074500Y-74646153D01*
X124425499Y-74646153D01*
X124406879Y-74552545D01*
X124394737Y-74491503D01*
X124391043Y-74482584D01*
X124334397Y-74345827D01*
X124334390Y-74345814D01*
X124246789Y-74214711D01*
X124246786Y-74214707D01*
X124135292Y-74103213D01*
X124135288Y-74103210D01*
X124004185Y-74015609D01*
X124004172Y-74015602D01*
X123858501Y-73955264D01*
X123858491Y-73955261D01*
X123766389Y-73936941D01*
X123704479Y-73904556D01*
X123669904Y-73843840D01*
X123673644Y-73774071D01*
X123714511Y-73717399D01*
X123766390Y-73693707D01*
X123827455Y-73681559D01*
X123898133Y-73667501D01*
X124043815Y-73607158D01*
X124050960Y-73602384D01*
X139774500Y-73602384D01*
X139774500Y-74402402D01*
X139774501Y-74402420D01*
X139785000Y-74505197D01*
X139785001Y-74505200D01*
X139832073Y-74647253D01*
X139840186Y-74671735D01*
X139932288Y-74821057D01*
X140056344Y-74945113D01*
X140205666Y-75037215D01*
X140355090Y-75086729D01*
X140412535Y-75126502D01*
X140439358Y-75191018D01*
X140427043Y-75259793D01*
X140384977Y-75307537D01*
X140368154Y-75318777D01*
X140368154Y-75318778D01*
X140769470Y-75720094D01*
X140759204Y-75722845D01*
X140690795Y-75762341D01*
X140634940Y-75818196D01*
X140595444Y-75886605D01*
X140592693Y-75896871D01*
X140191377Y-75495555D01*
X140191376Y-75495555D01*
X140121739Y-75599776D01*
X140057665Y-75754464D01*
X140057663Y-75754472D01*
X140025000Y-75918678D01*
X140025000Y-76086123D01*
X140057663Y-76250329D01*
X140057665Y-76250337D01*
X140121738Y-76405024D01*
X140121743Y-76405032D01*
X140191377Y-76509245D01*
X140592693Y-76107930D01*
X140595444Y-76118197D01*
X140634940Y-76186606D01*
X140690795Y-76242461D01*
X140759204Y-76281957D01*
X140769469Y-76284707D01*
X140368153Y-76686023D01*
X140472376Y-76755662D01*
X140627063Y-76819735D01*
X140627071Y-76819737D01*
X140791277Y-76852400D01*
X140791280Y-76852401D01*
X140958720Y-76852401D01*
X140958722Y-76852400D01*
X141122928Y-76819737D01*
X141122936Y-76819735D01*
X141277623Y-76755662D01*
X141381845Y-76686023D01*
X141381845Y-76686022D01*
X140980531Y-76284707D01*
X140990796Y-76281957D01*
X141059205Y-76242461D01*
X141115060Y-76186606D01*
X141154556Y-76118197D01*
X141157306Y-76107931D01*
X141558621Y-76509246D01*
X141558622Y-76509246D01*
X141628261Y-76405024D01*
X141692334Y-76250337D01*
X141692336Y-76250329D01*
X141724999Y-76086123D01*
X141725000Y-76086121D01*
X141725000Y-75918680D01*
X141724999Y-75918678D01*
X141692336Y-75754472D01*
X141692334Y-75754464D01*
X141628261Y-75599777D01*
X141562809Y-75501821D01*
X141558622Y-75495554D01*
X141157306Y-75896870D01*
X141154556Y-75886605D01*
X141115060Y-75818196D01*
X141059205Y-75762341D01*
X140990796Y-75722845D01*
X140980530Y-75720094D01*
X141263628Y-75436995D01*
X150162000Y-75436995D01*
X150162000Y-75673004D01*
X150162001Y-75673020D01*
X150192806Y-75907010D01*
X150253894Y-76134993D01*
X150344214Y-76353045D01*
X150344219Y-76353056D01*
X150374228Y-76405032D01*
X150462227Y-76557450D01*
X150462229Y-76557453D01*
X150462230Y-76557454D01*
X150605906Y-76744697D01*
X150605912Y-76744704D01*
X150772795Y-76911587D01*
X150772801Y-76911592D01*
X150960050Y-77055273D01*
X151091418Y-77131118D01*
X151164443Y-77173280D01*
X151164448Y-77173282D01*
X151164451Y-77173284D01*
X151382507Y-77263606D01*
X151610486Y-77324693D01*
X151844489Y-77355500D01*
X151844496Y-77355500D01*
X152080504Y-77355500D01*
X152080511Y-77355500D01*
X152314514Y-77324693D01*
X152542493Y-77263606D01*
X152760549Y-77173284D01*
X152964950Y-77055273D01*
X153152199Y-76911592D01*
X153319092Y-76744699D01*
X153462773Y-76557450D01*
X153580784Y-76353049D01*
X153671106Y-76134993D01*
X153732193Y-75907014D01*
X153763000Y-75673011D01*
X153763000Y-75436989D01*
X153732193Y-75202986D01*
X153671106Y-74975007D01*
X153580784Y-74756951D01*
X153580782Y-74756948D01*
X153580780Y-74756943D01*
X153531586Y-74671737D01*
X153462773Y-74552550D01*
X153395369Y-74464707D01*
X153319093Y-74365302D01*
X153319087Y-74365295D01*
X153152204Y-74198412D01*
X153152197Y-74198406D01*
X152964954Y-74054730D01*
X152964953Y-74054729D01*
X152964950Y-74054727D01*
X152883457Y-74007677D01*
X152760556Y-73936719D01*
X152760545Y-73936714D01*
X152542493Y-73846394D01*
X152314510Y-73785306D01*
X152080520Y-73754501D01*
X152080517Y-73754500D01*
X152080511Y-73754500D01*
X151844489Y-73754500D01*
X151844483Y-73754500D01*
X151844479Y-73754501D01*
X151610489Y-73785306D01*
X151382506Y-73846394D01*
X151164454Y-73936714D01*
X151164443Y-73936719D01*
X150960045Y-74054730D01*
X150772802Y-74198406D01*
X150772795Y-74198412D01*
X150605912Y-74365295D01*
X150605906Y-74365302D01*
X150462230Y-74552545D01*
X150344219Y-74756943D01*
X150344214Y-74756954D01*
X150253894Y-74975006D01*
X150192806Y-75202989D01*
X150162001Y-75436979D01*
X150162000Y-75436995D01*
X141263628Y-75436995D01*
X141381844Y-75318778D01*
X141365021Y-75307537D01*
X141320217Y-75253924D01*
X141311510Y-75184599D01*
X141341665Y-75121572D01*
X141394907Y-75086730D01*
X141544334Y-75037215D01*
X141693656Y-74945113D01*
X141817712Y-74821057D01*
X141909814Y-74671735D01*
X141964999Y-74505198D01*
X141975500Y-74402410D01*
X141975499Y-73602393D01*
X141974329Y-73590944D01*
X141964999Y-73499604D01*
X141964998Y-73499601D01*
X141934662Y-73408053D01*
X141909814Y-73333067D01*
X141817712Y-73183745D01*
X141693656Y-73059689D01*
X141558963Y-72976610D01*
X141544336Y-72967588D01*
X141544331Y-72967586D01*
X141542862Y-72967099D01*
X141377797Y-72912402D01*
X141377795Y-72912401D01*
X141275010Y-72901901D01*
X140474998Y-72901901D01*
X140474980Y-72901902D01*
X140372203Y-72912401D01*
X140372200Y-72912402D01*
X140205668Y-72967586D01*
X140205663Y-72967588D01*
X140056342Y-73059690D01*
X139932289Y-73183743D01*
X139840187Y-73333064D01*
X139840186Y-73333067D01*
X139785001Y-73499604D01*
X139785001Y-73499605D01*
X139785000Y-73499605D01*
X139774500Y-73602384D01*
X124050960Y-73602384D01*
X124174925Y-73519553D01*
X124286425Y-73408053D01*
X124374030Y-73276943D01*
X124434373Y-73131261D01*
X124465136Y-72976606D01*
X124465136Y-72818922D01*
X124465136Y-72818919D01*
X124465135Y-72818917D01*
X124447390Y-72729702D01*
X124443789Y-72711598D01*
X126344087Y-72711598D01*
X126344087Y-72869291D01*
X126374848Y-73023934D01*
X126374851Y-73023946D01*
X126435189Y-73169617D01*
X126435196Y-73169630D01*
X126522797Y-73300733D01*
X126522800Y-73300737D01*
X126634294Y-73412231D01*
X126634298Y-73412234D01*
X126765401Y-73499835D01*
X126765414Y-73499842D01*
X126911085Y-73560180D01*
X126911090Y-73560182D01*
X127065740Y-73590944D01*
X127065743Y-73590945D01*
X127065745Y-73590945D01*
X127223431Y-73590945D01*
X127223432Y-73590944D01*
X127378084Y-73560182D01*
X127523766Y-73499839D01*
X127529312Y-73496133D01*
X127529313Y-73496133D01*
X127575670Y-73465157D01*
X127654876Y-73412234D01*
X127766376Y-73300734D01*
X127853981Y-73169624D01*
X127914324Y-73023942D01*
X127945087Y-72869287D01*
X127945087Y-72711603D01*
X127945087Y-72711600D01*
X127945086Y-72711598D01*
X127914324Y-72556948D01*
X127901298Y-72525500D01*
X127853984Y-72411272D01*
X127853977Y-72411259D01*
X127766376Y-72280156D01*
X127766373Y-72280152D01*
X127654879Y-72168658D01*
X127654875Y-72168655D01*
X127523772Y-72081054D01*
X127523759Y-72081047D01*
X127378088Y-72020709D01*
X127378076Y-72020706D01*
X127223432Y-71989945D01*
X127223429Y-71989945D01*
X127065745Y-71989945D01*
X127065742Y-71989945D01*
X126911097Y-72020706D01*
X126911085Y-72020709D01*
X126765414Y-72081047D01*
X126765401Y-72081054D01*
X126634298Y-72168655D01*
X126634294Y-72168658D01*
X126522800Y-72280152D01*
X126522797Y-72280156D01*
X126435196Y-72411259D01*
X126435189Y-72411272D01*
X126374851Y-72556943D01*
X126374848Y-72556955D01*
X126344087Y-72711598D01*
X124443789Y-72711598D01*
X124434374Y-72664272D01*
X124434373Y-72664271D01*
X124434373Y-72664267D01*
X124434371Y-72664262D01*
X124374033Y-72518591D01*
X124374026Y-72518578D01*
X124286425Y-72387475D01*
X124286422Y-72387471D01*
X124174928Y-72275977D01*
X124174924Y-72275974D01*
X124043821Y-72188373D01*
X124043808Y-72188366D01*
X123898137Y-72128028D01*
X123898125Y-72128025D01*
X123743481Y-72097264D01*
X123743478Y-72097264D01*
X123585794Y-72097264D01*
X123585791Y-72097264D01*
X123431146Y-72128025D01*
X123431134Y-72128028D01*
X123285463Y-72188366D01*
X123285450Y-72188373D01*
X123154347Y-72275974D01*
X123154343Y-72275977D01*
X123042849Y-72387471D01*
X123042846Y-72387475D01*
X122955245Y-72518578D01*
X122955238Y-72518591D01*
X122894900Y-72664262D01*
X122894897Y-72664274D01*
X122864136Y-72818917D01*
X122864136Y-72976610D01*
X122894897Y-73131253D01*
X122894900Y-73131265D01*
X122955238Y-73276936D01*
X122955245Y-73276949D01*
X123042846Y-73408052D01*
X123042849Y-73408056D01*
X123154343Y-73519550D01*
X123154347Y-73519553D01*
X123285450Y-73607154D01*
X123285463Y-73607161D01*
X123431134Y-73667499D01*
X123431139Y-73667501D01*
X123523245Y-73685822D01*
X123585156Y-73718206D01*
X123619730Y-73778922D01*
X123615991Y-73848691D01*
X123575125Y-73905364D01*
X123523246Y-73929056D01*
X123391508Y-73955261D01*
X123391498Y-73955264D01*
X123245827Y-74015602D01*
X123245814Y-74015609D01*
X123114711Y-74103210D01*
X123114707Y-74103213D01*
X123003213Y-74214707D01*
X123003210Y-74214711D01*
X122915609Y-74345814D01*
X122915602Y-74345827D01*
X122855264Y-74491498D01*
X122855261Y-74491510D01*
X122824500Y-74646153D01*
X104513969Y-74646153D01*
X104516902Y-74623879D01*
X104516902Y-74623878D01*
X104549998Y-74372483D01*
X104550000Y-74372466D01*
X104550000Y-74077533D01*
X104549998Y-74077516D01*
X104511503Y-73785115D01*
X104511500Y-73785102D01*
X104435164Y-73500209D01*
X104435161Y-73500199D01*
X104322295Y-73227718D01*
X104322290Y-73227707D01*
X104174825Y-72972292D01*
X104174814Y-72972276D01*
X103995270Y-72738290D01*
X103995265Y-72738284D01*
X103979379Y-72722398D01*
X103979378Y-72722398D01*
X103161901Y-73539874D01*
X103139033Y-73508398D01*
X103016602Y-73385967D01*
X102985125Y-73363098D01*
X103802602Y-72545622D01*
X103802602Y-72545621D01*
X103786715Y-72529734D01*
X103786709Y-72529729D01*
X103552723Y-72350185D01*
X103552707Y-72350174D01*
X103297292Y-72202709D01*
X103297281Y-72202704D01*
X103024800Y-72089838D01*
X103024790Y-72089835D01*
X102739897Y-72013499D01*
X102739884Y-72013496D01*
X102447483Y-71975001D01*
X102447466Y-71975000D01*
X102152534Y-71975000D01*
X102152516Y-71975001D01*
X101860115Y-72013496D01*
X101860102Y-72013499D01*
X101575209Y-72089835D01*
X101575199Y-72089838D01*
X101302718Y-72202704D01*
X101302707Y-72202709D01*
X101047292Y-72350174D01*
X101047276Y-72350185D01*
X100813290Y-72529729D01*
X100813284Y-72529734D01*
X100797398Y-72545621D01*
X100797398Y-72545622D01*
X101614874Y-73363098D01*
X101583398Y-73385967D01*
X101460967Y-73508398D01*
X101438098Y-73539874D01*
X100620622Y-72722398D01*
X100620621Y-72722398D01*
X100604734Y-72738284D01*
X100604729Y-72738290D01*
X100425185Y-72972276D01*
X100425174Y-72972292D01*
X100277709Y-73227707D01*
X100277704Y-73227718D01*
X100164838Y-73500199D01*
X100164835Y-73500209D01*
X100088499Y-73785102D01*
X100088496Y-73785115D01*
X100050001Y-74077516D01*
X100050000Y-74077533D01*
X14250500Y-74077533D01*
X14250500Y-70646153D01*
X124074500Y-70646153D01*
X124074500Y-70803846D01*
X124105261Y-70958489D01*
X124105264Y-70958501D01*
X124165602Y-71104172D01*
X124165609Y-71104185D01*
X124253210Y-71235288D01*
X124253213Y-71235292D01*
X124364707Y-71346786D01*
X124364711Y-71346789D01*
X124495814Y-71434390D01*
X124495827Y-71434397D01*
X124633683Y-71491498D01*
X124641503Y-71494737D01*
X124796153Y-71525499D01*
X124796156Y-71525500D01*
X124796158Y-71525500D01*
X124953844Y-71525500D01*
X124953845Y-71525499D01*
X125108497Y-71494737D01*
X125254179Y-71434394D01*
X125254185Y-71434390D01*
X125385875Y-71346398D01*
X125452553Y-71325520D01*
X125454766Y-71325500D01*
X131324903Y-71325500D01*
X131391942Y-71345185D01*
X131412584Y-71361819D01*
X131790425Y-71739660D01*
X131823910Y-71800983D01*
X131824361Y-71803149D01*
X131855261Y-71958491D01*
X131855264Y-71958501D01*
X131915602Y-72104172D01*
X131915609Y-72104185D01*
X132003210Y-72235288D01*
X132003213Y-72235292D01*
X132114707Y-72346786D01*
X132114711Y-72346789D01*
X132245814Y-72434390D01*
X132245827Y-72434397D01*
X132391498Y-72494735D01*
X132391503Y-72494737D01*
X132546153Y-72525499D01*
X132546156Y-72525500D01*
X132546158Y-72525500D01*
X132703844Y-72525500D01*
X132703845Y-72525499D01*
X132858497Y-72494737D01*
X133004179Y-72434394D01*
X133135289Y-72346789D01*
X133246789Y-72235289D01*
X133334394Y-72104179D01*
X133394737Y-71958497D01*
X133425500Y-71803842D01*
X133425500Y-71646158D01*
X133425500Y-71646155D01*
X133423479Y-71635994D01*
X133423479Y-71635993D01*
X133394738Y-71491508D01*
X133394737Y-71491507D01*
X133394737Y-71491503D01*
X133394735Y-71491498D01*
X133334397Y-71345827D01*
X133334390Y-71345814D01*
X133246789Y-71214711D01*
X133246786Y-71214707D01*
X133135292Y-71103213D01*
X133135288Y-71103210D01*
X133004185Y-71015609D01*
X133004172Y-71015602D01*
X132858501Y-70955264D01*
X132858491Y-70955261D01*
X132703149Y-70924361D01*
X132641238Y-70891976D01*
X132639660Y-70890425D01*
X132112590Y-70363355D01*
X132112588Y-70363352D01*
X132102242Y-70353006D01*
X150412500Y-70353006D01*
X150412500Y-70596993D01*
X150450665Y-70837959D01*
X150526060Y-71069998D01*
X150636821Y-71287377D01*
X150778433Y-71482288D01*
X150778433Y-71482289D01*
X151423069Y-70837653D01*
X151457612Y-70889351D01*
X151548149Y-70979888D01*
X151599845Y-71014429D01*
X150955209Y-71659065D01*
X151150122Y-71800678D01*
X151367501Y-71911439D01*
X151599540Y-71986834D01*
X151840507Y-72025000D01*
X152084493Y-72025000D01*
X152325459Y-71986834D01*
X152557498Y-71911439D01*
X152774877Y-71800678D01*
X152969788Y-71659065D01*
X152969789Y-71659065D01*
X152325154Y-71014429D01*
X152376851Y-70979888D01*
X152467388Y-70889351D01*
X152501930Y-70837654D01*
X153146565Y-71482289D01*
X153146565Y-71482288D01*
X153288178Y-71287377D01*
X153398939Y-71069998D01*
X153474334Y-70837959D01*
X153512500Y-70596993D01*
X153512500Y-70353006D01*
X153474334Y-70112040D01*
X153398939Y-69880001D01*
X153288178Y-69662622D01*
X153146565Y-69467710D01*
X153146565Y-69467709D01*
X152501929Y-70112344D01*
X152467388Y-70060649D01*
X152376851Y-69970112D01*
X152325153Y-69935569D01*
X152969789Y-69290933D01*
X152774877Y-69149321D01*
X152557498Y-69038560D01*
X152325459Y-68963165D01*
X152084493Y-68925000D01*
X151840507Y-68925000D01*
X151599540Y-68963165D01*
X151367501Y-69038560D01*
X151150119Y-69149323D01*
X150955210Y-69290931D01*
X150955209Y-69290933D01*
X151599846Y-69935569D01*
X151548149Y-69970112D01*
X151457612Y-70060649D01*
X151423069Y-70112345D01*
X150778433Y-69467709D01*
X150778431Y-69467710D01*
X150636823Y-69662619D01*
X150526060Y-69880001D01*
X150450665Y-70112040D01*
X150412500Y-70353006D01*
X132102242Y-70353006D01*
X131993717Y-70244481D01*
X131993716Y-70244480D01*
X131906904Y-70194360D01*
X131906904Y-70194359D01*
X131906900Y-70194358D01*
X131856785Y-70165423D01*
X131704057Y-70124499D01*
X131545943Y-70124499D01*
X131538347Y-70124499D01*
X131538331Y-70124500D01*
X125454766Y-70124500D01*
X125387727Y-70104815D01*
X125385875Y-70103602D01*
X125254185Y-70015609D01*
X125254172Y-70015602D01*
X125108501Y-69955264D01*
X125108489Y-69955261D01*
X124953845Y-69924500D01*
X124953842Y-69924500D01*
X124796158Y-69924500D01*
X124796155Y-69924500D01*
X124641510Y-69955261D01*
X124641498Y-69955264D01*
X124495827Y-70015602D01*
X124495814Y-70015609D01*
X124364711Y-70103210D01*
X124364707Y-70103213D01*
X124253213Y-70214707D01*
X124253210Y-70214711D01*
X124165609Y-70345814D01*
X124165602Y-70345827D01*
X124105264Y-70491498D01*
X124105261Y-70491510D01*
X124074500Y-70646153D01*
X14250500Y-70646153D01*
X14250500Y-65273006D01*
X150412500Y-65273006D01*
X150412500Y-65516993D01*
X150450665Y-65757959D01*
X150526060Y-65989998D01*
X150636821Y-66207377D01*
X150778433Y-66402288D01*
X150778433Y-66402289D01*
X151423069Y-65757653D01*
X151457612Y-65809351D01*
X151548149Y-65899888D01*
X151599845Y-65934429D01*
X150955209Y-66579065D01*
X151150122Y-66720678D01*
X151367501Y-66831439D01*
X151599540Y-66906834D01*
X151840507Y-66945000D01*
X152084493Y-66945000D01*
X152325459Y-66906834D01*
X152557498Y-66831439D01*
X152774877Y-66720678D01*
X152969788Y-66579065D01*
X152969789Y-66579065D01*
X152325154Y-65934429D01*
X152376851Y-65899888D01*
X152467388Y-65809351D01*
X152501930Y-65757654D01*
X153146565Y-66402289D01*
X153146565Y-66402288D01*
X153288178Y-66207377D01*
X153398939Y-65989998D01*
X153474334Y-65757959D01*
X153512500Y-65516993D01*
X153512500Y-65273006D01*
X153474334Y-65032040D01*
X153398939Y-64800001D01*
X153288178Y-64582622D01*
X153146565Y-64387710D01*
X153146565Y-64387709D01*
X152501929Y-65032344D01*
X152467388Y-64980649D01*
X152376851Y-64890112D01*
X152325153Y-64855569D01*
X152969789Y-64210933D01*
X152774877Y-64069321D01*
X152557498Y-63958560D01*
X152325459Y-63883165D01*
X152084493Y-63845000D01*
X151840507Y-63845000D01*
X151599540Y-63883165D01*
X151367501Y-63958560D01*
X151150119Y-64069323D01*
X150955210Y-64210931D01*
X150955209Y-64210933D01*
X151599846Y-64855569D01*
X151548149Y-64890112D01*
X151457612Y-64980649D01*
X151423069Y-65032345D01*
X150778433Y-64387709D01*
X150778431Y-64387710D01*
X150636823Y-64582619D01*
X150526060Y-64800001D01*
X150450665Y-65032040D01*
X150412500Y-65273006D01*
X14250500Y-65273006D01*
X14250500Y-61646153D01*
X130574500Y-61646153D01*
X130574500Y-61803846D01*
X130605261Y-61958489D01*
X130605264Y-61958501D01*
X130665602Y-62104172D01*
X130665609Y-62104185D01*
X130753210Y-62235288D01*
X130753213Y-62235292D01*
X130864707Y-62346786D01*
X130864711Y-62346789D01*
X130995814Y-62434390D01*
X130995827Y-62434397D01*
X131067784Y-62464202D01*
X131141503Y-62494737D01*
X131296153Y-62525499D01*
X131296156Y-62525500D01*
X131296158Y-62525500D01*
X131453844Y-62525500D01*
X131453845Y-62525499D01*
X131608497Y-62494737D01*
X131664182Y-62471670D01*
X131733651Y-62464202D01*
X131796130Y-62495477D01*
X131799316Y-62498551D01*
X133290425Y-63989660D01*
X133323910Y-64050983D01*
X133324361Y-64053149D01*
X133355261Y-64208491D01*
X133355264Y-64208501D01*
X133415602Y-64354172D01*
X133415609Y-64354185D01*
X133503210Y-64485288D01*
X133503213Y-64485292D01*
X133614707Y-64596786D01*
X133614711Y-64596789D01*
X133745814Y-64684390D01*
X133745827Y-64684397D01*
X133891498Y-64744735D01*
X133891503Y-64744737D01*
X134046153Y-64775499D01*
X134046156Y-64775500D01*
X134046158Y-64775500D01*
X134203844Y-64775500D01*
X134203845Y-64775499D01*
X134358497Y-64744737D01*
X134504179Y-64684394D01*
X134635289Y-64596789D01*
X134746789Y-64485289D01*
X134834394Y-64354179D01*
X134894737Y-64208497D01*
X134925500Y-64053842D01*
X134925500Y-63896158D01*
X134925500Y-63896155D01*
X134925499Y-63896153D01*
X134894737Y-63741503D01*
X134894735Y-63741498D01*
X134834397Y-63595827D01*
X134834390Y-63595814D01*
X134746789Y-63464711D01*
X134746786Y-63464707D01*
X134635292Y-63353213D01*
X134635288Y-63353210D01*
X134504185Y-63265609D01*
X134504172Y-63265602D01*
X134358501Y-63205264D01*
X134358491Y-63205261D01*
X134203151Y-63174362D01*
X134141241Y-63141977D01*
X134139662Y-63140426D01*
X132362590Y-61363355D01*
X132362588Y-61363352D01*
X132243717Y-61244481D01*
X132243716Y-61244480D01*
X132156904Y-61194360D01*
X132156904Y-61194359D01*
X132156900Y-61194358D01*
X132106785Y-61165423D01*
X131954054Y-61124498D01*
X131945997Y-61123438D01*
X131946188Y-61121981D01*
X131887725Y-61104814D01*
X131885873Y-61103601D01*
X131754185Y-61015609D01*
X131754172Y-61015602D01*
X131608501Y-60955264D01*
X131608489Y-60955261D01*
X131453845Y-60924500D01*
X131453842Y-60924500D01*
X131296158Y-60924500D01*
X131296155Y-60924500D01*
X131141510Y-60955261D01*
X131141498Y-60955264D01*
X130995827Y-61015602D01*
X130995814Y-61015609D01*
X130864711Y-61103210D01*
X130864707Y-61103213D01*
X130753213Y-61214707D01*
X130753210Y-61214711D01*
X130665609Y-61345814D01*
X130665602Y-61345827D01*
X130605264Y-61491498D01*
X130605261Y-61491510D01*
X130574500Y-61646153D01*
X14250500Y-61646153D01*
X14250500Y-54646153D01*
X121099500Y-54646153D01*
X121099500Y-54803846D01*
X121130261Y-54958489D01*
X121130264Y-54958501D01*
X121190602Y-55104172D01*
X121190609Y-55104185D01*
X121278210Y-55235288D01*
X121278213Y-55235292D01*
X121389707Y-55346786D01*
X121389711Y-55346789D01*
X121520814Y-55434390D01*
X121520827Y-55434397D01*
X121666498Y-55494735D01*
X121666503Y-55494737D01*
X121731147Y-55507595D01*
X121821849Y-55525638D01*
X121883760Y-55558023D01*
X121885338Y-55559573D01*
X123781284Y-57455520D01*
X123781286Y-57455521D01*
X123781290Y-57455524D01*
X123918209Y-57534573D01*
X123918216Y-57534577D01*
X124070943Y-57575501D01*
X124070945Y-57575501D01*
X124079002Y-57576562D01*
X124078810Y-57578018D01*
X124137275Y-57595186D01*
X124139127Y-57596399D01*
X124270814Y-57684390D01*
X124270827Y-57684397D01*
X124416498Y-57744735D01*
X124416503Y-57744737D01*
X124571153Y-57775499D01*
X124571156Y-57775500D01*
X124571158Y-57775500D01*
X124728844Y-57775500D01*
X124728845Y-57775499D01*
X124883497Y-57744737D01*
X125029179Y-57684394D01*
X125160289Y-57596789D01*
X125271789Y-57485289D01*
X125359394Y-57354179D01*
X125419737Y-57208497D01*
X125450500Y-57053842D01*
X125450500Y-56896158D01*
X125450500Y-56896155D01*
X125450499Y-56896153D01*
X125419738Y-56741510D01*
X125419737Y-56741503D01*
X125419735Y-56741498D01*
X125359397Y-56595827D01*
X125359390Y-56595814D01*
X125271789Y-56464711D01*
X125271786Y-56464707D01*
X125160292Y-56353213D01*
X125160288Y-56353210D01*
X125029185Y-56265609D01*
X125029172Y-56265602D01*
X124883501Y-56205264D01*
X124883489Y-56205261D01*
X124728845Y-56174500D01*
X124728842Y-56174500D01*
X124571158Y-56174500D01*
X124571155Y-56174500D01*
X124416505Y-56205261D01*
X124416497Y-56205264D01*
X124360814Y-56228328D01*
X124291345Y-56235795D01*
X124228866Y-56204519D01*
X124225683Y-56201447D01*
X122734573Y-54710337D01*
X122701088Y-54649014D01*
X122700637Y-54646847D01*
X122669738Y-54491510D01*
X122669737Y-54491503D01*
X122636574Y-54411439D01*
X122609397Y-54345827D01*
X122609390Y-54345814D01*
X122521789Y-54214711D01*
X122521786Y-54214707D01*
X122410292Y-54103213D01*
X122410288Y-54103210D01*
X122279185Y-54015609D01*
X122279172Y-54015602D01*
X122133501Y-53955264D01*
X122133489Y-53955261D01*
X121978845Y-53924500D01*
X121978842Y-53924500D01*
X121821158Y-53924500D01*
X121821155Y-53924500D01*
X121666510Y-53955261D01*
X121666498Y-53955264D01*
X121520827Y-54015602D01*
X121520814Y-54015609D01*
X121389711Y-54103210D01*
X121389707Y-54103213D01*
X121278213Y-54214707D01*
X121278210Y-54214711D01*
X121190609Y-54345814D01*
X121190602Y-54345827D01*
X121130264Y-54491498D01*
X121130261Y-54491510D01*
X121099500Y-54646153D01*
X14250500Y-54646153D01*
X14250500Y-52853006D01*
X149912500Y-52853006D01*
X149912500Y-53096993D01*
X149950665Y-53337959D01*
X150026060Y-53569998D01*
X150136821Y-53787377D01*
X150278433Y-53982288D01*
X150278433Y-53982289D01*
X150923069Y-53337653D01*
X150957612Y-53389351D01*
X151048149Y-53479888D01*
X151099845Y-53514429D01*
X150455209Y-54159065D01*
X150650122Y-54300678D01*
X150867501Y-54411439D01*
X151099540Y-54486834D01*
X151340507Y-54525000D01*
X151584493Y-54525000D01*
X151825459Y-54486834D01*
X152057498Y-54411439D01*
X152274877Y-54300678D01*
X152469788Y-54159065D01*
X152469789Y-54159065D01*
X151825154Y-53514429D01*
X151876851Y-53479888D01*
X151967388Y-53389351D01*
X152001930Y-53337654D01*
X152646565Y-53982289D01*
X152646565Y-53982288D01*
X152788178Y-53787377D01*
X152898939Y-53569998D01*
X152974334Y-53337959D01*
X153012500Y-53096993D01*
X153012500Y-52853006D01*
X152974334Y-52612040D01*
X152898939Y-52380001D01*
X152788178Y-52162622D01*
X152646565Y-51967710D01*
X152646565Y-51967709D01*
X152001929Y-52612344D01*
X151967388Y-52560649D01*
X151876851Y-52470112D01*
X151825153Y-52435569D01*
X152469789Y-51790933D01*
X152274877Y-51649321D01*
X152057498Y-51538560D01*
X151825459Y-51463165D01*
X151584493Y-51425000D01*
X151340507Y-51425000D01*
X151099540Y-51463165D01*
X150867501Y-51538560D01*
X150650119Y-51649323D01*
X150455210Y-51790931D01*
X150455209Y-51790933D01*
X151099846Y-52435569D01*
X151048149Y-52470112D01*
X150957612Y-52560649D01*
X150923069Y-52612345D01*
X150278433Y-51967709D01*
X150278431Y-51967710D01*
X150136823Y-52162619D01*
X150026060Y-52380001D01*
X149950665Y-52612040D01*
X149912500Y-52853006D01*
X14250500Y-52853006D01*
X14250500Y-45110258D01*
X24549500Y-45110258D01*
X24549500Y-45339741D01*
X24572740Y-45516255D01*
X24579452Y-45567238D01*
X24623710Y-45732413D01*
X24638842Y-45788887D01*
X24726650Y-46000876D01*
X24726656Y-46000888D01*
X24830886Y-46181421D01*
X24841392Y-46199617D01*
X24981080Y-46381660D01*
X24981089Y-46381670D01*
X25143330Y-46543911D01*
X25143338Y-46543918D01*
X25143339Y-46543919D01*
X25179901Y-46571974D01*
X25325382Y-46683607D01*
X25325385Y-46683608D01*
X25325388Y-46683611D01*
X25524112Y-46798344D01*
X25524117Y-46798346D01*
X25524123Y-46798349D01*
X25615480Y-46836190D01*
X25736113Y-46886158D01*
X25957762Y-46945548D01*
X26185266Y-46975500D01*
X26185273Y-46975500D01*
X26414727Y-46975500D01*
X26414734Y-46975500D01*
X26642238Y-46945548D01*
X26826585Y-46896153D01*
X122599500Y-46896153D01*
X122599500Y-47053846D01*
X122630261Y-47208489D01*
X122630264Y-47208501D01*
X122690602Y-47354172D01*
X122690609Y-47354185D01*
X122778210Y-47485288D01*
X122778213Y-47485292D01*
X122889707Y-47596786D01*
X122889711Y-47596789D01*
X123020814Y-47684390D01*
X123020827Y-47684397D01*
X123158683Y-47741498D01*
X123166503Y-47744737D01*
X123231147Y-47757595D01*
X123321849Y-47775638D01*
X123383760Y-47808023D01*
X123385339Y-47809574D01*
X123915139Y-48339374D01*
X123915149Y-48339385D01*
X123919479Y-48343715D01*
X123919480Y-48343716D01*
X124031284Y-48455520D01*
X124118095Y-48505639D01*
X124118097Y-48505641D01*
X124143004Y-48520021D01*
X124168215Y-48534577D01*
X124320943Y-48575500D01*
X130570234Y-48575500D01*
X130637273Y-48595185D01*
X130639125Y-48596398D01*
X130770814Y-48684390D01*
X130770827Y-48684397D01*
X130916498Y-48744735D01*
X130916503Y-48744737D01*
X131071153Y-48775499D01*
X131071156Y-48775500D01*
X131071158Y-48775500D01*
X131228844Y-48775500D01*
X131228845Y-48775499D01*
X131383497Y-48744737D01*
X131529179Y-48684394D01*
X131660289Y-48596789D01*
X131771789Y-48485289D01*
X131859394Y-48354179D01*
X131919737Y-48208497D01*
X131950500Y-48053842D01*
X131950500Y-47896158D01*
X131950500Y-47896155D01*
X131950499Y-47896153D01*
X131929848Y-47792331D01*
X131926004Y-47773006D01*
X149912500Y-47773006D01*
X149912500Y-48016993D01*
X149950665Y-48257959D01*
X150026060Y-48489998D01*
X150136821Y-48707377D01*
X150278433Y-48902288D01*
X150278433Y-48902289D01*
X150923069Y-48257653D01*
X150957612Y-48309351D01*
X151048149Y-48399888D01*
X151099845Y-48434429D01*
X150455209Y-49079065D01*
X150650122Y-49220678D01*
X150867501Y-49331439D01*
X151099540Y-49406834D01*
X151340507Y-49445000D01*
X151584493Y-49445000D01*
X151825459Y-49406834D01*
X152057498Y-49331439D01*
X152274877Y-49220678D01*
X152469788Y-49079065D01*
X152469789Y-49079065D01*
X151825154Y-48434429D01*
X151876851Y-48399888D01*
X151967388Y-48309351D01*
X152001930Y-48257654D01*
X152646565Y-48902289D01*
X152646565Y-48902288D01*
X152788178Y-48707377D01*
X152898939Y-48489998D01*
X152974334Y-48257959D01*
X153012500Y-48016993D01*
X153012500Y-47773006D01*
X152974334Y-47532040D01*
X152898939Y-47300001D01*
X152788178Y-47082622D01*
X152646565Y-46887710D01*
X152646565Y-46887709D01*
X152001929Y-47532344D01*
X151967388Y-47480649D01*
X151876851Y-47390112D01*
X151825153Y-47355569D01*
X152469789Y-46710933D01*
X152274877Y-46569321D01*
X152057498Y-46458560D01*
X151825459Y-46383165D01*
X151584493Y-46345000D01*
X151340507Y-46345000D01*
X151099540Y-46383165D01*
X150867501Y-46458560D01*
X150650119Y-46569323D01*
X150455210Y-46710931D01*
X150455209Y-46710933D01*
X151099846Y-47355569D01*
X151048149Y-47390112D01*
X150957612Y-47480649D01*
X150923069Y-47532345D01*
X150278433Y-46887709D01*
X150278431Y-46887710D01*
X150136823Y-47082619D01*
X150026060Y-47300001D01*
X149950665Y-47532040D01*
X149912500Y-47773006D01*
X131926004Y-47773006D01*
X131919738Y-47741508D01*
X131919737Y-47741507D01*
X131919737Y-47741503D01*
X131859794Y-47596786D01*
X131859397Y-47595827D01*
X131859390Y-47595814D01*
X131771789Y-47464711D01*
X131771786Y-47464707D01*
X131660292Y-47353213D01*
X131660288Y-47353210D01*
X131529185Y-47265609D01*
X131529172Y-47265602D01*
X131383501Y-47205264D01*
X131383489Y-47205261D01*
X131228845Y-47174500D01*
X131228842Y-47174500D01*
X131071158Y-47174500D01*
X131071155Y-47174500D01*
X130916510Y-47205261D01*
X130916498Y-47205264D01*
X130770827Y-47265602D01*
X130770814Y-47265609D01*
X130639125Y-47353602D01*
X130572447Y-47374480D01*
X130570234Y-47374500D01*
X124700097Y-47374500D01*
X124633058Y-47354815D01*
X124612416Y-47338181D01*
X124234574Y-46960339D01*
X124201089Y-46899016D01*
X124200638Y-46896849D01*
X124169738Y-46741510D01*
X124169737Y-46741503D01*
X124156711Y-46710055D01*
X124109397Y-46595827D01*
X124109390Y-46595814D01*
X124021789Y-46464711D01*
X124021786Y-46464707D01*
X123910292Y-46353213D01*
X123910288Y-46353210D01*
X123779185Y-46265609D01*
X123779172Y-46265602D01*
X123633501Y-46205264D01*
X123633489Y-46205261D01*
X123478845Y-46174500D01*
X123478842Y-46174500D01*
X123321158Y-46174500D01*
X123321155Y-46174500D01*
X123166510Y-46205261D01*
X123166498Y-46205264D01*
X123020827Y-46265602D01*
X123020814Y-46265609D01*
X122889711Y-46353210D01*
X122889707Y-46353213D01*
X122778213Y-46464707D01*
X122778210Y-46464711D01*
X122690609Y-46595814D01*
X122690602Y-46595827D01*
X122630264Y-46741498D01*
X122630261Y-46741510D01*
X122599500Y-46896153D01*
X26826585Y-46896153D01*
X26863887Y-46886158D01*
X27075888Y-46798344D01*
X27274612Y-46683611D01*
X27456661Y-46543919D01*
X27456665Y-46543914D01*
X27456670Y-46543911D01*
X27618911Y-46381670D01*
X27618920Y-46381660D01*
X27758607Y-46199617D01*
X27758606Y-46199617D01*
X27758611Y-46199612D01*
X27873344Y-46000888D01*
X27943835Y-45830708D01*
X128079913Y-45830708D01*
X128079913Y-45988401D01*
X128110674Y-46143044D01*
X128110677Y-46143056D01*
X128171015Y-46288727D01*
X128171022Y-46288740D01*
X128258623Y-46419843D01*
X128258626Y-46419847D01*
X128370120Y-46531341D01*
X128370124Y-46531344D01*
X128501227Y-46618945D01*
X128501240Y-46618952D01*
X128560824Y-46643632D01*
X128646916Y-46679292D01*
X128801566Y-46710054D01*
X128801569Y-46710055D01*
X128801571Y-46710055D01*
X128959257Y-46710055D01*
X128959258Y-46710054D01*
X129113910Y-46679292D01*
X129144705Y-46666536D01*
X129200003Y-46643632D01*
X129259585Y-46618952D01*
X129259585Y-46618951D01*
X129259592Y-46618949D01*
X129390702Y-46531344D01*
X129502202Y-46419844D01*
X129589807Y-46288734D01*
X129650150Y-46143052D01*
X129680913Y-45988397D01*
X129680913Y-45830713D01*
X129680913Y-45830710D01*
X129680912Y-45830708D01*
X129663167Y-45741493D01*
X129659566Y-45723389D01*
X131559864Y-45723389D01*
X131559864Y-45881082D01*
X131590625Y-46035725D01*
X131590628Y-46035737D01*
X131650966Y-46181408D01*
X131650973Y-46181421D01*
X131738574Y-46312524D01*
X131738577Y-46312528D01*
X131850071Y-46424022D01*
X131850075Y-46424025D01*
X131981178Y-46511626D01*
X131981191Y-46511633D01*
X132120464Y-46569321D01*
X132126867Y-46571973D01*
X132281517Y-46602735D01*
X132281520Y-46602736D01*
X132281522Y-46602736D01*
X132439208Y-46602736D01*
X132439209Y-46602735D01*
X132593861Y-46571973D01*
X132739543Y-46511630D01*
X132870653Y-46424025D01*
X132982153Y-46312525D01*
X133069758Y-46181415D01*
X133130101Y-46035733D01*
X133160864Y-45881078D01*
X133160864Y-45723394D01*
X133160864Y-45723391D01*
X133160863Y-45723389D01*
X133160006Y-45719082D01*
X133130101Y-45568739D01*
X133108362Y-45516255D01*
X133069761Y-45423063D01*
X133069754Y-45423050D01*
X132982153Y-45291947D01*
X132982150Y-45291943D01*
X132870656Y-45180449D01*
X132870652Y-45180446D01*
X132739549Y-45092845D01*
X132739536Y-45092838D01*
X132593865Y-45032500D01*
X132593855Y-45032497D01*
X132501753Y-45014177D01*
X132439843Y-44981792D01*
X132405268Y-44921076D01*
X132409008Y-44851307D01*
X132449875Y-44794635D01*
X132501754Y-44770943D01*
X132562819Y-44758795D01*
X132633497Y-44744737D01*
X132779179Y-44684394D01*
X132910289Y-44596789D01*
X133021789Y-44485289D01*
X133109394Y-44354179D01*
X133169737Y-44208497D01*
X133200500Y-44053842D01*
X133200500Y-43896158D01*
X133200500Y-43896155D01*
X133200499Y-43896153D01*
X133194476Y-43865874D01*
X133169737Y-43741503D01*
X133169735Y-43741498D01*
X133109397Y-43595827D01*
X133109390Y-43595814D01*
X133021789Y-43464711D01*
X133021786Y-43464707D01*
X132910292Y-43353213D01*
X132910288Y-43353210D01*
X132779185Y-43265609D01*
X132779172Y-43265602D01*
X132633501Y-43205264D01*
X132633489Y-43205261D01*
X132478845Y-43174500D01*
X132478842Y-43174500D01*
X132321158Y-43174500D01*
X132321155Y-43174500D01*
X132166510Y-43205261D01*
X132166498Y-43205264D01*
X132020827Y-43265602D01*
X132020814Y-43265609D01*
X131889711Y-43353210D01*
X131889707Y-43353213D01*
X131778213Y-43464707D01*
X131778210Y-43464711D01*
X131690609Y-43595814D01*
X131690602Y-43595827D01*
X131630264Y-43741498D01*
X131630261Y-43741510D01*
X131599500Y-43896153D01*
X131599500Y-44053846D01*
X131630261Y-44208489D01*
X131630264Y-44208501D01*
X131690602Y-44354172D01*
X131690609Y-44354185D01*
X131778210Y-44485288D01*
X131778213Y-44485292D01*
X131889707Y-44596786D01*
X131889711Y-44596789D01*
X132020814Y-44684390D01*
X132020827Y-44684397D01*
X132166498Y-44744735D01*
X132166503Y-44744737D01*
X132258609Y-44763058D01*
X132320520Y-44795442D01*
X132355094Y-44856158D01*
X132351355Y-44925927D01*
X132310489Y-44982600D01*
X132258610Y-45006292D01*
X132126872Y-45032497D01*
X132126862Y-45032500D01*
X131981191Y-45092838D01*
X131981178Y-45092845D01*
X131850075Y-45180446D01*
X131850071Y-45180449D01*
X131738577Y-45291943D01*
X131738574Y-45291947D01*
X131650973Y-45423050D01*
X131650966Y-45423063D01*
X131590628Y-45568734D01*
X131590625Y-45568746D01*
X131559864Y-45723389D01*
X129659566Y-45723389D01*
X129650151Y-45676063D01*
X129650150Y-45676062D01*
X129650150Y-45676058D01*
X129635343Y-45640311D01*
X129589810Y-45530382D01*
X129589803Y-45530369D01*
X129502202Y-45399266D01*
X129502199Y-45399262D01*
X129390705Y-45287768D01*
X129390701Y-45287765D01*
X129259598Y-45200164D01*
X129259585Y-45200157D01*
X129113914Y-45139819D01*
X129113902Y-45139816D01*
X128959258Y-45109055D01*
X128959255Y-45109055D01*
X128801571Y-45109055D01*
X128801568Y-45109055D01*
X128646923Y-45139816D01*
X128646911Y-45139819D01*
X128501240Y-45200157D01*
X128501227Y-45200164D01*
X128370124Y-45287765D01*
X128370120Y-45287768D01*
X128258626Y-45399262D01*
X128258623Y-45399266D01*
X128171022Y-45530369D01*
X128171015Y-45530382D01*
X128110677Y-45676053D01*
X128110674Y-45676065D01*
X128079913Y-45830708D01*
X27943835Y-45830708D01*
X27961158Y-45788887D01*
X28020548Y-45567238D01*
X28050500Y-45339734D01*
X28050500Y-45110266D01*
X28020548Y-44882762D01*
X27961158Y-44661113D01*
X27892242Y-44494735D01*
X27873349Y-44449123D01*
X27873342Y-44449108D01*
X27819836Y-44356433D01*
X27785867Y-44297597D01*
X27785858Y-44297582D01*
X114049500Y-44297582D01*
X114049500Y-45097600D01*
X114049501Y-45097618D01*
X114060000Y-45200395D01*
X114060001Y-45200398D01*
X114115185Y-45366930D01*
X114115187Y-45366935D01*
X114135129Y-45399266D01*
X114207288Y-45516255D01*
X114331344Y-45640311D01*
X114480666Y-45732413D01*
X114647203Y-45787598D01*
X114749991Y-45798099D01*
X115550008Y-45798098D01*
X115550016Y-45798097D01*
X115550019Y-45798097D01*
X115640178Y-45788887D01*
X115652797Y-45787598D01*
X115819334Y-45732413D01*
X115823123Y-45730075D01*
X115840946Y-45719083D01*
X115840947Y-45719082D01*
X115910692Y-45676063D01*
X115968656Y-45640311D01*
X116092712Y-45516255D01*
X116184814Y-45366933D01*
X116239999Y-45200396D01*
X116250500Y-45097608D01*
X116250499Y-44297591D01*
X116239999Y-44194802D01*
X116184814Y-44028265D01*
X116092712Y-43878943D01*
X115968656Y-43754887D01*
X115968655Y-43754886D01*
X115953606Y-43745604D01*
X115953605Y-43745603D01*
X115819340Y-43662788D01*
X115819335Y-43662786D01*
X115819334Y-43662785D01*
X115769142Y-43646153D01*
X125099500Y-43646153D01*
X125099500Y-43803846D01*
X125130261Y-43958489D01*
X125130264Y-43958501D01*
X125190602Y-44104172D01*
X125190609Y-44104185D01*
X125278210Y-44235288D01*
X125278213Y-44235292D01*
X125389707Y-44346786D01*
X125389711Y-44346789D01*
X125520814Y-44434390D01*
X125520827Y-44434397D01*
X125666498Y-44494735D01*
X125666503Y-44494737D01*
X125811631Y-44523605D01*
X125821153Y-44525499D01*
X125821156Y-44525500D01*
X125821158Y-44525500D01*
X125978844Y-44525500D01*
X125978845Y-44525499D01*
X126133497Y-44494737D01*
X126279179Y-44434394D01*
X126410289Y-44346789D01*
X126521789Y-44235289D01*
X126609394Y-44104179D01*
X126669737Y-43958497D01*
X126682138Y-43896153D01*
X128349500Y-43896153D01*
X128349500Y-44053846D01*
X128380261Y-44208489D01*
X128380264Y-44208501D01*
X128440602Y-44354172D01*
X128440609Y-44354185D01*
X128528210Y-44485288D01*
X128528213Y-44485292D01*
X128639707Y-44596786D01*
X128639711Y-44596789D01*
X128770814Y-44684390D01*
X128770827Y-44684397D01*
X128916498Y-44744735D01*
X128916503Y-44744737D01*
X129048249Y-44770943D01*
X129071153Y-44775499D01*
X129071156Y-44775500D01*
X129071158Y-44775500D01*
X129228844Y-44775500D01*
X129228845Y-44775499D01*
X129383497Y-44744737D01*
X129529179Y-44684394D01*
X129660289Y-44596789D01*
X129771789Y-44485289D01*
X129859394Y-44354179D01*
X129919737Y-44208497D01*
X129950500Y-44053842D01*
X129950500Y-43896158D01*
X129950500Y-43896155D01*
X129950499Y-43896153D01*
X129944476Y-43865874D01*
X129919737Y-43741503D01*
X129919735Y-43741498D01*
X129859397Y-43595827D01*
X129859390Y-43595814D01*
X129771789Y-43464711D01*
X129771786Y-43464707D01*
X129660292Y-43353213D01*
X129660288Y-43353210D01*
X129529185Y-43265609D01*
X129529172Y-43265602D01*
X129383501Y-43205264D01*
X129383489Y-43205261D01*
X129228845Y-43174500D01*
X129228842Y-43174500D01*
X129071158Y-43174500D01*
X129071155Y-43174500D01*
X128916510Y-43205261D01*
X128916498Y-43205264D01*
X128770827Y-43265602D01*
X128770814Y-43265609D01*
X128639711Y-43353210D01*
X128639707Y-43353213D01*
X128528213Y-43464707D01*
X128528210Y-43464711D01*
X128440609Y-43595814D01*
X128440602Y-43595827D01*
X128380264Y-43741498D01*
X128380261Y-43741510D01*
X128349500Y-43896153D01*
X126682138Y-43896153D01*
X126688161Y-43865874D01*
X126700500Y-43803844D01*
X126700500Y-43646155D01*
X126700499Y-43646153D01*
X126693958Y-43613270D01*
X126669737Y-43491503D01*
X126662694Y-43474500D01*
X126609397Y-43345827D01*
X126609390Y-43345814D01*
X126521789Y-43214711D01*
X126521786Y-43214707D01*
X126410292Y-43103213D01*
X126410288Y-43103210D01*
X126279185Y-43015609D01*
X126279172Y-43015602D01*
X126133501Y-42955264D01*
X126133489Y-42955261D01*
X125978845Y-42924500D01*
X125978842Y-42924500D01*
X125821158Y-42924500D01*
X125821155Y-42924500D01*
X125666510Y-42955261D01*
X125666498Y-42955264D01*
X125520827Y-43015602D01*
X125520814Y-43015609D01*
X125389711Y-43103210D01*
X125389707Y-43103213D01*
X125278213Y-43214707D01*
X125278210Y-43214711D01*
X125190609Y-43345814D01*
X125190602Y-43345827D01*
X125130264Y-43491498D01*
X125130261Y-43491510D01*
X125099500Y-43646153D01*
X115769142Y-43646153D01*
X115669908Y-43613270D01*
X115612463Y-43573497D01*
X115585640Y-43508981D01*
X115597955Y-43440205D01*
X115640022Y-43392461D01*
X115656845Y-43381220D01*
X115255531Y-42979905D01*
X115265796Y-42977155D01*
X115334205Y-42937659D01*
X115390060Y-42881804D01*
X115429556Y-42813395D01*
X115432306Y-42803129D01*
X115833622Y-43204444D01*
X115903261Y-43100222D01*
X115967334Y-42945535D01*
X115967336Y-42945527D01*
X115999999Y-42781321D01*
X116000000Y-42781319D01*
X116000000Y-42696995D01*
X149662000Y-42696995D01*
X149662000Y-42933004D01*
X149662001Y-42933020D01*
X149692806Y-43167010D01*
X149753894Y-43394993D01*
X149844214Y-43613045D01*
X149844219Y-43613056D01*
X149915177Y-43735957D01*
X149962227Y-43817450D01*
X149962229Y-43817453D01*
X149962230Y-43817454D01*
X150105906Y-44004697D01*
X150105912Y-44004704D01*
X150272795Y-44171587D01*
X150272802Y-44171593D01*
X150320902Y-44208501D01*
X150460050Y-44315273D01*
X150591418Y-44391118D01*
X150664443Y-44433280D01*
X150664448Y-44433282D01*
X150664451Y-44433284D01*
X150882507Y-44523606D01*
X151110486Y-44584693D01*
X151344489Y-44615500D01*
X151344496Y-44615500D01*
X151580504Y-44615500D01*
X151580511Y-44615500D01*
X151814514Y-44584693D01*
X152042493Y-44523606D01*
X152260549Y-44433284D01*
X152464950Y-44315273D01*
X152652199Y-44171592D01*
X152819092Y-44004699D01*
X152962773Y-43817450D01*
X153080784Y-43613049D01*
X153171106Y-43394993D01*
X153232193Y-43167014D01*
X153263000Y-42933011D01*
X153263000Y-42696989D01*
X153232193Y-42462986D01*
X153171106Y-42235007D01*
X153080784Y-42016951D01*
X153080782Y-42016948D01*
X153080780Y-42016943D01*
X153038618Y-41943918D01*
X152962773Y-41812550D01*
X152819092Y-41625301D01*
X152819087Y-41625295D01*
X152652204Y-41458412D01*
X152652197Y-41458406D01*
X152464954Y-41314730D01*
X152464953Y-41314729D01*
X152464950Y-41314727D01*
X152383457Y-41267677D01*
X152260556Y-41196719D01*
X152260545Y-41196714D01*
X152042493Y-41106394D01*
X151814510Y-41045306D01*
X151580520Y-41014501D01*
X151580517Y-41014500D01*
X151580511Y-41014500D01*
X151344489Y-41014500D01*
X151344483Y-41014500D01*
X151344479Y-41014501D01*
X151110489Y-41045306D01*
X150882506Y-41106394D01*
X150664454Y-41196714D01*
X150664443Y-41196719D01*
X150460045Y-41314730D01*
X150272802Y-41458406D01*
X150272795Y-41458412D01*
X150105912Y-41625295D01*
X150105906Y-41625302D01*
X149962230Y-41812545D01*
X149844219Y-42016943D01*
X149844214Y-42016954D01*
X149753894Y-42235006D01*
X149692806Y-42462989D01*
X149662001Y-42696979D01*
X149662000Y-42696995D01*
X116000000Y-42696995D01*
X116000000Y-42613878D01*
X115999999Y-42613876D01*
X115967336Y-42449670D01*
X115967334Y-42449662D01*
X115903261Y-42294975D01*
X115833622Y-42190752D01*
X115432306Y-42592068D01*
X115429556Y-42581803D01*
X115390060Y-42513394D01*
X115334205Y-42457539D01*
X115265796Y-42418043D01*
X115255530Y-42415292D01*
X115656844Y-42013976D01*
X115656844Y-42013975D01*
X115552631Y-41944342D01*
X115552623Y-41944337D01*
X115397936Y-41880264D01*
X115397928Y-41880262D01*
X115233721Y-41847599D01*
X115066279Y-41847599D01*
X114902071Y-41880262D01*
X114902063Y-41880264D01*
X114747375Y-41944338D01*
X114643154Y-42013975D01*
X114643154Y-42013976D01*
X115044470Y-42415292D01*
X115034204Y-42418043D01*
X114965795Y-42457539D01*
X114909940Y-42513394D01*
X114870444Y-42581803D01*
X114867693Y-42592069D01*
X114466377Y-42190753D01*
X114466376Y-42190753D01*
X114396739Y-42294974D01*
X114332665Y-42449662D01*
X114332663Y-42449670D01*
X114300000Y-42613876D01*
X114300000Y-42781321D01*
X114332663Y-42945527D01*
X114332665Y-42945535D01*
X114396738Y-43100222D01*
X114396743Y-43100230D01*
X114466377Y-43204443D01*
X114867693Y-42803128D01*
X114870444Y-42813395D01*
X114909940Y-42881804D01*
X114965795Y-42937659D01*
X115034204Y-42977155D01*
X115044469Y-42979905D01*
X114643153Y-43381221D01*
X114659977Y-43392462D01*
X114704782Y-43446074D01*
X114713489Y-43515399D01*
X114683334Y-43578427D01*
X114630091Y-43613270D01*
X114480666Y-43662785D01*
X114480663Y-43662786D01*
X114331342Y-43754888D01*
X114207289Y-43878941D01*
X114115187Y-44028262D01*
X114115185Y-44028267D01*
X114106710Y-44053844D01*
X114060001Y-44194802D01*
X114060001Y-44194803D01*
X114060000Y-44194803D01*
X114049500Y-44297582D01*
X27785858Y-44297582D01*
X27758611Y-44250388D01*
X27758608Y-44250385D01*
X27758607Y-44250382D01*
X27618918Y-44068338D01*
X27618911Y-44068330D01*
X27456670Y-43906089D01*
X27456661Y-43906081D01*
X27274617Y-43766392D01*
X27254691Y-43754888D01*
X27095164Y-43662785D01*
X27075890Y-43651657D01*
X27075876Y-43651650D01*
X26863887Y-43563842D01*
X26642238Y-43504452D01*
X26604215Y-43499446D01*
X26414741Y-43474500D01*
X26414734Y-43474500D01*
X26185266Y-43474500D01*
X26185258Y-43474500D01*
X25968715Y-43503009D01*
X25957762Y-43504452D01*
X25916907Y-43515399D01*
X25736112Y-43563842D01*
X25524123Y-43651650D01*
X25524109Y-43651657D01*
X25325382Y-43766392D01*
X25143338Y-43906081D01*
X24981081Y-44068338D01*
X24841392Y-44250382D01*
X24726657Y-44449109D01*
X24726650Y-44449123D01*
X24638842Y-44661112D01*
X24638842Y-44661113D01*
X24586581Y-44856158D01*
X24579453Y-44882759D01*
X24579451Y-44882770D01*
X24549500Y-45110258D01*
X14250500Y-45110258D01*
X14250500Y-37177135D01*
X24549500Y-37177135D01*
X24549500Y-39772870D01*
X24549501Y-39772876D01*
X24555908Y-39832483D01*
X24606202Y-39967328D01*
X24606206Y-39967335D01*
X24692452Y-40082544D01*
X24692455Y-40082547D01*
X24807664Y-40168793D01*
X24807671Y-40168797D01*
X24942517Y-40219091D01*
X24942516Y-40219091D01*
X24949444Y-40219835D01*
X25002127Y-40225500D01*
X27597872Y-40225499D01*
X27657483Y-40219091D01*
X27792331Y-40168796D01*
X27907546Y-40082546D01*
X27993796Y-39967331D01*
X28044091Y-39832483D01*
X28050500Y-39772873D01*
X28050499Y-37177128D01*
X28044091Y-37117517D01*
X27993796Y-36982669D01*
X27993795Y-36982668D01*
X27993793Y-36982664D01*
X27907547Y-36867455D01*
X27907544Y-36867452D01*
X27792335Y-36781206D01*
X27792328Y-36781202D01*
X27703350Y-36748016D01*
X27657482Y-36730908D01*
X27657483Y-36730908D01*
X27597883Y-36724501D01*
X27597881Y-36724500D01*
X27597873Y-36724500D01*
X27597864Y-36724500D01*
X25002129Y-36724500D01*
X25002123Y-36724501D01*
X24942516Y-36730908D01*
X24807671Y-36781202D01*
X24807664Y-36781206D01*
X24692455Y-36867452D01*
X24692452Y-36867455D01*
X24606206Y-36982664D01*
X24606202Y-36982671D01*
X24555908Y-37117517D01*
X24549501Y-37177116D01*
X24549501Y-37177123D01*
X24549500Y-37177135D01*
X14250500Y-37177135D01*
X14250500Y-36634983D01*
X149662000Y-36634983D01*
X149662000Y-38835001D01*
X149662001Y-38835018D01*
X149672500Y-38937796D01*
X149672501Y-38937799D01*
X149727685Y-39104331D01*
X149727686Y-39104334D01*
X149819788Y-39253656D01*
X149943844Y-39377712D01*
X150093166Y-39469814D01*
X150259703Y-39524999D01*
X150362491Y-39535500D01*
X152562508Y-39535499D01*
X152665297Y-39524999D01*
X152831834Y-39469814D01*
X152981156Y-39377712D01*
X153105212Y-39253656D01*
X153197314Y-39104334D01*
X153252499Y-38937797D01*
X153263000Y-38835009D01*
X153262999Y-36634992D01*
X153252499Y-36532203D01*
X153197314Y-36365666D01*
X153105212Y-36216344D01*
X152981156Y-36092288D01*
X152831834Y-36000186D01*
X152665297Y-35945001D01*
X152665295Y-35945000D01*
X152562510Y-35934500D01*
X150362498Y-35934500D01*
X150362481Y-35934501D01*
X150259703Y-35945000D01*
X150259700Y-35945001D01*
X150093168Y-36000185D01*
X150093163Y-36000187D01*
X149943842Y-36092289D01*
X149819789Y-36216342D01*
X149727687Y-36365663D01*
X149727686Y-36365666D01*
X149672501Y-36532203D01*
X149672501Y-36532204D01*
X149672500Y-36532204D01*
X149662000Y-36634983D01*
X14250500Y-36634983D01*
X14250500Y-34421153D01*
X127099500Y-34421153D01*
X127099500Y-34578846D01*
X127130261Y-34733489D01*
X127130264Y-34733501D01*
X127190602Y-34879172D01*
X127190609Y-34879185D01*
X127278210Y-35010288D01*
X127278213Y-35010292D01*
X127389707Y-35121786D01*
X127389711Y-35121789D01*
X127520814Y-35209390D01*
X127520827Y-35209397D01*
X127666498Y-35269735D01*
X127666503Y-35269737D01*
X127821153Y-35300499D01*
X127821156Y-35300500D01*
X127821158Y-35300500D01*
X127978844Y-35300500D01*
X127978845Y-35300499D01*
X128133497Y-35269737D01*
X128279179Y-35209394D01*
X128410289Y-35121789D01*
X128521789Y-35010289D01*
X128609394Y-34879179D01*
X128669737Y-34733497D01*
X128700500Y-34578842D01*
X128700500Y-34421158D01*
X128700500Y-34421155D01*
X128700499Y-34421153D01*
X128669738Y-34266510D01*
X128669737Y-34266503D01*
X128669735Y-34266498D01*
X128609397Y-34120827D01*
X128609390Y-34120814D01*
X128521789Y-33989711D01*
X128521786Y-33989707D01*
X128410292Y-33878213D01*
X128410288Y-33878210D01*
X128279185Y-33790609D01*
X128279172Y-33790602D01*
X128133501Y-33730264D01*
X128133489Y-33730261D01*
X127978845Y-33699500D01*
X127978842Y-33699500D01*
X127821158Y-33699500D01*
X127821155Y-33699500D01*
X127666510Y-33730261D01*
X127666498Y-33730264D01*
X127520827Y-33790602D01*
X127520814Y-33790609D01*
X127389711Y-33878210D01*
X127389707Y-33878213D01*
X127278213Y-33989707D01*
X127278210Y-33989711D01*
X127190609Y-34120814D01*
X127190602Y-34120827D01*
X127130264Y-34266498D01*
X127130261Y-34266510D01*
X127099500Y-34421153D01*
X14250500Y-34421153D01*
X14250500Y-26606995D01*
X21919500Y-26606995D01*
X21919500Y-26843004D01*
X21919501Y-26843020D01*
X21950306Y-27077010D01*
X22011394Y-27304993D01*
X22101714Y-27523045D01*
X22101719Y-27523056D01*
X22172677Y-27645957D01*
X22219727Y-27727450D01*
X22219729Y-27727453D01*
X22219730Y-27727454D01*
X22363406Y-27914697D01*
X22363412Y-27914704D01*
X22530295Y-28081587D01*
X22530302Y-28081593D01*
X22546909Y-28094336D01*
X22717550Y-28225273D01*
X22848918Y-28301118D01*
X22921943Y-28343280D01*
X22921948Y-28343282D01*
X22921951Y-28343284D01*
X23140007Y-28433606D01*
X23367986Y-28494693D01*
X23601989Y-28525500D01*
X23601996Y-28525500D01*
X23838004Y-28525500D01*
X23838011Y-28525500D01*
X24072014Y-28494693D01*
X24299993Y-28433606D01*
X24518049Y-28343284D01*
X24722450Y-28225273D01*
X24909699Y-28081592D01*
X25076592Y-27914699D01*
X25220273Y-27727450D01*
X25338284Y-27523049D01*
X25428606Y-27304993D01*
X25489693Y-27077014D01*
X25520500Y-26843011D01*
X25520500Y-26606995D01*
X26999500Y-26606995D01*
X26999500Y-26843004D01*
X26999501Y-26843020D01*
X27030306Y-27077010D01*
X27091394Y-27304993D01*
X27181714Y-27523045D01*
X27181719Y-27523056D01*
X27252677Y-27645957D01*
X27299727Y-27727450D01*
X27299729Y-27727453D01*
X27299730Y-27727454D01*
X27443406Y-27914697D01*
X27443412Y-27914704D01*
X27610295Y-28081587D01*
X27610302Y-28081593D01*
X27626909Y-28094336D01*
X27797550Y-28225273D01*
X27928918Y-28301118D01*
X28001943Y-28343280D01*
X28001948Y-28343282D01*
X28001951Y-28343284D01*
X28220007Y-28433606D01*
X28447986Y-28494693D01*
X28681989Y-28525500D01*
X28681996Y-28525500D01*
X28918004Y-28525500D01*
X28918011Y-28525500D01*
X29152014Y-28494693D01*
X29379993Y-28433606D01*
X29598049Y-28343284D01*
X29802450Y-28225273D01*
X29989699Y-28081592D01*
X30156592Y-27914699D01*
X30300273Y-27727450D01*
X30418284Y-27523049D01*
X30508606Y-27304993D01*
X30569693Y-27077014D01*
X30600500Y-26843011D01*
X30600500Y-26606995D01*
X32079500Y-26606995D01*
X32079500Y-26843004D01*
X32079501Y-26843020D01*
X32110306Y-27077010D01*
X32171394Y-27304993D01*
X32261714Y-27523045D01*
X32261719Y-27523056D01*
X32332677Y-27645957D01*
X32379727Y-27727450D01*
X32379729Y-27727453D01*
X32379730Y-27727454D01*
X32523406Y-27914697D01*
X32523412Y-27914704D01*
X32690295Y-28081587D01*
X32690302Y-28081593D01*
X32706909Y-28094336D01*
X32877550Y-28225273D01*
X33008918Y-28301118D01*
X33081943Y-28343280D01*
X33081948Y-28343282D01*
X33081951Y-28343284D01*
X33300007Y-28433606D01*
X33527986Y-28494693D01*
X33761989Y-28525500D01*
X33761996Y-28525500D01*
X33998004Y-28525500D01*
X33998011Y-28525500D01*
X34232014Y-28494693D01*
X34459993Y-28433606D01*
X34678049Y-28343284D01*
X34882450Y-28225273D01*
X35069699Y-28081592D01*
X35236592Y-27914699D01*
X35380273Y-27727450D01*
X35498284Y-27523049D01*
X35588606Y-27304993D01*
X35649693Y-27077014D01*
X35680500Y-26843011D01*
X35680500Y-26606989D01*
X35649693Y-26372986D01*
X35588606Y-26145007D01*
X35498284Y-25926951D01*
X35498282Y-25926948D01*
X35498280Y-25926943D01*
X35442510Y-25830348D01*
X35380273Y-25722550D01*
X35305414Y-25624992D01*
X35305407Y-25624983D01*
X37159500Y-25624983D01*
X37159500Y-27825001D01*
X37159501Y-27825018D01*
X37170000Y-27927796D01*
X37170001Y-27927799D01*
X37220962Y-28081587D01*
X37225186Y-28094334D01*
X37317288Y-28243656D01*
X37441344Y-28367712D01*
X37590666Y-28459814D01*
X37757203Y-28514999D01*
X37859991Y-28525500D01*
X40060008Y-28525499D01*
X40162797Y-28514999D01*
X40329334Y-28459814D01*
X40478656Y-28367712D01*
X40602712Y-28243656D01*
X40694814Y-28094334D01*
X40749999Y-27927797D01*
X40760500Y-27825009D01*
X40760499Y-25624992D01*
X40749999Y-25522203D01*
X40694814Y-25355666D01*
X40602712Y-25206344D01*
X40478656Y-25082288D01*
X40329334Y-24990186D01*
X40162797Y-24935001D01*
X40162795Y-24935000D01*
X40060010Y-24924500D01*
X37859998Y-24924500D01*
X37859981Y-24924501D01*
X37757203Y-24935000D01*
X37757200Y-24935001D01*
X37590668Y-24990185D01*
X37590663Y-24990187D01*
X37441342Y-25082289D01*
X37317289Y-25206342D01*
X37225187Y-25355663D01*
X37225185Y-25355668D01*
X37220962Y-25368412D01*
X37170001Y-25522203D01*
X37170001Y-25522204D01*
X37170000Y-25522204D01*
X37159500Y-25624983D01*
X35305407Y-25624983D01*
X35236593Y-25535302D01*
X35236587Y-25535295D01*
X35069704Y-25368412D01*
X35069697Y-25368406D01*
X34882454Y-25224730D01*
X34882453Y-25224729D01*
X34882450Y-25224727D01*
X34800957Y-25177677D01*
X34678056Y-25106719D01*
X34678045Y-25106714D01*
X34459993Y-25016394D01*
X34232010Y-24955306D01*
X33998020Y-24924501D01*
X33998017Y-24924500D01*
X33998011Y-24924500D01*
X33761989Y-24924500D01*
X33761983Y-24924500D01*
X33761979Y-24924501D01*
X33527989Y-24955306D01*
X33300006Y-25016394D01*
X33081954Y-25106714D01*
X33081943Y-25106719D01*
X32877545Y-25224730D01*
X32690302Y-25368406D01*
X32690295Y-25368412D01*
X32523412Y-25535295D01*
X32523406Y-25535302D01*
X32379730Y-25722545D01*
X32261719Y-25926943D01*
X32261714Y-25926954D01*
X32171394Y-26145006D01*
X32110306Y-26372989D01*
X32079501Y-26606979D01*
X32079500Y-26606995D01*
X30600500Y-26606995D01*
X30600500Y-26606989D01*
X30569693Y-26372986D01*
X30508606Y-26145007D01*
X30418284Y-25926951D01*
X30418282Y-25926948D01*
X30418280Y-25926943D01*
X30376118Y-25853918D01*
X30300273Y-25722550D01*
X30156592Y-25535301D01*
X30156587Y-25535295D01*
X29989704Y-25368412D01*
X29989697Y-25368406D01*
X29802454Y-25224730D01*
X29802453Y-25224729D01*
X29802450Y-25224727D01*
X29720957Y-25177677D01*
X29598056Y-25106719D01*
X29598045Y-25106714D01*
X29379993Y-25016394D01*
X29152010Y-24955306D01*
X28918020Y-24924501D01*
X28918017Y-24924500D01*
X28918011Y-24924500D01*
X28681989Y-24924500D01*
X28681983Y-24924500D01*
X28681979Y-24924501D01*
X28447989Y-24955306D01*
X28220006Y-25016394D01*
X28001954Y-25106714D01*
X28001943Y-25106719D01*
X27797545Y-25224730D01*
X27610302Y-25368406D01*
X27610295Y-25368412D01*
X27443412Y-25535295D01*
X27443406Y-25535302D01*
X27299730Y-25722545D01*
X27181719Y-25926943D01*
X27181714Y-25926954D01*
X27091394Y-26145006D01*
X27030306Y-26372989D01*
X26999501Y-26606979D01*
X26999500Y-26606995D01*
X25520500Y-26606995D01*
X25520500Y-26606989D01*
X25489693Y-26372986D01*
X25428606Y-26145007D01*
X25338284Y-25926951D01*
X25338282Y-25926948D01*
X25338280Y-25926943D01*
X25296118Y-25853918D01*
X25220273Y-25722550D01*
X25076592Y-25535301D01*
X25076587Y-25535295D01*
X24909704Y-25368412D01*
X24909697Y-25368406D01*
X24722454Y-25224730D01*
X24722453Y-25224729D01*
X24722450Y-25224727D01*
X24640957Y-25177677D01*
X24518056Y-25106719D01*
X24518045Y-25106714D01*
X24299993Y-25016394D01*
X24072010Y-24955306D01*
X23838020Y-24924501D01*
X23838017Y-24924500D01*
X23838011Y-24924500D01*
X23601989Y-24924500D01*
X23601983Y-24924500D01*
X23601979Y-24924501D01*
X23367989Y-24955306D01*
X23140006Y-25016394D01*
X22921954Y-25106714D01*
X22921943Y-25106719D01*
X22717545Y-25224730D01*
X22530302Y-25368406D01*
X22530295Y-25368412D01*
X22363412Y-25535295D01*
X22363406Y-25535302D01*
X22219730Y-25722545D01*
X22101719Y-25926943D01*
X22101714Y-25926954D01*
X22011394Y-26145006D01*
X21950306Y-26372989D01*
X21919501Y-26606979D01*
X21919500Y-26606995D01*
X14250500Y-26606995D01*
X14250500Y-19893713D01*
X15649500Y-19893713D01*
X15649500Y-20106286D01*
X15682753Y-20316239D01*
X15748444Y-20518414D01*
X15844951Y-20707820D01*
X15969890Y-20879786D01*
X16120213Y-21030109D01*
X16292179Y-21155048D01*
X16292181Y-21155049D01*
X16292184Y-21155051D01*
X16481588Y-21251557D01*
X16683757Y-21317246D01*
X16893713Y-21350500D01*
X16893714Y-21350500D01*
X17106286Y-21350500D01*
X17106287Y-21350500D01*
X17316243Y-21317246D01*
X17518412Y-21251557D01*
X17707816Y-21155051D01*
X17729789Y-21139086D01*
X17879786Y-21030109D01*
X17879788Y-21030106D01*
X17879792Y-21030104D01*
X18030104Y-20879792D01*
X18030106Y-20879788D01*
X18030109Y-20879786D01*
X18155048Y-20707820D01*
X18155047Y-20707820D01*
X18155051Y-20707816D01*
X18251557Y-20518412D01*
X18317246Y-20316243D01*
X18350500Y-20106287D01*
X18350500Y-19893713D01*
X158649500Y-19893713D01*
X158649500Y-20106286D01*
X158682753Y-20316239D01*
X158748444Y-20518414D01*
X158844951Y-20707820D01*
X158969890Y-20879786D01*
X159120213Y-21030109D01*
X159292179Y-21155048D01*
X159292181Y-21155049D01*
X159292184Y-21155051D01*
X159481588Y-21251557D01*
X159683757Y-21317246D01*
X159893713Y-21350500D01*
X159893714Y-21350500D01*
X160106286Y-21350500D01*
X160106287Y-21350500D01*
X160316243Y-21317246D01*
X160518412Y-21251557D01*
X160707816Y-21155051D01*
X160729789Y-21139086D01*
X160879786Y-21030109D01*
X160879788Y-21030106D01*
X160879792Y-21030104D01*
X161030104Y-20879792D01*
X161030106Y-20879788D01*
X161030109Y-20879786D01*
X161155048Y-20707820D01*
X161155047Y-20707820D01*
X161155051Y-20707816D01*
X161251557Y-20518412D01*
X161317246Y-20316243D01*
X161350500Y-20106287D01*
X161350500Y-19893713D01*
X161317246Y-19683757D01*
X161251557Y-19481588D01*
X161155051Y-19292184D01*
X161155049Y-19292181D01*
X161155048Y-19292179D01*
X161030109Y-19120213D01*
X160879786Y-18969890D01*
X160707820Y-18844951D01*
X160518414Y-18748444D01*
X160518413Y-18748443D01*
X160518412Y-18748443D01*
X160316243Y-18682754D01*
X160316241Y-18682753D01*
X160316240Y-18682753D01*
X160154957Y-18657208D01*
X160106287Y-18649500D01*
X159893713Y-18649500D01*
X159845042Y-18657208D01*
X159683760Y-18682753D01*
X159481585Y-18748444D01*
X159292179Y-18844951D01*
X159120213Y-18969890D01*
X158969890Y-19120213D01*
X158844951Y-19292179D01*
X158748444Y-19481585D01*
X158682753Y-19683760D01*
X158649500Y-19893713D01*
X18350500Y-19893713D01*
X18317246Y-19683757D01*
X18251557Y-19481588D01*
X18155051Y-19292184D01*
X18155049Y-19292181D01*
X18155048Y-19292179D01*
X18030109Y-19120213D01*
X17879786Y-18969890D01*
X17707820Y-18844951D01*
X17518414Y-18748444D01*
X17518413Y-18748443D01*
X17518412Y-18748443D01*
X17316243Y-18682754D01*
X17316241Y-18682753D01*
X17316240Y-18682753D01*
X17154957Y-18657208D01*
X17106287Y-18649500D01*
X16893713Y-18649500D01*
X16845042Y-18657208D01*
X16683760Y-18682753D01*
X16481585Y-18748444D01*
X16292179Y-18844951D01*
X16120213Y-18969890D01*
X15969890Y-19120213D01*
X15844951Y-19292179D01*
X15748444Y-19481585D01*
X15682753Y-19683760D01*
X15649500Y-19893713D01*
X14250500Y-19893713D01*
X14250500Y-16374500D01*
X14270185Y-16307461D01*
X14322989Y-16261706D01*
X14374500Y-16250500D01*
X163125499Y-16250500D01*
X163192538Y-16270185D01*
G37*
%TD.AperFunction*%
%TD*%
M02*
