M48
; DRILL file KiCad 9.99.0-4546-gb76221958b date 2025-12-28T23:01:23+0530
; FORMAT={-:-/ absolute / metric / decimal}
; #@! TF.CreationDate,2025-12-28T23:01:23+05:30
; #@! TF.GenerationSoftware,Kicad,Pcbnew,9.99.0-4546-gb76221958b
; #@! TF.FileFunction,Plated,1,4,PTH
FMAT,2
METRIC
; #@! TA.AperFunction,Plated,PTH,ViaDrill
T1C0.300
; #@! TA.AperFunction,Plated,PTH,ComponentDrill
T2C0.600
; #@! TA.AperFunction,Plated,PTH,ComponentDrill
T3C1.200
; #@! TA.AperFunction,Plated,PTH,ComponentDrill
T4C1.300
; #@! TA.AperFunction,Plated,PTH,ComponentDrill
T5C2.200
%
G90
G05
T1
X114.987Y-50.225
X118.675Y-50.975
X118.962Y-71.975
X119.65Y-45.062
X121.4Y-45.062
X121.9Y-54.725
X122.25Y-82.0
X122.25Y-83.0
X122.625Y-79.625
X122.75Y-83.5
X123.0Y-81.25
X123.25Y-82.0
X123.25Y-83.0
X123.4Y-46.975
X123.5Y-80.5
X123.625Y-74.725
X123.665Y-72.898
X124.0Y-77.0
X124.0Y-81.25
X124.125Y-79.725
X124.5Y-80.5
X124.65Y-56.975
X124.875Y-70.725
X125.0Y-77.0
X125.375Y-80.225
X125.5Y-76.25
X125.9Y-43.725
X126.0Y-77.0
X126.5Y-39.75
X126.5Y-40.5
X126.625Y-79.725
X126.75Y-80.75
X126.875Y-74.725
X127.0Y-39.0
X127.0Y-77.0
X127.145Y-72.79
X127.25Y-36.5
X127.5Y-80.5
X127.9Y-34.5
X128.125Y-79.75
X128.125Y-81.475
X128.125Y-83.475
X128.5Y-36.75
X128.5Y-37.75
X128.75Y-38.5
X128.88Y-45.91
X129.1Y-41.6
X129.15Y-43.975
X129.25Y-37.75
X129.8Y-41.6
X130.125Y-74.975
X130.5Y-39.1
X130.5Y-41.6
X130.6Y-42.3
X131.15Y-47.975
X131.2Y-37.7
X131.2Y-38.5
X131.2Y-41.6
X131.375Y-61.725
X131.8Y-38.0
X131.9Y-41.6
X132.3Y-37.4
X132.36Y-45.802
X132.4Y-34.3
X132.4Y-35.2
X132.4Y-36.2
X132.4Y-43.975
X132.625Y-71.725
X133.0Y-86.5
X133.1Y-35.2
X133.1Y-36.2
X133.1Y-36.9
X133.8Y-34.3
X133.8Y-35.2
X133.9Y-36.2
X133.9Y-36.9
X134.125Y-63.975
X136.925Y-50.325
X138.963Y-65.975
X141.0Y-39.25
T2
X115.15Y-42.698
X115.15Y-44.698
X140.875Y-74.002
X140.875Y-76.002
T3
X26.3Y-38.475
X26.3Y-45.225
T4
X23.72Y-26.725
X28.8Y-26.725
X33.88Y-26.725
X38.96Y-26.725
X151.463Y-37.735
X151.463Y-42.815
X151.463Y-47.895
X151.463Y-52.975
X151.963Y-65.395
X151.963Y-70.475
X151.963Y-75.555
X151.963Y-80.635
T5
X102.3Y-74.225
X102.3Y-79.725
M30
