%TF.GenerationSoftware,KiCad,Pcbnew,9.99.0-4546-gb76221958b*%
%TF.CreationDate,2025-12-26T02:09:00+05:30*%
%TF.ProjectId,universal-psu,756e6976-6572-4736-916c-2d7073752e6b,rev?*%
%TF.SameCoordinates,Original*%
%TF.FileFunction,Legend,Top*%
%TF.FilePolarity,Positive*%
%FSLAX46Y46*%
G04 Gerber Fmt 4.6, Leading zero omitted, Abs format (unit mm)*
G04 Created by KiCad (PCBNEW 9.99.0-4546-gb76221958b) date 2025-12-26 02:09:00*
%MOMM*%
%LPD*%
G01*
G04 APERTURE LIST*
%ADD10C,0.100000*%
%ADD11C,0.000000*%
%ADD12C,0.300000*%
%ADD13C,0.150000*%
%ADD14C,0.120000*%
%ADD15C,0.127000*%
%ADD16C,0.200000*%
G04 APERTURE END LIST*
D10*
X149053884Y-94122419D02*
X149053884Y-93122419D01*
X149053884Y-93122419D02*
X149387217Y-93836704D01*
X149387217Y-93836704D02*
X149720550Y-93122419D01*
X149720550Y-93122419D02*
X149720550Y-94122419D01*
X150625312Y-94122419D02*
X150625312Y-93598609D01*
X150625312Y-93598609D02*
X150577693Y-93503371D01*
X150577693Y-93503371D02*
X150482455Y-93455752D01*
X150482455Y-93455752D02*
X150291979Y-93455752D01*
X150291979Y-93455752D02*
X150196741Y-93503371D01*
X150625312Y-94074800D02*
X150530074Y-94122419D01*
X150530074Y-94122419D02*
X150291979Y-94122419D01*
X150291979Y-94122419D02*
X150196741Y-94074800D01*
X150196741Y-94074800D02*
X150149122Y-93979561D01*
X150149122Y-93979561D02*
X150149122Y-93884323D01*
X150149122Y-93884323D02*
X150196741Y-93789085D01*
X150196741Y-93789085D02*
X150291979Y-93741466D01*
X150291979Y-93741466D02*
X150530074Y-93741466D01*
X150530074Y-93741466D02*
X150625312Y-93693847D01*
X151006265Y-93455752D02*
X151244360Y-94122419D01*
X151482455Y-93455752D02*
X151244360Y-94122419D01*
X151244360Y-94122419D02*
X151149122Y-94360514D01*
X151149122Y-94360514D02*
X151101503Y-94408133D01*
X151101503Y-94408133D02*
X151006265Y-94455752D01*
X152291979Y-94122419D02*
X152291979Y-93598609D01*
X152291979Y-93598609D02*
X152244360Y-93503371D01*
X152244360Y-93503371D02*
X152149122Y-93455752D01*
X152149122Y-93455752D02*
X151958646Y-93455752D01*
X151958646Y-93455752D02*
X151863408Y-93503371D01*
X152291979Y-94074800D02*
X152196741Y-94122419D01*
X152196741Y-94122419D02*
X151958646Y-94122419D01*
X151958646Y-94122419D02*
X151863408Y-94074800D01*
X151863408Y-94074800D02*
X151815789Y-93979561D01*
X151815789Y-93979561D02*
X151815789Y-93884323D01*
X151815789Y-93884323D02*
X151863408Y-93789085D01*
X151863408Y-93789085D02*
X151958646Y-93741466D01*
X151958646Y-93741466D02*
X152196741Y-93741466D01*
X152196741Y-93741466D02*
X152291979Y-93693847D01*
X152768170Y-93455752D02*
X152768170Y-94122419D01*
X152768170Y-93550990D02*
X152815789Y-93503371D01*
X152815789Y-93503371D02*
X152911027Y-93455752D01*
X152911027Y-93455752D02*
X153053884Y-93455752D01*
X153053884Y-93455752D02*
X153149122Y-93503371D01*
X153149122Y-93503371D02*
X153196741Y-93598609D01*
X153196741Y-93598609D02*
X153196741Y-94122419D01*
X153672932Y-94122419D02*
X153672932Y-93122419D01*
X153768170Y-93741466D02*
X154053884Y-94122419D01*
X154053884Y-93455752D02*
X153672932Y-93836704D01*
X155196742Y-94074800D02*
X155339599Y-94122419D01*
X155339599Y-94122419D02*
X155577694Y-94122419D01*
X155577694Y-94122419D02*
X155672932Y-94074800D01*
X155672932Y-94074800D02*
X155720551Y-94027180D01*
X155720551Y-94027180D02*
X155768170Y-93931942D01*
X155768170Y-93931942D02*
X155768170Y-93836704D01*
X155768170Y-93836704D02*
X155720551Y-93741466D01*
X155720551Y-93741466D02*
X155672932Y-93693847D01*
X155672932Y-93693847D02*
X155577694Y-93646228D01*
X155577694Y-93646228D02*
X155387218Y-93598609D01*
X155387218Y-93598609D02*
X155291980Y-93550990D01*
X155291980Y-93550990D02*
X155244361Y-93503371D01*
X155244361Y-93503371D02*
X155196742Y-93408133D01*
X155196742Y-93408133D02*
X155196742Y-93312895D01*
X155196742Y-93312895D02*
X155244361Y-93217657D01*
X155244361Y-93217657D02*
X155291980Y-93170038D01*
X155291980Y-93170038D02*
X155387218Y-93122419D01*
X155387218Y-93122419D02*
X155625313Y-93122419D01*
X155625313Y-93122419D02*
X155768170Y-93170038D01*
X149053884Y-92372419D02*
X149053884Y-91372419D01*
X149053884Y-91372419D02*
X149291979Y-91372419D01*
X149291979Y-91372419D02*
X149434836Y-91420038D01*
X149434836Y-91420038D02*
X149530074Y-91515276D01*
X149530074Y-91515276D02*
X149577693Y-91610514D01*
X149577693Y-91610514D02*
X149625312Y-91800990D01*
X149625312Y-91800990D02*
X149625312Y-91943847D01*
X149625312Y-91943847D02*
X149577693Y-92134323D01*
X149577693Y-92134323D02*
X149530074Y-92229561D01*
X149530074Y-92229561D02*
X149434836Y-92324800D01*
X149434836Y-92324800D02*
X149291979Y-92372419D01*
X149291979Y-92372419D02*
X149053884Y-92372419D01*
X150434836Y-92324800D02*
X150339598Y-92372419D01*
X150339598Y-92372419D02*
X150149122Y-92372419D01*
X150149122Y-92372419D02*
X150053884Y-92324800D01*
X150053884Y-92324800D02*
X150006265Y-92229561D01*
X150006265Y-92229561D02*
X150006265Y-91848609D01*
X150006265Y-91848609D02*
X150053884Y-91753371D01*
X150053884Y-91753371D02*
X150149122Y-91705752D01*
X150149122Y-91705752D02*
X150339598Y-91705752D01*
X150339598Y-91705752D02*
X150434836Y-91753371D01*
X150434836Y-91753371D02*
X150482455Y-91848609D01*
X150482455Y-91848609D02*
X150482455Y-91943847D01*
X150482455Y-91943847D02*
X150006265Y-92039085D01*
X150863408Y-92324800D02*
X150958646Y-92372419D01*
X150958646Y-92372419D02*
X151149122Y-92372419D01*
X151149122Y-92372419D02*
X151244360Y-92324800D01*
X151244360Y-92324800D02*
X151291979Y-92229561D01*
X151291979Y-92229561D02*
X151291979Y-92181942D01*
X151291979Y-92181942D02*
X151244360Y-92086704D01*
X151244360Y-92086704D02*
X151149122Y-92039085D01*
X151149122Y-92039085D02*
X151006265Y-92039085D01*
X151006265Y-92039085D02*
X150911027Y-91991466D01*
X150911027Y-91991466D02*
X150863408Y-91896228D01*
X150863408Y-91896228D02*
X150863408Y-91848609D01*
X150863408Y-91848609D02*
X150911027Y-91753371D01*
X150911027Y-91753371D02*
X151006265Y-91705752D01*
X151006265Y-91705752D02*
X151149122Y-91705752D01*
X151149122Y-91705752D02*
X151244360Y-91753371D01*
X151720551Y-92372419D02*
X151720551Y-91705752D01*
X151720551Y-91372419D02*
X151672932Y-91420038D01*
X151672932Y-91420038D02*
X151720551Y-91467657D01*
X151720551Y-91467657D02*
X151768170Y-91420038D01*
X151768170Y-91420038D02*
X151720551Y-91372419D01*
X151720551Y-91372419D02*
X151720551Y-91467657D01*
X152625312Y-91705752D02*
X152625312Y-92515276D01*
X152625312Y-92515276D02*
X152577693Y-92610514D01*
X152577693Y-92610514D02*
X152530074Y-92658133D01*
X152530074Y-92658133D02*
X152434836Y-92705752D01*
X152434836Y-92705752D02*
X152291979Y-92705752D01*
X152291979Y-92705752D02*
X152196741Y-92658133D01*
X152625312Y-92324800D02*
X152530074Y-92372419D01*
X152530074Y-92372419D02*
X152339598Y-92372419D01*
X152339598Y-92372419D02*
X152244360Y-92324800D01*
X152244360Y-92324800D02*
X152196741Y-92277180D01*
X152196741Y-92277180D02*
X152149122Y-92181942D01*
X152149122Y-92181942D02*
X152149122Y-91896228D01*
X152149122Y-91896228D02*
X152196741Y-91800990D01*
X152196741Y-91800990D02*
X152244360Y-91753371D01*
X152244360Y-91753371D02*
X152339598Y-91705752D01*
X152339598Y-91705752D02*
X152530074Y-91705752D01*
X152530074Y-91705752D02*
X152625312Y-91753371D01*
X153101503Y-91705752D02*
X153101503Y-92372419D01*
X153101503Y-91800990D02*
X153149122Y-91753371D01*
X153149122Y-91753371D02*
X153244360Y-91705752D01*
X153244360Y-91705752D02*
X153387217Y-91705752D01*
X153387217Y-91705752D02*
X153482455Y-91753371D01*
X153482455Y-91753371D02*
X153530074Y-91848609D01*
X153530074Y-91848609D02*
X153530074Y-92372419D01*
X155101503Y-91848609D02*
X155244360Y-91896228D01*
X155244360Y-91896228D02*
X155291979Y-91943847D01*
X155291979Y-91943847D02*
X155339598Y-92039085D01*
X155339598Y-92039085D02*
X155339598Y-92181942D01*
X155339598Y-92181942D02*
X155291979Y-92277180D01*
X155291979Y-92277180D02*
X155244360Y-92324800D01*
X155244360Y-92324800D02*
X155149122Y-92372419D01*
X155149122Y-92372419D02*
X154768170Y-92372419D01*
X154768170Y-92372419D02*
X154768170Y-91372419D01*
X154768170Y-91372419D02*
X155101503Y-91372419D01*
X155101503Y-91372419D02*
X155196741Y-91420038D01*
X155196741Y-91420038D02*
X155244360Y-91467657D01*
X155244360Y-91467657D02*
X155291979Y-91562895D01*
X155291979Y-91562895D02*
X155291979Y-91658133D01*
X155291979Y-91658133D02*
X155244360Y-91753371D01*
X155244360Y-91753371D02*
X155196741Y-91800990D01*
X155196741Y-91800990D02*
X155101503Y-91848609D01*
X155101503Y-91848609D02*
X154768170Y-91848609D01*
X155672932Y-91705752D02*
X155911027Y-92372419D01*
X156149122Y-91705752D02*
X155911027Y-92372419D01*
X155911027Y-92372419D02*
X155815789Y-92610514D01*
X155815789Y-92610514D02*
X155768170Y-92658133D01*
X155768170Y-92658133D02*
X155672932Y-92705752D01*
D11*
G36*
X51575227Y-30440491D02*
G01*
X50809509Y-30440491D01*
X50809509Y-29674773D01*
X51575227Y-29674773D01*
X51575227Y-30440491D01*
G37*
G36*
X52085706Y-29419534D02*
G01*
X52085706Y-30695730D01*
X52085706Y-30950969D01*
X50299031Y-30950969D01*
X50299031Y-30695730D01*
X50554270Y-30695730D01*
X51830466Y-30695730D01*
X51830466Y-29419534D01*
X50554270Y-29419534D01*
X50554270Y-30695730D01*
X50299031Y-30695730D01*
X50299031Y-29419534D01*
X50299031Y-29164294D01*
X52085706Y-29164294D01*
X52085706Y-29419534D01*
G37*
G36*
X52596184Y-30695730D02*
G01*
X52851423Y-30695730D01*
X52851423Y-30950969D01*
X52340945Y-30950969D01*
X52340945Y-30695730D01*
X52340945Y-30440491D01*
X52596184Y-30440491D01*
X52596184Y-30695730D01*
G37*
G36*
X56169534Y-29419534D02*
G01*
X55914294Y-29419534D01*
X55914294Y-29164294D01*
X56169534Y-29164294D01*
X56169534Y-29419534D01*
G37*
G36*
X56680012Y-28143337D02*
G01*
X56935251Y-28143337D01*
X56935251Y-28398577D01*
X57190491Y-28398577D01*
X57190491Y-28653816D01*
X57445730Y-28653816D01*
X57445730Y-28909055D01*
X56935251Y-28909055D01*
X56935251Y-29419534D01*
X56680012Y-29419534D01*
X56680012Y-29674773D01*
X56935251Y-29674773D01*
X56935251Y-29930012D01*
X55914294Y-29930012D01*
X55914294Y-30185251D01*
X55914294Y-30440491D01*
X55403816Y-30440491D01*
X55403816Y-30185251D01*
X55659055Y-30185251D01*
X55659055Y-29930012D01*
X55148577Y-29930012D01*
X55148577Y-29674773D01*
X55148577Y-29419534D01*
X54893337Y-29419534D01*
X54893337Y-29674773D01*
X54638098Y-29674773D01*
X54638098Y-30185251D01*
X54382859Y-30185251D01*
X54382859Y-30440491D01*
X54382859Y-30695730D01*
X54382859Y-30950969D01*
X54127620Y-30950969D01*
X54127620Y-30695730D01*
X53872380Y-30695730D01*
X53872380Y-30440491D01*
X54127620Y-30440491D01*
X54127620Y-30185251D01*
X54127620Y-29674773D01*
X54382859Y-29674773D01*
X54382859Y-29419534D01*
X54127620Y-29419534D01*
X54127620Y-29164294D01*
X53872380Y-29164294D01*
X53872380Y-28909055D01*
X53872380Y-28653816D01*
X54127620Y-28653816D01*
X54127620Y-28909055D01*
X54382859Y-28909055D01*
X54382859Y-29164294D01*
X54638098Y-29164294D01*
X54638098Y-29419534D01*
X54893337Y-29419534D01*
X54893337Y-29164294D01*
X55403816Y-29164294D01*
X55659055Y-29164294D01*
X55659055Y-29419534D01*
X55659055Y-29674773D01*
X56424773Y-29674773D01*
X56424773Y-29419534D01*
X56424773Y-28909055D01*
X55659055Y-28909055D01*
X55659055Y-29164294D01*
X55403816Y-29164294D01*
X55403816Y-28909055D01*
X55403816Y-28653816D01*
X55914294Y-28653816D01*
X55914294Y-28398577D01*
X56169534Y-28398577D01*
X56169534Y-28653816D01*
X56680012Y-28653816D01*
X56680012Y-28398577D01*
X56424773Y-28398577D01*
X56424773Y-28143337D01*
X56424773Y-27888098D01*
X56680012Y-27888098D01*
X56680012Y-28143337D01*
G37*
G36*
X55659055Y-30950969D02*
G01*
X55148577Y-30950969D01*
X55148577Y-30695730D01*
X55659055Y-30695730D01*
X55659055Y-30950969D01*
G37*
G36*
X56680012Y-30440491D02*
G01*
X56424773Y-30440491D01*
X56424773Y-30695730D01*
X56169534Y-30695730D01*
X56169534Y-30950969D01*
X55914294Y-30950969D01*
X55914294Y-30695730D01*
X55914294Y-30440491D01*
X56169534Y-30440491D01*
X56169534Y-30185251D01*
X56680012Y-30185251D01*
X56680012Y-30440491D01*
G37*
G36*
X56680012Y-30950969D02*
G01*
X56424773Y-30950969D01*
X56424773Y-30695730D01*
X56680012Y-30695730D01*
X56680012Y-30950969D01*
G37*
G36*
X53106663Y-30440491D02*
G01*
X53361902Y-30440491D01*
X53361902Y-30695730D01*
X52851423Y-30695730D01*
X52851423Y-30440491D01*
X52596184Y-30440491D01*
X52596184Y-30185251D01*
X53106663Y-30185251D01*
X53106663Y-30440491D01*
G37*
G36*
X57700969Y-30185251D02*
G01*
X57700969Y-30440491D01*
X57700969Y-30695730D01*
X57445730Y-30695730D01*
X57445730Y-30440491D01*
X57190491Y-30440491D01*
X57190491Y-30695730D01*
X56680012Y-30695730D01*
X56680012Y-30440491D01*
X56935251Y-30440491D01*
X56935251Y-30185251D01*
X57190491Y-30185251D01*
X57190491Y-29674773D01*
X57700969Y-29674773D01*
X57700969Y-30185251D01*
G37*
G36*
X55148577Y-30440491D02*
G01*
X54893337Y-30440491D01*
X54893337Y-29930012D01*
X55148577Y-29930012D01*
X55148577Y-30440491D01*
G37*
G36*
X52596184Y-30185251D02*
G01*
X52340945Y-30185251D01*
X52340945Y-29674773D01*
X52596184Y-29674773D01*
X52596184Y-30185251D01*
G37*
G36*
X53872380Y-30185251D02*
G01*
X53617141Y-30185251D01*
X53617141Y-29930012D01*
X53872380Y-29930012D01*
X53872380Y-30185251D01*
G37*
G36*
X53361902Y-29164294D02*
G01*
X53361902Y-29419534D01*
X53106663Y-29419534D01*
X53106663Y-29674773D01*
X53361902Y-29674773D01*
X53361902Y-29930012D01*
X52851423Y-29930012D01*
X52851423Y-29674773D01*
X52596184Y-29674773D01*
X52596184Y-29419534D01*
X52851423Y-29419534D01*
X52851423Y-29164294D01*
X53106663Y-29164294D01*
X53106663Y-28909055D01*
X53361902Y-28909055D01*
X53361902Y-29164294D01*
G37*
G36*
X53617141Y-29674773D02*
G01*
X53361902Y-29674773D01*
X53361902Y-29419534D01*
X53617141Y-29419534D01*
X53617141Y-29674773D01*
G37*
G36*
X54127620Y-29674773D02*
G01*
X53872380Y-29674773D01*
X53872380Y-29419534D01*
X54127620Y-29419534D01*
X54127620Y-29674773D01*
G37*
G36*
X53106663Y-28143337D02*
G01*
X53361902Y-28143337D01*
X53361902Y-28398577D01*
X52851423Y-28398577D01*
X52851423Y-28909055D01*
X52851423Y-29164294D01*
X52340945Y-29164294D01*
X52340945Y-28909055D01*
X52596184Y-28909055D01*
X52596184Y-28398577D01*
X52340945Y-28398577D01*
X52340945Y-28143337D01*
X52851423Y-28143337D01*
X52851423Y-27888098D01*
X53106663Y-27888098D01*
X53106663Y-28143337D01*
G37*
G36*
X53872380Y-24825227D02*
G01*
X54127620Y-24825227D01*
X54127620Y-25080466D01*
X54127620Y-25335706D01*
X53872380Y-25335706D01*
X53872380Y-25080466D01*
X53617141Y-25080466D01*
X53617141Y-25335706D01*
X53361902Y-25335706D01*
X53361902Y-25080466D01*
X53106663Y-25080466D01*
X53106663Y-25590945D01*
X53617141Y-25590945D01*
X53617141Y-25335706D01*
X53872380Y-25335706D01*
X53872380Y-25590945D01*
X54382859Y-25590945D01*
X54382859Y-25846184D01*
X54382859Y-26101423D01*
X54382859Y-26356663D01*
X53872380Y-26356663D01*
X53872380Y-26101423D01*
X54127620Y-26101423D01*
X54127620Y-25846184D01*
X53361902Y-25846184D01*
X53361902Y-26101423D01*
X53617141Y-26101423D01*
X53617141Y-26356663D01*
X53617141Y-26611902D01*
X53361902Y-26611902D01*
X53361902Y-27122380D01*
X53106663Y-27122380D01*
X53106663Y-26611902D01*
X52851423Y-26611902D01*
X52851423Y-26867141D01*
X52851423Y-27122380D01*
X52596184Y-27122380D01*
X52596184Y-27377620D01*
X52851423Y-27377620D01*
X52851423Y-27632859D01*
X52596184Y-27632859D01*
X52596184Y-27888098D01*
X52340945Y-27888098D01*
X52340945Y-27632859D01*
X52085706Y-27632859D01*
X52085706Y-27888098D01*
X51575227Y-27888098D01*
X51575227Y-28143337D01*
X52085706Y-28143337D01*
X52085706Y-28398577D01*
X51830466Y-28398577D01*
X51830466Y-28653816D01*
X52340945Y-28653816D01*
X52340945Y-28909055D01*
X51575227Y-28909055D01*
X51575227Y-28653816D01*
X51575227Y-28398577D01*
X51319988Y-28398577D01*
X51319988Y-28143337D01*
X51064749Y-28143337D01*
X51064749Y-28909055D01*
X50299031Y-28909055D01*
X50299031Y-28143337D01*
X50299031Y-27888098D01*
X51064749Y-27888098D01*
X51064749Y-27632859D01*
X50554270Y-27632859D01*
X50554270Y-27377620D01*
X51319988Y-27377620D01*
X51319988Y-27632859D01*
X51575227Y-27632859D01*
X51575227Y-27377620D01*
X51830466Y-27377620D01*
X51830466Y-27632859D01*
X52085706Y-27632859D01*
X52085706Y-27377620D01*
X52340945Y-27377620D01*
X52340945Y-27122380D01*
X52340945Y-26867141D01*
X51830466Y-26867141D01*
X51830466Y-26611902D01*
X52085706Y-26611902D01*
X52085706Y-26356663D01*
X52340945Y-26356663D01*
X52340945Y-26611902D01*
X52596184Y-26611902D01*
X52596184Y-26356663D01*
X52851423Y-26356663D01*
X52851423Y-26101423D01*
X53106663Y-26101423D01*
X53106663Y-25846184D01*
X52851423Y-25846184D01*
X52851423Y-26101423D01*
X52596184Y-26101423D01*
X52596184Y-25846184D01*
X52596184Y-25590945D01*
X52851423Y-25590945D01*
X52851423Y-25080466D01*
X52851423Y-24825227D01*
X53617141Y-24825227D01*
X53617141Y-24569988D01*
X53872380Y-24569988D01*
X53872380Y-24825227D01*
G37*
G36*
X56680012Y-26356663D02*
G01*
X56424773Y-26356663D01*
X56424773Y-26611902D01*
X56424773Y-26867141D01*
X57445730Y-26867141D01*
X57445730Y-26356663D01*
X57700969Y-26356663D01*
X57700969Y-26867141D01*
X57700969Y-27122380D01*
X57700969Y-27632859D01*
X57445730Y-27632859D01*
X57445730Y-27122380D01*
X57190491Y-27122380D01*
X57190491Y-27632859D01*
X56935251Y-27632859D01*
X56935251Y-27122380D01*
X56680012Y-27122380D01*
X56680012Y-27377620D01*
X56680012Y-27632859D01*
X56169534Y-27632859D01*
X56169534Y-27377620D01*
X56424773Y-27377620D01*
X56424773Y-27122380D01*
X56169534Y-27122380D01*
X56169534Y-27377620D01*
X55403816Y-27377620D01*
X55403816Y-27632859D01*
X55914294Y-27632859D01*
X55914294Y-27888098D01*
X55403816Y-27888098D01*
X55403816Y-28143337D01*
X55403816Y-28398577D01*
X55403816Y-28653816D01*
X54893337Y-28653816D01*
X54893337Y-28398577D01*
X55148577Y-28398577D01*
X55148577Y-28143337D01*
X54893337Y-28143337D01*
X54893337Y-28398577D01*
X54638098Y-28398577D01*
X54638098Y-28653816D01*
X54638098Y-28909055D01*
X54382859Y-28909055D01*
X54382859Y-28653816D01*
X54127620Y-28653816D01*
X54127620Y-28398577D01*
X54127620Y-28143337D01*
X53872380Y-28143337D01*
X53872380Y-27888098D01*
X54638098Y-27888098D01*
X54638098Y-28143337D01*
X54893337Y-28143337D01*
X54893337Y-27888098D01*
X55148577Y-27888098D01*
X55148577Y-27632859D01*
X54893337Y-27632859D01*
X54893337Y-27377620D01*
X54638098Y-27377620D01*
X54638098Y-27122380D01*
X55148577Y-27122380D01*
X55148577Y-26867141D01*
X55403816Y-26867141D01*
X55403816Y-27122380D01*
X55914294Y-27122380D01*
X55914294Y-26867141D01*
X55914294Y-26611902D01*
X55659055Y-26611902D01*
X55659055Y-26356663D01*
X56169534Y-26356663D01*
X56169534Y-25846184D01*
X56680012Y-25846184D01*
X56680012Y-26356663D01*
G37*
G36*
X53872380Y-28653816D02*
G01*
X53617141Y-28653816D01*
X53617141Y-28398577D01*
X53872380Y-28398577D01*
X53872380Y-28653816D01*
G37*
G36*
X57700969Y-28398577D02*
G01*
X57445730Y-28398577D01*
X57445730Y-28143337D01*
X57700969Y-28143337D01*
X57700969Y-28398577D01*
G37*
G36*
X52340945Y-28143337D02*
G01*
X52085706Y-28143337D01*
X52085706Y-27888098D01*
X52340945Y-27888098D01*
X52340945Y-28143337D01*
G37*
G36*
X57445730Y-28143337D02*
G01*
X56935251Y-28143337D01*
X56935251Y-27888098D01*
X57445730Y-27888098D01*
X57445730Y-28143337D01*
G37*
G36*
X53361902Y-27888098D02*
G01*
X53106663Y-27888098D01*
X53106663Y-27632859D01*
X53361902Y-27632859D01*
X53361902Y-27888098D01*
G37*
G36*
X53872380Y-27888098D02*
G01*
X53617141Y-27888098D01*
X53617141Y-27632859D01*
X53872380Y-27632859D01*
X53872380Y-27888098D01*
G37*
G36*
X56935251Y-27888098D02*
G01*
X56680012Y-27888098D01*
X56680012Y-27632859D01*
X56935251Y-27632859D01*
X56935251Y-27888098D01*
G37*
G36*
X53617141Y-27632859D02*
G01*
X53361902Y-27632859D01*
X53361902Y-27122380D01*
X53617141Y-27122380D01*
X53617141Y-27632859D01*
G37*
G36*
X54127620Y-27122380D02*
G01*
X54382859Y-27122380D01*
X54382859Y-27377620D01*
X54382859Y-27632859D01*
X54127620Y-27632859D01*
X54127620Y-27377620D01*
X53872380Y-27377620D01*
X53872380Y-27122380D01*
X53872380Y-26867141D01*
X54127620Y-26867141D01*
X54127620Y-27122380D01*
G37*
G36*
X50809509Y-26611902D02*
G01*
X50809509Y-26867141D01*
X51319988Y-26867141D01*
X51319988Y-26611902D01*
X51575227Y-26611902D01*
X51575227Y-26867141D01*
X51575227Y-27122380D01*
X51575227Y-27377620D01*
X51319988Y-27377620D01*
X51319988Y-27122380D01*
X50299031Y-27122380D01*
X50299031Y-26867141D01*
X50299031Y-26611902D01*
X50554270Y-26611902D01*
X50554270Y-26101423D01*
X50809509Y-26101423D01*
X50809509Y-26611902D01*
G37*
G36*
X52085706Y-27377620D02*
G01*
X51830466Y-27377620D01*
X51830466Y-27122380D01*
X52085706Y-27122380D01*
X52085706Y-27377620D01*
G37*
G36*
X54638098Y-26867141D02*
G01*
X54638098Y-27122380D01*
X54382859Y-27122380D01*
X54382859Y-26867141D01*
X54127620Y-26867141D01*
X54127620Y-26611902D01*
X54638098Y-26611902D01*
X54638098Y-26867141D01*
G37*
G36*
X55659055Y-26867141D02*
G01*
X55403816Y-26867141D01*
X55403816Y-26611902D01*
X55659055Y-26611902D01*
X55659055Y-26867141D01*
G37*
G36*
X55403816Y-26101423D02*
G01*
X55148577Y-26101423D01*
X55148577Y-26356663D01*
X54893337Y-26356663D01*
X54893337Y-26611902D01*
X54638098Y-26611902D01*
X54638098Y-26356663D01*
X54638098Y-26101423D01*
X54893337Y-26101423D01*
X54893337Y-25846184D01*
X55403816Y-25846184D01*
X55403816Y-26101423D01*
G37*
G36*
X56935251Y-26611902D02*
G01*
X56680012Y-26611902D01*
X56680012Y-26356663D01*
X56935251Y-26356663D01*
X56935251Y-26611902D01*
G37*
G36*
X51575227Y-25846184D02*
G01*
X51830466Y-25846184D01*
X51830466Y-26101423D01*
X51575227Y-26101423D01*
X51575227Y-26356663D01*
X51064749Y-26356663D01*
X51064749Y-26101423D01*
X51319988Y-26101423D01*
X51319988Y-25846184D01*
X51064749Y-25846184D01*
X51064749Y-25590945D01*
X51575227Y-25590945D01*
X51575227Y-25846184D01*
G37*
G36*
X52085706Y-26356663D02*
G01*
X51830466Y-26356663D01*
X51830466Y-26101423D01*
X52085706Y-26101423D01*
X52085706Y-26356663D01*
G37*
G36*
X55659055Y-26356663D02*
G01*
X55403816Y-26356663D01*
X55403816Y-26101423D01*
X55659055Y-26101423D01*
X55659055Y-26356663D01*
G37*
G36*
X57445730Y-26101423D02*
G01*
X57190491Y-26101423D01*
X57190491Y-26356663D01*
X56935251Y-26356663D01*
X56935251Y-26101423D01*
X56935251Y-25846184D01*
X57445730Y-25846184D01*
X57445730Y-26101423D01*
G37*
G36*
X50809509Y-25846184D02*
G01*
X50554270Y-25846184D01*
X50554270Y-26101423D01*
X50299031Y-26101423D01*
X50299031Y-25846184D01*
X50299031Y-25590945D01*
X50809509Y-25590945D01*
X50809509Y-25846184D01*
G37*
G36*
X51064749Y-26101423D02*
G01*
X50809509Y-26101423D01*
X50809509Y-25846184D01*
X51064749Y-25846184D01*
X51064749Y-26101423D01*
G37*
G36*
X52340945Y-26101423D02*
G01*
X52085706Y-26101423D01*
X52085706Y-25846184D01*
X52340945Y-25846184D01*
X52340945Y-26101423D01*
G37*
G36*
X55914294Y-26101423D02*
G01*
X55659055Y-26101423D01*
X55659055Y-25846184D01*
X55914294Y-25846184D01*
X55914294Y-26101423D01*
G37*
G36*
X52085706Y-25846184D02*
G01*
X51830466Y-25846184D01*
X51830466Y-25590945D01*
X52085706Y-25590945D01*
X52085706Y-25846184D01*
G37*
G36*
X54893337Y-25846184D02*
G01*
X54638098Y-25846184D01*
X54638098Y-25590945D01*
X54893337Y-25590945D01*
X54893337Y-25846184D01*
G37*
G36*
X56169534Y-25846184D02*
G01*
X55914294Y-25846184D01*
X55914294Y-25590945D01*
X56169534Y-25590945D01*
X56169534Y-25846184D01*
G37*
G36*
X57700969Y-25846184D02*
G01*
X57445730Y-25846184D01*
X57445730Y-25590945D01*
X57700969Y-25590945D01*
X57700969Y-25846184D01*
G37*
G36*
X52596184Y-25590945D02*
G01*
X52340945Y-25590945D01*
X52340945Y-25080466D01*
X52596184Y-25080466D01*
X52596184Y-25590945D01*
G37*
G36*
X54638098Y-25590945D02*
G01*
X54382859Y-25590945D01*
X54382859Y-25080466D01*
X54638098Y-25080466D01*
X54638098Y-25590945D01*
G37*
G36*
X55659055Y-25335706D02*
G01*
X55659055Y-25590945D01*
X55148577Y-25590945D01*
X55148577Y-25335706D01*
X55403816Y-25335706D01*
X55403816Y-24825227D01*
X55659055Y-24825227D01*
X55659055Y-25335706D01*
G37*
G36*
X51575227Y-24825227D02*
G01*
X50809509Y-24825227D01*
X50809509Y-24059509D01*
X51575227Y-24059509D01*
X51575227Y-24825227D01*
G37*
G36*
X52085706Y-23804270D02*
G01*
X52085706Y-25080466D01*
X52085706Y-25335706D01*
X50299031Y-25335706D01*
X50299031Y-25080466D01*
X50554270Y-25080466D01*
X51830466Y-25080466D01*
X51830466Y-23804270D01*
X50554270Y-23804270D01*
X50554270Y-25080466D01*
X50299031Y-25080466D01*
X50299031Y-23804270D01*
X50299031Y-23549031D01*
X52085706Y-23549031D01*
X52085706Y-23804270D01*
G37*
G36*
X54638098Y-24059509D02*
G01*
X54638098Y-24314749D01*
X54638098Y-24569988D01*
X55403816Y-24569988D01*
X55403816Y-24825227D01*
X55148577Y-24825227D01*
X55148577Y-25335706D01*
X54893337Y-25335706D01*
X54893337Y-24825227D01*
X54382859Y-24825227D01*
X54382859Y-24569988D01*
X54382859Y-24314749D01*
X54127620Y-24314749D01*
X54127620Y-24059509D01*
X54382859Y-24059509D01*
X54382859Y-23804270D01*
X54638098Y-23804270D01*
X54638098Y-24059509D01*
G37*
G36*
X57190491Y-24825227D02*
G01*
X56424773Y-24825227D01*
X56424773Y-24059509D01*
X57190491Y-24059509D01*
X57190491Y-24825227D01*
G37*
G36*
X57700969Y-23804270D02*
G01*
X57700969Y-25080466D01*
X57700969Y-25335706D01*
X55914294Y-25335706D01*
X55914294Y-25080466D01*
X56169534Y-25080466D01*
X57445730Y-25080466D01*
X57445730Y-23804270D01*
X56169534Y-23804270D01*
X56169534Y-25080466D01*
X55914294Y-25080466D01*
X55914294Y-23804270D01*
X55914294Y-23549031D01*
X57700969Y-23549031D01*
X57700969Y-23804270D01*
G37*
G36*
X52851423Y-24825227D02*
G01*
X52596184Y-24825227D01*
X52596184Y-24569988D01*
X52851423Y-24569988D01*
X52851423Y-24825227D01*
G37*
G36*
X53361902Y-24569988D02*
G01*
X53106663Y-24569988D01*
X53106663Y-24314749D01*
X53361902Y-24314749D01*
X53361902Y-24569988D01*
G37*
G36*
X55659055Y-24569988D02*
G01*
X55403816Y-24569988D01*
X55403816Y-24059509D01*
X55659055Y-24059509D01*
X55659055Y-24569988D01*
G37*
G36*
X53617141Y-23804270D02*
G01*
X53106663Y-23804270D01*
X53106663Y-24059509D01*
X53106663Y-24314749D01*
X52851423Y-24314749D01*
X52851423Y-24059509D01*
X52596184Y-24059509D01*
X52596184Y-23804270D01*
X52851423Y-23804270D01*
X52851423Y-23549031D01*
X53617141Y-23549031D01*
X53617141Y-23804270D01*
G37*
G36*
X53872380Y-24059509D02*
G01*
X53872380Y-24314749D01*
X53361902Y-24314749D01*
X53361902Y-24059509D01*
X53617141Y-24059509D01*
X53617141Y-23804270D01*
X53872380Y-23804270D01*
X53872380Y-24059509D01*
G37*
G36*
X55148577Y-23804270D02*
G01*
X55403816Y-23804270D01*
X55403816Y-24059509D01*
X55148577Y-24059509D01*
X55148577Y-24314749D01*
X54893337Y-24314749D01*
X54893337Y-24059509D01*
X54893337Y-23804270D01*
X54893337Y-23549031D01*
X55148577Y-23549031D01*
X55148577Y-23804270D01*
G37*
G36*
X52596184Y-23804270D02*
G01*
X52340945Y-23804270D01*
X52340945Y-23549031D01*
X52596184Y-23549031D01*
X52596184Y-23804270D01*
G37*
G36*
X54127620Y-23804270D02*
G01*
X53872380Y-23804270D01*
X53872380Y-23549031D01*
X54127620Y-23549031D01*
X54127620Y-23804270D01*
G37*
D10*
X82958646Y-24372419D02*
X83577693Y-24372419D01*
X83577693Y-24372419D02*
X83244360Y-24753371D01*
X83244360Y-24753371D02*
X83387217Y-24753371D01*
X83387217Y-24753371D02*
X83482455Y-24800990D01*
X83482455Y-24800990D02*
X83530074Y-24848609D01*
X83530074Y-24848609D02*
X83577693Y-24943847D01*
X83577693Y-24943847D02*
X83577693Y-25181942D01*
X83577693Y-25181942D02*
X83530074Y-25277180D01*
X83530074Y-25277180D02*
X83482455Y-25324800D01*
X83482455Y-25324800D02*
X83387217Y-25372419D01*
X83387217Y-25372419D02*
X83101503Y-25372419D01*
X83101503Y-25372419D02*
X83006265Y-25324800D01*
X83006265Y-25324800D02*
X82958646Y-25277180D01*
X83911027Y-24705752D02*
X84149122Y-25372419D01*
X84149122Y-25372419D02*
X84387217Y-24705752D01*
X84672932Y-24372419D02*
X85291979Y-24372419D01*
X85291979Y-24372419D02*
X84958646Y-24753371D01*
X84958646Y-24753371D02*
X85101503Y-24753371D01*
X85101503Y-24753371D02*
X85196741Y-24800990D01*
X85196741Y-24800990D02*
X85244360Y-24848609D01*
X85244360Y-24848609D02*
X85291979Y-24943847D01*
X85291979Y-24943847D02*
X85291979Y-25181942D01*
X85291979Y-25181942D02*
X85244360Y-25277180D01*
X85244360Y-25277180D02*
X85196741Y-25324800D01*
X85196741Y-25324800D02*
X85101503Y-25372419D01*
X85101503Y-25372419D02*
X84815789Y-25372419D01*
X84815789Y-25372419D02*
X84720551Y-25324800D01*
X84720551Y-25324800D02*
X84672932Y-25277180D01*
X86911027Y-25372419D02*
X86911027Y-24848609D01*
X86911027Y-24848609D02*
X86863408Y-24753371D01*
X86863408Y-24753371D02*
X86768170Y-24705752D01*
X86768170Y-24705752D02*
X86577694Y-24705752D01*
X86577694Y-24705752D02*
X86482456Y-24753371D01*
X86911027Y-25324800D02*
X86815789Y-25372419D01*
X86815789Y-25372419D02*
X86577694Y-25372419D01*
X86577694Y-25372419D02*
X86482456Y-25324800D01*
X86482456Y-25324800D02*
X86434837Y-25229561D01*
X86434837Y-25229561D02*
X86434837Y-25134323D01*
X86434837Y-25134323D02*
X86482456Y-25039085D01*
X86482456Y-25039085D02*
X86577694Y-24991466D01*
X86577694Y-24991466D02*
X86815789Y-24991466D01*
X86815789Y-24991466D02*
X86911027Y-24943847D01*
X87387218Y-24705752D02*
X87387218Y-25372419D01*
X87387218Y-24800990D02*
X87434837Y-24753371D01*
X87434837Y-24753371D02*
X87530075Y-24705752D01*
X87530075Y-24705752D02*
X87672932Y-24705752D01*
X87672932Y-24705752D02*
X87768170Y-24753371D01*
X87768170Y-24753371D02*
X87815789Y-24848609D01*
X87815789Y-24848609D02*
X87815789Y-25372419D01*
X88720551Y-25372419D02*
X88720551Y-24372419D01*
X88720551Y-25324800D02*
X88625313Y-25372419D01*
X88625313Y-25372419D02*
X88434837Y-25372419D01*
X88434837Y-25372419D02*
X88339599Y-25324800D01*
X88339599Y-25324800D02*
X88291980Y-25277180D01*
X88291980Y-25277180D02*
X88244361Y-25181942D01*
X88244361Y-25181942D02*
X88244361Y-24896228D01*
X88244361Y-24896228D02*
X88291980Y-24800990D01*
X88291980Y-24800990D02*
X88339599Y-24753371D01*
X88339599Y-24753371D02*
X88434837Y-24705752D01*
X88434837Y-24705752D02*
X88625313Y-24705752D01*
X88625313Y-24705752D02*
X88720551Y-24753371D01*
X90434837Y-24372419D02*
X89958647Y-24372419D01*
X89958647Y-24372419D02*
X89911028Y-24848609D01*
X89911028Y-24848609D02*
X89958647Y-24800990D01*
X89958647Y-24800990D02*
X90053885Y-24753371D01*
X90053885Y-24753371D02*
X90291980Y-24753371D01*
X90291980Y-24753371D02*
X90387218Y-24800990D01*
X90387218Y-24800990D02*
X90434837Y-24848609D01*
X90434837Y-24848609D02*
X90482456Y-24943847D01*
X90482456Y-24943847D02*
X90482456Y-25181942D01*
X90482456Y-25181942D02*
X90434837Y-25277180D01*
X90434837Y-25277180D02*
X90387218Y-25324800D01*
X90387218Y-25324800D02*
X90291980Y-25372419D01*
X90291980Y-25372419D02*
X90053885Y-25372419D01*
X90053885Y-25372419D02*
X89958647Y-25324800D01*
X89958647Y-25324800D02*
X89911028Y-25277180D01*
X90768171Y-24372419D02*
X91101504Y-25372419D01*
X91101504Y-25372419D02*
X91434837Y-24372419D01*
X92720552Y-24372419D02*
X92911028Y-24372419D01*
X92911028Y-24372419D02*
X93006266Y-24420038D01*
X93006266Y-24420038D02*
X93101504Y-24515276D01*
X93101504Y-24515276D02*
X93149123Y-24705752D01*
X93149123Y-24705752D02*
X93149123Y-25039085D01*
X93149123Y-25039085D02*
X93101504Y-25229561D01*
X93101504Y-25229561D02*
X93006266Y-25324800D01*
X93006266Y-25324800D02*
X92911028Y-25372419D01*
X92911028Y-25372419D02*
X92720552Y-25372419D01*
X92720552Y-25372419D02*
X92625314Y-25324800D01*
X92625314Y-25324800D02*
X92530076Y-25229561D01*
X92530076Y-25229561D02*
X92482457Y-25039085D01*
X92482457Y-25039085D02*
X92482457Y-24705752D01*
X92482457Y-24705752D02*
X92530076Y-24515276D01*
X92530076Y-24515276D02*
X92625314Y-24420038D01*
X92625314Y-24420038D02*
X92720552Y-24372419D01*
X94006266Y-24705752D02*
X94006266Y-25372419D01*
X93577695Y-24705752D02*
X93577695Y-25229561D01*
X93577695Y-25229561D02*
X93625314Y-25324800D01*
X93625314Y-25324800D02*
X93720552Y-25372419D01*
X93720552Y-25372419D02*
X93863409Y-25372419D01*
X93863409Y-25372419D02*
X93958647Y-25324800D01*
X93958647Y-25324800D02*
X94006266Y-25277180D01*
X94339600Y-24705752D02*
X94720552Y-24705752D01*
X94482457Y-24372419D02*
X94482457Y-25229561D01*
X94482457Y-25229561D02*
X94530076Y-25324800D01*
X94530076Y-25324800D02*
X94625314Y-25372419D01*
X94625314Y-25372419D02*
X94720552Y-25372419D01*
X79006265Y-23586704D02*
X79482455Y-23586704D01*
X78911027Y-23872419D02*
X79244360Y-22872419D01*
X79244360Y-22872419D02*
X79577693Y-23872419D01*
X80482455Y-23777180D02*
X80434836Y-23824800D01*
X80434836Y-23824800D02*
X80291979Y-23872419D01*
X80291979Y-23872419D02*
X80196741Y-23872419D01*
X80196741Y-23872419D02*
X80053884Y-23824800D01*
X80053884Y-23824800D02*
X79958646Y-23729561D01*
X79958646Y-23729561D02*
X79911027Y-23634323D01*
X79911027Y-23634323D02*
X79863408Y-23443847D01*
X79863408Y-23443847D02*
X79863408Y-23300990D01*
X79863408Y-23300990D02*
X79911027Y-23110514D01*
X79911027Y-23110514D02*
X79958646Y-23015276D01*
X79958646Y-23015276D02*
X80053884Y-22920038D01*
X80053884Y-22920038D02*
X80196741Y-22872419D01*
X80196741Y-22872419D02*
X80291979Y-22872419D01*
X80291979Y-22872419D02*
X80434836Y-22920038D01*
X80434836Y-22920038D02*
X80482455Y-22967657D01*
X82196741Y-23872419D02*
X81625313Y-23872419D01*
X81911027Y-23872419D02*
X81911027Y-22872419D01*
X81911027Y-22872419D02*
X81815789Y-23015276D01*
X81815789Y-23015276D02*
X81720551Y-23110514D01*
X81720551Y-23110514D02*
X81625313Y-23158133D01*
X83149122Y-23872419D02*
X82577694Y-23872419D01*
X82863408Y-23872419D02*
X82863408Y-22872419D01*
X82863408Y-22872419D02*
X82768170Y-23015276D01*
X82768170Y-23015276D02*
X82672932Y-23110514D01*
X82672932Y-23110514D02*
X82577694Y-23158133D01*
X83768170Y-22872419D02*
X83863408Y-22872419D01*
X83863408Y-22872419D02*
X83958646Y-22920038D01*
X83958646Y-22920038D02*
X84006265Y-22967657D01*
X84006265Y-22967657D02*
X84053884Y-23062895D01*
X84053884Y-23062895D02*
X84101503Y-23253371D01*
X84101503Y-23253371D02*
X84101503Y-23491466D01*
X84101503Y-23491466D02*
X84053884Y-23681942D01*
X84053884Y-23681942D02*
X84006265Y-23777180D01*
X84006265Y-23777180D02*
X83958646Y-23824800D01*
X83958646Y-23824800D02*
X83863408Y-23872419D01*
X83863408Y-23872419D02*
X83768170Y-23872419D01*
X83768170Y-23872419D02*
X83672932Y-23824800D01*
X83672932Y-23824800D02*
X83625313Y-23777180D01*
X83625313Y-23777180D02*
X83577694Y-23681942D01*
X83577694Y-23681942D02*
X83530075Y-23491466D01*
X83530075Y-23491466D02*
X83530075Y-23253371D01*
X83530075Y-23253371D02*
X83577694Y-23062895D01*
X83577694Y-23062895D02*
X83625313Y-22967657D01*
X83625313Y-22967657D02*
X83672932Y-22920038D01*
X83672932Y-22920038D02*
X83768170Y-22872419D01*
X84530075Y-23491466D02*
X85291980Y-23491466D01*
X85720551Y-22967657D02*
X85768170Y-22920038D01*
X85768170Y-22920038D02*
X85863408Y-22872419D01*
X85863408Y-22872419D02*
X86101503Y-22872419D01*
X86101503Y-22872419D02*
X86196741Y-22920038D01*
X86196741Y-22920038D02*
X86244360Y-22967657D01*
X86244360Y-22967657D02*
X86291979Y-23062895D01*
X86291979Y-23062895D02*
X86291979Y-23158133D01*
X86291979Y-23158133D02*
X86244360Y-23300990D01*
X86244360Y-23300990D02*
X85672932Y-23872419D01*
X85672932Y-23872419D02*
X86291979Y-23872419D01*
X86625313Y-22872419D02*
X87244360Y-22872419D01*
X87244360Y-22872419D02*
X86911027Y-23253371D01*
X86911027Y-23253371D02*
X87053884Y-23253371D01*
X87053884Y-23253371D02*
X87149122Y-23300990D01*
X87149122Y-23300990D02*
X87196741Y-23348609D01*
X87196741Y-23348609D02*
X87244360Y-23443847D01*
X87244360Y-23443847D02*
X87244360Y-23681942D01*
X87244360Y-23681942D02*
X87196741Y-23777180D01*
X87196741Y-23777180D02*
X87149122Y-23824800D01*
X87149122Y-23824800D02*
X87053884Y-23872419D01*
X87053884Y-23872419D02*
X86768170Y-23872419D01*
X86768170Y-23872419D02*
X86672932Y-23824800D01*
X86672932Y-23824800D02*
X86625313Y-23777180D01*
X87863408Y-22872419D02*
X87958646Y-22872419D01*
X87958646Y-22872419D02*
X88053884Y-22920038D01*
X88053884Y-22920038D02*
X88101503Y-22967657D01*
X88101503Y-22967657D02*
X88149122Y-23062895D01*
X88149122Y-23062895D02*
X88196741Y-23253371D01*
X88196741Y-23253371D02*
X88196741Y-23491466D01*
X88196741Y-23491466D02*
X88149122Y-23681942D01*
X88149122Y-23681942D02*
X88101503Y-23777180D01*
X88101503Y-23777180D02*
X88053884Y-23824800D01*
X88053884Y-23824800D02*
X87958646Y-23872419D01*
X87958646Y-23872419D02*
X87863408Y-23872419D01*
X87863408Y-23872419D02*
X87768170Y-23824800D01*
X87768170Y-23824800D02*
X87720551Y-23777180D01*
X87720551Y-23777180D02*
X87672932Y-23681942D01*
X87672932Y-23681942D02*
X87625313Y-23491466D01*
X87625313Y-23491466D02*
X87625313Y-23253371D01*
X87625313Y-23253371D02*
X87672932Y-23062895D01*
X87672932Y-23062895D02*
X87720551Y-22967657D01*
X87720551Y-22967657D02*
X87768170Y-22920038D01*
X87768170Y-22920038D02*
X87863408Y-22872419D01*
X88482456Y-22872419D02*
X88815789Y-23872419D01*
X88815789Y-23872419D02*
X89149122Y-22872419D01*
X90244361Y-23872419D02*
X90244361Y-22872419D01*
X90720551Y-23205752D02*
X90720551Y-23872419D01*
X90720551Y-23300990D02*
X90768170Y-23253371D01*
X90768170Y-23253371D02*
X90863408Y-23205752D01*
X90863408Y-23205752D02*
X91006265Y-23205752D01*
X91006265Y-23205752D02*
X91101503Y-23253371D01*
X91101503Y-23253371D02*
X91149122Y-23348609D01*
X91149122Y-23348609D02*
X91149122Y-23872419D01*
X92672932Y-24253371D02*
X92625313Y-24205752D01*
X92625313Y-24205752D02*
X92530075Y-24062895D01*
X92530075Y-24062895D02*
X92482456Y-23967657D01*
X92482456Y-23967657D02*
X92434837Y-23824800D01*
X92434837Y-23824800D02*
X92387218Y-23586704D01*
X92387218Y-23586704D02*
X92387218Y-23396228D01*
X92387218Y-23396228D02*
X92434837Y-23158133D01*
X92434837Y-23158133D02*
X92482456Y-23015276D01*
X92482456Y-23015276D02*
X92530075Y-22920038D01*
X92530075Y-22920038D02*
X92625313Y-22777180D01*
X92625313Y-22777180D02*
X92672932Y-22729561D01*
X93530075Y-22872419D02*
X93053885Y-22872419D01*
X93053885Y-22872419D02*
X93006266Y-23348609D01*
X93006266Y-23348609D02*
X93053885Y-23300990D01*
X93053885Y-23300990D02*
X93149123Y-23253371D01*
X93149123Y-23253371D02*
X93387218Y-23253371D01*
X93387218Y-23253371D02*
X93482456Y-23300990D01*
X93482456Y-23300990D02*
X93530075Y-23348609D01*
X93530075Y-23348609D02*
X93577694Y-23443847D01*
X93577694Y-23443847D02*
X93577694Y-23681942D01*
X93577694Y-23681942D02*
X93530075Y-23777180D01*
X93530075Y-23777180D02*
X93482456Y-23824800D01*
X93482456Y-23824800D02*
X93387218Y-23872419D01*
X93387218Y-23872419D02*
X93149123Y-23872419D01*
X93149123Y-23872419D02*
X93053885Y-23824800D01*
X93053885Y-23824800D02*
X93006266Y-23777180D01*
X94196742Y-22872419D02*
X94291980Y-22872419D01*
X94291980Y-22872419D02*
X94387218Y-22920038D01*
X94387218Y-22920038D02*
X94434837Y-22967657D01*
X94434837Y-22967657D02*
X94482456Y-23062895D01*
X94482456Y-23062895D02*
X94530075Y-23253371D01*
X94530075Y-23253371D02*
X94530075Y-23491466D01*
X94530075Y-23491466D02*
X94482456Y-23681942D01*
X94482456Y-23681942D02*
X94434837Y-23777180D01*
X94434837Y-23777180D02*
X94387218Y-23824800D01*
X94387218Y-23824800D02*
X94291980Y-23872419D01*
X94291980Y-23872419D02*
X94196742Y-23872419D01*
X94196742Y-23872419D02*
X94101504Y-23824800D01*
X94101504Y-23824800D02*
X94053885Y-23777180D01*
X94053885Y-23777180D02*
X94006266Y-23681942D01*
X94006266Y-23681942D02*
X93958647Y-23491466D01*
X93958647Y-23491466D02*
X93958647Y-23253371D01*
X93958647Y-23253371D02*
X94006266Y-23062895D01*
X94006266Y-23062895D02*
X94053885Y-22967657D01*
X94053885Y-22967657D02*
X94101504Y-22920038D01*
X94101504Y-22920038D02*
X94196742Y-22872419D01*
X95672932Y-22824800D02*
X94815790Y-24110514D01*
X96434837Y-22872419D02*
X96244361Y-22872419D01*
X96244361Y-22872419D02*
X96149123Y-22920038D01*
X96149123Y-22920038D02*
X96101504Y-22967657D01*
X96101504Y-22967657D02*
X96006266Y-23110514D01*
X96006266Y-23110514D02*
X95958647Y-23300990D01*
X95958647Y-23300990D02*
X95958647Y-23681942D01*
X95958647Y-23681942D02*
X96006266Y-23777180D01*
X96006266Y-23777180D02*
X96053885Y-23824800D01*
X96053885Y-23824800D02*
X96149123Y-23872419D01*
X96149123Y-23872419D02*
X96339599Y-23872419D01*
X96339599Y-23872419D02*
X96434837Y-23824800D01*
X96434837Y-23824800D02*
X96482456Y-23777180D01*
X96482456Y-23777180D02*
X96530075Y-23681942D01*
X96530075Y-23681942D02*
X96530075Y-23443847D01*
X96530075Y-23443847D02*
X96482456Y-23348609D01*
X96482456Y-23348609D02*
X96434837Y-23300990D01*
X96434837Y-23300990D02*
X96339599Y-23253371D01*
X96339599Y-23253371D02*
X96149123Y-23253371D01*
X96149123Y-23253371D02*
X96053885Y-23300990D01*
X96053885Y-23300990D02*
X96006266Y-23348609D01*
X96006266Y-23348609D02*
X95958647Y-23443847D01*
X97149123Y-22872419D02*
X97244361Y-22872419D01*
X97244361Y-22872419D02*
X97339599Y-22920038D01*
X97339599Y-22920038D02*
X97387218Y-22967657D01*
X97387218Y-22967657D02*
X97434837Y-23062895D01*
X97434837Y-23062895D02*
X97482456Y-23253371D01*
X97482456Y-23253371D02*
X97482456Y-23491466D01*
X97482456Y-23491466D02*
X97434837Y-23681942D01*
X97434837Y-23681942D02*
X97387218Y-23777180D01*
X97387218Y-23777180D02*
X97339599Y-23824800D01*
X97339599Y-23824800D02*
X97244361Y-23872419D01*
X97244361Y-23872419D02*
X97149123Y-23872419D01*
X97149123Y-23872419D02*
X97053885Y-23824800D01*
X97053885Y-23824800D02*
X97006266Y-23777180D01*
X97006266Y-23777180D02*
X96958647Y-23681942D01*
X96958647Y-23681942D02*
X96911028Y-23491466D01*
X96911028Y-23491466D02*
X96911028Y-23253371D01*
X96911028Y-23253371D02*
X96958647Y-23062895D01*
X96958647Y-23062895D02*
X97006266Y-22967657D01*
X97006266Y-22967657D02*
X97053885Y-22920038D01*
X97053885Y-22920038D02*
X97149123Y-22872419D01*
X97911028Y-23872419D02*
X97911028Y-22872419D01*
X97911028Y-23348609D02*
X98482456Y-23348609D01*
X98482456Y-23872419D02*
X98482456Y-22872419D01*
X98863409Y-23205752D02*
X99387218Y-23205752D01*
X99387218Y-23205752D02*
X98863409Y-23872419D01*
X98863409Y-23872419D02*
X99387218Y-23872419D01*
X99672933Y-24253371D02*
X99720552Y-24205752D01*
X99720552Y-24205752D02*
X99815790Y-24062895D01*
X99815790Y-24062895D02*
X99863409Y-23967657D01*
X99863409Y-23967657D02*
X99911028Y-23824800D01*
X99911028Y-23824800D02*
X99958647Y-23586704D01*
X99958647Y-23586704D02*
X99958647Y-23396228D01*
X99958647Y-23396228D02*
X99911028Y-23158133D01*
X99911028Y-23158133D02*
X99863409Y-23015276D01*
X99863409Y-23015276D02*
X99815790Y-22920038D01*
X99815790Y-22920038D02*
X99720552Y-22777180D01*
X99720552Y-22777180D02*
X99672933Y-22729561D01*
D12*
X76197368Y-20550828D02*
X75911653Y-20550828D01*
X75911653Y-20550828D02*
X75768796Y-20622257D01*
X75768796Y-20622257D02*
X75697368Y-20693685D01*
X75697368Y-20693685D02*
X75554510Y-20907971D01*
X75554510Y-20907971D02*
X75483082Y-21193685D01*
X75483082Y-21193685D02*
X75483082Y-21765114D01*
X75483082Y-21765114D02*
X75554510Y-21907971D01*
X75554510Y-21907971D02*
X75625939Y-21979400D01*
X75625939Y-21979400D02*
X75768796Y-22050828D01*
X75768796Y-22050828D02*
X76054510Y-22050828D01*
X76054510Y-22050828D02*
X76197368Y-21979400D01*
X76197368Y-21979400D02*
X76268796Y-21907971D01*
X76268796Y-21907971D02*
X76340225Y-21765114D01*
X76340225Y-21765114D02*
X76340225Y-21407971D01*
X76340225Y-21407971D02*
X76268796Y-21265114D01*
X76268796Y-21265114D02*
X76197368Y-21193685D01*
X76197368Y-21193685D02*
X76054510Y-21122257D01*
X76054510Y-21122257D02*
X75768796Y-21122257D01*
X75768796Y-21122257D02*
X75625939Y-21193685D01*
X75625939Y-21193685D02*
X75554510Y-21265114D01*
X75554510Y-21265114D02*
X75483082Y-21407971D01*
X77268796Y-20550828D02*
X77411653Y-20550828D01*
X77411653Y-20550828D02*
X77554510Y-20622257D01*
X77554510Y-20622257D02*
X77625939Y-20693685D01*
X77625939Y-20693685D02*
X77697367Y-20836542D01*
X77697367Y-20836542D02*
X77768796Y-21122257D01*
X77768796Y-21122257D02*
X77768796Y-21479400D01*
X77768796Y-21479400D02*
X77697367Y-21765114D01*
X77697367Y-21765114D02*
X77625939Y-21907971D01*
X77625939Y-21907971D02*
X77554510Y-21979400D01*
X77554510Y-21979400D02*
X77411653Y-22050828D01*
X77411653Y-22050828D02*
X77268796Y-22050828D01*
X77268796Y-22050828D02*
X77125939Y-21979400D01*
X77125939Y-21979400D02*
X77054510Y-21907971D01*
X77054510Y-21907971D02*
X76983081Y-21765114D01*
X76983081Y-21765114D02*
X76911653Y-21479400D01*
X76911653Y-21479400D02*
X76911653Y-21122257D01*
X76911653Y-21122257D02*
X76983081Y-20836542D01*
X76983081Y-20836542D02*
X77054510Y-20693685D01*
X77054510Y-20693685D02*
X77125939Y-20622257D01*
X77125939Y-20622257D02*
X77268796Y-20550828D01*
X78268795Y-20550828D02*
X78625938Y-22050828D01*
X78625938Y-22050828D02*
X78911652Y-20979400D01*
X78911652Y-20979400D02*
X79197367Y-22050828D01*
X79197367Y-22050828D02*
X79554510Y-20550828D01*
X81268795Y-22050828D02*
X81268795Y-20550828D01*
X81268795Y-20550828D02*
X81840224Y-20550828D01*
X81840224Y-20550828D02*
X81983081Y-20622257D01*
X81983081Y-20622257D02*
X82054510Y-20693685D01*
X82054510Y-20693685D02*
X82125938Y-20836542D01*
X82125938Y-20836542D02*
X82125938Y-21050828D01*
X82125938Y-21050828D02*
X82054510Y-21193685D01*
X82054510Y-21193685D02*
X81983081Y-21265114D01*
X81983081Y-21265114D02*
X81840224Y-21336542D01*
X81840224Y-21336542D02*
X81268795Y-21336542D01*
X82697367Y-21979400D02*
X82911653Y-22050828D01*
X82911653Y-22050828D02*
X83268795Y-22050828D01*
X83268795Y-22050828D02*
X83411653Y-21979400D01*
X83411653Y-21979400D02*
X83483081Y-21907971D01*
X83483081Y-21907971D02*
X83554510Y-21765114D01*
X83554510Y-21765114D02*
X83554510Y-21622257D01*
X83554510Y-21622257D02*
X83483081Y-21479400D01*
X83483081Y-21479400D02*
X83411653Y-21407971D01*
X83411653Y-21407971D02*
X83268795Y-21336542D01*
X83268795Y-21336542D02*
X82983081Y-21265114D01*
X82983081Y-21265114D02*
X82840224Y-21193685D01*
X82840224Y-21193685D02*
X82768795Y-21122257D01*
X82768795Y-21122257D02*
X82697367Y-20979400D01*
X82697367Y-20979400D02*
X82697367Y-20836542D01*
X82697367Y-20836542D02*
X82768795Y-20693685D01*
X82768795Y-20693685D02*
X82840224Y-20622257D01*
X82840224Y-20622257D02*
X82983081Y-20550828D01*
X82983081Y-20550828D02*
X83340224Y-20550828D01*
X83340224Y-20550828D02*
X83554510Y-20622257D01*
X84197366Y-20550828D02*
X84197366Y-21765114D01*
X84197366Y-21765114D02*
X84268795Y-21907971D01*
X84268795Y-21907971D02*
X84340224Y-21979400D01*
X84340224Y-21979400D02*
X84483081Y-22050828D01*
X84483081Y-22050828D02*
X84768795Y-22050828D01*
X84768795Y-22050828D02*
X84911652Y-21979400D01*
X84911652Y-21979400D02*
X84983081Y-21907971D01*
X84983081Y-21907971D02*
X85054509Y-21765114D01*
X85054509Y-21765114D02*
X85054509Y-20550828D01*
X86911652Y-21479400D02*
X88054510Y-21479400D01*
X89911652Y-22050828D02*
X89911652Y-20550828D01*
X89911652Y-21265114D02*
X90768795Y-21265114D01*
X90768795Y-22050828D02*
X90768795Y-20550828D01*
X91697367Y-22050828D02*
X91554510Y-21979400D01*
X91554510Y-21979400D02*
X91483081Y-21907971D01*
X91483081Y-21907971D02*
X91411653Y-21765114D01*
X91411653Y-21765114D02*
X91411653Y-21336542D01*
X91411653Y-21336542D02*
X91483081Y-21193685D01*
X91483081Y-21193685D02*
X91554510Y-21122257D01*
X91554510Y-21122257D02*
X91697367Y-21050828D01*
X91697367Y-21050828D02*
X91911653Y-21050828D01*
X91911653Y-21050828D02*
X92054510Y-21122257D01*
X92054510Y-21122257D02*
X92125939Y-21193685D01*
X92125939Y-21193685D02*
X92197367Y-21336542D01*
X92197367Y-21336542D02*
X92197367Y-21765114D01*
X92197367Y-21765114D02*
X92125939Y-21907971D01*
X92125939Y-21907971D02*
X92054510Y-21979400D01*
X92054510Y-21979400D02*
X91911653Y-22050828D01*
X91911653Y-22050828D02*
X91697367Y-22050828D01*
X92840224Y-22050828D02*
X92840224Y-20550828D01*
X92840224Y-21122257D02*
X92983082Y-21050828D01*
X92983082Y-21050828D02*
X93268796Y-21050828D01*
X93268796Y-21050828D02*
X93411653Y-21122257D01*
X93411653Y-21122257D02*
X93483082Y-21193685D01*
X93483082Y-21193685D02*
X93554510Y-21336542D01*
X93554510Y-21336542D02*
X93554510Y-21765114D01*
X93554510Y-21765114D02*
X93483082Y-21907971D01*
X93483082Y-21907971D02*
X93411653Y-21979400D01*
X93411653Y-21979400D02*
X93268796Y-22050828D01*
X93268796Y-22050828D02*
X92983082Y-22050828D01*
X92983082Y-22050828D02*
X92840224Y-21979400D01*
X94197367Y-22050828D02*
X94197367Y-20550828D01*
X94197367Y-21122257D02*
X94340225Y-21050828D01*
X94340225Y-21050828D02*
X94625939Y-21050828D01*
X94625939Y-21050828D02*
X94768796Y-21122257D01*
X94768796Y-21122257D02*
X94840225Y-21193685D01*
X94840225Y-21193685D02*
X94911653Y-21336542D01*
X94911653Y-21336542D02*
X94911653Y-21765114D01*
X94911653Y-21765114D02*
X94840225Y-21907971D01*
X94840225Y-21907971D02*
X94768796Y-21979400D01*
X94768796Y-21979400D02*
X94625939Y-22050828D01*
X94625939Y-22050828D02*
X94340225Y-22050828D01*
X94340225Y-22050828D02*
X94197367Y-21979400D01*
X95411653Y-21050828D02*
X95768796Y-22050828D01*
X96125939Y-21050828D02*
X95768796Y-22050828D01*
X95768796Y-22050828D02*
X95625939Y-22407971D01*
X95625939Y-22407971D02*
X95554510Y-22479400D01*
X95554510Y-22479400D02*
X95411653Y-22550828D01*
X97840224Y-22050828D02*
X97840224Y-20550828D01*
X97840224Y-20550828D02*
X98197367Y-20550828D01*
X98197367Y-20550828D02*
X98411653Y-20622257D01*
X98411653Y-20622257D02*
X98554510Y-20765114D01*
X98554510Y-20765114D02*
X98625939Y-20907971D01*
X98625939Y-20907971D02*
X98697367Y-21193685D01*
X98697367Y-21193685D02*
X98697367Y-21407971D01*
X98697367Y-21407971D02*
X98625939Y-21693685D01*
X98625939Y-21693685D02*
X98554510Y-21836542D01*
X98554510Y-21836542D02*
X98411653Y-21979400D01*
X98411653Y-21979400D02*
X98197367Y-22050828D01*
X98197367Y-22050828D02*
X97840224Y-22050828D01*
X99911653Y-21979400D02*
X99768796Y-22050828D01*
X99768796Y-22050828D02*
X99483082Y-22050828D01*
X99483082Y-22050828D02*
X99340224Y-21979400D01*
X99340224Y-21979400D02*
X99268796Y-21836542D01*
X99268796Y-21836542D02*
X99268796Y-21265114D01*
X99268796Y-21265114D02*
X99340224Y-21122257D01*
X99340224Y-21122257D02*
X99483082Y-21050828D01*
X99483082Y-21050828D02*
X99768796Y-21050828D01*
X99768796Y-21050828D02*
X99911653Y-21122257D01*
X99911653Y-21122257D02*
X99983082Y-21265114D01*
X99983082Y-21265114D02*
X99983082Y-21407971D01*
X99983082Y-21407971D02*
X99268796Y-21550828D01*
X100554510Y-21979400D02*
X100697367Y-22050828D01*
X100697367Y-22050828D02*
X100983081Y-22050828D01*
X100983081Y-22050828D02*
X101125938Y-21979400D01*
X101125938Y-21979400D02*
X101197367Y-21836542D01*
X101197367Y-21836542D02*
X101197367Y-21765114D01*
X101197367Y-21765114D02*
X101125938Y-21622257D01*
X101125938Y-21622257D02*
X100983081Y-21550828D01*
X100983081Y-21550828D02*
X100768796Y-21550828D01*
X100768796Y-21550828D02*
X100625938Y-21479400D01*
X100625938Y-21479400D02*
X100554510Y-21336542D01*
X100554510Y-21336542D02*
X100554510Y-21265114D01*
X100554510Y-21265114D02*
X100625938Y-21122257D01*
X100625938Y-21122257D02*
X100768796Y-21050828D01*
X100768796Y-21050828D02*
X100983081Y-21050828D01*
X100983081Y-21050828D02*
X101125938Y-21122257D01*
X101840224Y-22050828D02*
X101840224Y-21050828D01*
X101840224Y-20550828D02*
X101768796Y-20622257D01*
X101768796Y-20622257D02*
X101840224Y-20693685D01*
X101840224Y-20693685D02*
X101911653Y-20622257D01*
X101911653Y-20622257D02*
X101840224Y-20550828D01*
X101840224Y-20550828D02*
X101840224Y-20693685D01*
X103197368Y-21050828D02*
X103197368Y-22265114D01*
X103197368Y-22265114D02*
X103125939Y-22407971D01*
X103125939Y-22407971D02*
X103054510Y-22479400D01*
X103054510Y-22479400D02*
X102911653Y-22550828D01*
X102911653Y-22550828D02*
X102697368Y-22550828D01*
X102697368Y-22550828D02*
X102554510Y-22479400D01*
X103197368Y-21979400D02*
X103054510Y-22050828D01*
X103054510Y-22050828D02*
X102768796Y-22050828D01*
X102768796Y-22050828D02*
X102625939Y-21979400D01*
X102625939Y-21979400D02*
X102554510Y-21907971D01*
X102554510Y-21907971D02*
X102483082Y-21765114D01*
X102483082Y-21765114D02*
X102483082Y-21336542D01*
X102483082Y-21336542D02*
X102554510Y-21193685D01*
X102554510Y-21193685D02*
X102625939Y-21122257D01*
X102625939Y-21122257D02*
X102768796Y-21050828D01*
X102768796Y-21050828D02*
X103054510Y-21050828D01*
X103054510Y-21050828D02*
X103197368Y-21122257D01*
X103911653Y-21050828D02*
X103911653Y-22050828D01*
X103911653Y-21193685D02*
X103983082Y-21122257D01*
X103983082Y-21122257D02*
X104125939Y-21050828D01*
X104125939Y-21050828D02*
X104340225Y-21050828D01*
X104340225Y-21050828D02*
X104483082Y-21122257D01*
X104483082Y-21122257D02*
X104554511Y-21265114D01*
X104554511Y-21265114D02*
X104554511Y-22050828D01*
D13*
X159238095Y-89304819D02*
X159238095Y-88304819D01*
X159238095Y-88781009D02*
X159809523Y-88781009D01*
X159809523Y-89304819D02*
X159809523Y-88304819D01*
X160714285Y-88638152D02*
X160714285Y-89304819D01*
X160476190Y-88257200D02*
X160238095Y-88971485D01*
X160238095Y-88971485D02*
X160857142Y-88971485D01*
X159238095Y-17304819D02*
X159238095Y-16304819D01*
X159238095Y-16781009D02*
X159809523Y-16781009D01*
X159809523Y-17304819D02*
X159809523Y-16304819D01*
X160190476Y-16304819D02*
X160809523Y-16304819D01*
X160809523Y-16304819D02*
X160476190Y-16685771D01*
X160476190Y-16685771D02*
X160619047Y-16685771D01*
X160619047Y-16685771D02*
X160714285Y-16733390D01*
X160714285Y-16733390D02*
X160761904Y-16781009D01*
X160761904Y-16781009D02*
X160809523Y-16876247D01*
X160809523Y-16876247D02*
X160809523Y-17114342D01*
X160809523Y-17114342D02*
X160761904Y-17209580D01*
X160761904Y-17209580D02*
X160714285Y-17257200D01*
X160714285Y-17257200D02*
X160619047Y-17304819D01*
X160619047Y-17304819D02*
X160333333Y-17304819D01*
X160333333Y-17304819D02*
X160238095Y-17257200D01*
X160238095Y-17257200D02*
X160190476Y-17209580D01*
X16238095Y-89304819D02*
X16238095Y-88304819D01*
X16238095Y-88781009D02*
X16809523Y-88781009D01*
X16809523Y-89304819D02*
X16809523Y-88304819D01*
X17238095Y-88400057D02*
X17285714Y-88352438D01*
X17285714Y-88352438D02*
X17380952Y-88304819D01*
X17380952Y-88304819D02*
X17619047Y-88304819D01*
X17619047Y-88304819D02*
X17714285Y-88352438D01*
X17714285Y-88352438D02*
X17761904Y-88400057D01*
X17761904Y-88400057D02*
X17809523Y-88495295D01*
X17809523Y-88495295D02*
X17809523Y-88590533D01*
X17809523Y-88590533D02*
X17761904Y-88733390D01*
X17761904Y-88733390D02*
X17190476Y-89304819D01*
X17190476Y-89304819D02*
X17809523Y-89304819D01*
X16238095Y-17304819D02*
X16238095Y-16304819D01*
X16238095Y-16781009D02*
X16809523Y-16781009D01*
X16809523Y-17304819D02*
X16809523Y-16304819D01*
X17809523Y-17304819D02*
X17238095Y-17304819D01*
X17523809Y-17304819D02*
X17523809Y-16304819D01*
X17523809Y-16304819D02*
X17428571Y-16447676D01*
X17428571Y-16447676D02*
X17333333Y-16542914D01*
X17333333Y-16542914D02*
X17238095Y-16590533D01*
X151379166Y-61429819D02*
X151379166Y-62144104D01*
X151379166Y-62144104D02*
X151331547Y-62286961D01*
X151331547Y-62286961D02*
X151236309Y-62382200D01*
X151236309Y-62382200D02*
X151093452Y-62429819D01*
X151093452Y-62429819D02*
X150998214Y-62429819D01*
X151760119Y-61429819D02*
X152379166Y-61429819D01*
X152379166Y-61429819D02*
X152045833Y-61810771D01*
X152045833Y-61810771D02*
X152188690Y-61810771D01*
X152188690Y-61810771D02*
X152283928Y-61858390D01*
X152283928Y-61858390D02*
X152331547Y-61906009D01*
X152331547Y-61906009D02*
X152379166Y-62001247D01*
X152379166Y-62001247D02*
X152379166Y-62239342D01*
X152379166Y-62239342D02*
X152331547Y-62334580D01*
X152331547Y-62334580D02*
X152283928Y-62382200D01*
X152283928Y-62382200D02*
X152188690Y-62429819D01*
X152188690Y-62429819D02*
X151902976Y-62429819D01*
X151902976Y-62429819D02*
X151807738Y-62382200D01*
X151807738Y-62382200D02*
X151760119Y-62334580D01*
X111602380Y-45931819D02*
X111269047Y-45455628D01*
X111030952Y-45931819D02*
X111030952Y-44931819D01*
X111030952Y-44931819D02*
X111411904Y-44931819D01*
X111411904Y-44931819D02*
X111507142Y-44979438D01*
X111507142Y-44979438D02*
X111554761Y-45027057D01*
X111554761Y-45027057D02*
X111602380Y-45122295D01*
X111602380Y-45122295D02*
X111602380Y-45265152D01*
X111602380Y-45265152D02*
X111554761Y-45360390D01*
X111554761Y-45360390D02*
X111507142Y-45408009D01*
X111507142Y-45408009D02*
X111411904Y-45455628D01*
X111411904Y-45455628D02*
X111030952Y-45455628D01*
X111888095Y-44931819D02*
X112459523Y-44931819D01*
X112173809Y-45931819D02*
X112173809Y-44931819D01*
X113316666Y-45931819D02*
X112745238Y-45931819D01*
X113030952Y-45931819D02*
X113030952Y-44931819D01*
X113030952Y-44931819D02*
X112935714Y-45074676D01*
X112935714Y-45074676D02*
X112840476Y-45169914D01*
X112840476Y-45169914D02*
X112745238Y-45217533D01*
X143327380Y-73677819D02*
X142994047Y-73201628D01*
X142755952Y-73677819D02*
X142755952Y-72677819D01*
X142755952Y-72677819D02*
X143136904Y-72677819D01*
X143136904Y-72677819D02*
X143232142Y-72725438D01*
X143232142Y-72725438D02*
X143279761Y-72773057D01*
X143279761Y-72773057D02*
X143327380Y-72868295D01*
X143327380Y-72868295D02*
X143327380Y-73011152D01*
X143327380Y-73011152D02*
X143279761Y-73106390D01*
X143279761Y-73106390D02*
X143232142Y-73154009D01*
X143232142Y-73154009D02*
X143136904Y-73201628D01*
X143136904Y-73201628D02*
X142755952Y-73201628D01*
X143613095Y-72677819D02*
X144184523Y-72677819D01*
X143898809Y-73677819D02*
X143898809Y-72677819D01*
X144470238Y-72773057D02*
X144517857Y-72725438D01*
X144517857Y-72725438D02*
X144613095Y-72677819D01*
X144613095Y-72677819D02*
X144851190Y-72677819D01*
X144851190Y-72677819D02*
X144946428Y-72725438D01*
X144946428Y-72725438D02*
X144994047Y-72773057D01*
X144994047Y-72773057D02*
X145041666Y-72868295D01*
X145041666Y-72868295D02*
X145041666Y-72963533D01*
X145041666Y-72963533D02*
X144994047Y-73106390D01*
X144994047Y-73106390D02*
X144422619Y-73677819D01*
X144422619Y-73677819D02*
X145041666Y-73677819D01*
X118674819Y-46141666D02*
X118198628Y-46474999D01*
X118674819Y-46713094D02*
X117674819Y-46713094D01*
X117674819Y-46713094D02*
X117674819Y-46332142D01*
X117674819Y-46332142D02*
X117722438Y-46236904D01*
X117722438Y-46236904D02*
X117770057Y-46189285D01*
X117770057Y-46189285D02*
X117865295Y-46141666D01*
X117865295Y-46141666D02*
X118008152Y-46141666D01*
X118008152Y-46141666D02*
X118103390Y-46189285D01*
X118103390Y-46189285D02*
X118151009Y-46236904D01*
X118151009Y-46236904D02*
X118198628Y-46332142D01*
X118198628Y-46332142D02*
X118198628Y-46713094D01*
X117674819Y-45808332D02*
X117674819Y-45141666D01*
X117674819Y-45141666D02*
X118674819Y-45570237D01*
X127983333Y-52679819D02*
X127650000Y-52203628D01*
X127411905Y-52679819D02*
X127411905Y-51679819D01*
X127411905Y-51679819D02*
X127792857Y-51679819D01*
X127792857Y-51679819D02*
X127888095Y-51727438D01*
X127888095Y-51727438D02*
X127935714Y-51775057D01*
X127935714Y-51775057D02*
X127983333Y-51870295D01*
X127983333Y-51870295D02*
X127983333Y-52013152D01*
X127983333Y-52013152D02*
X127935714Y-52108390D01*
X127935714Y-52108390D02*
X127888095Y-52156009D01*
X127888095Y-52156009D02*
X127792857Y-52203628D01*
X127792857Y-52203628D02*
X127411905Y-52203628D01*
X128364286Y-51775057D02*
X128411905Y-51727438D01*
X128411905Y-51727438D02*
X128507143Y-51679819D01*
X128507143Y-51679819D02*
X128745238Y-51679819D01*
X128745238Y-51679819D02*
X128840476Y-51727438D01*
X128840476Y-51727438D02*
X128888095Y-51775057D01*
X128888095Y-51775057D02*
X128935714Y-51870295D01*
X128935714Y-51870295D02*
X128935714Y-51965533D01*
X128935714Y-51965533D02*
X128888095Y-52108390D01*
X128888095Y-52108390D02*
X128316667Y-52679819D01*
X128316667Y-52679819D02*
X128935714Y-52679819D01*
X127232142Y-66929819D02*
X126898809Y-66453628D01*
X126660714Y-66929819D02*
X126660714Y-65929819D01*
X126660714Y-65929819D02*
X127041666Y-65929819D01*
X127041666Y-65929819D02*
X127136904Y-65977438D01*
X127136904Y-65977438D02*
X127184523Y-66025057D01*
X127184523Y-66025057D02*
X127232142Y-66120295D01*
X127232142Y-66120295D02*
X127232142Y-66263152D01*
X127232142Y-66263152D02*
X127184523Y-66358390D01*
X127184523Y-66358390D02*
X127136904Y-66406009D01*
X127136904Y-66406009D02*
X127041666Y-66453628D01*
X127041666Y-66453628D02*
X126660714Y-66453628D01*
X128184523Y-66929819D02*
X127613095Y-66929819D01*
X127898809Y-66929819D02*
X127898809Y-65929819D01*
X127898809Y-65929819D02*
X127803571Y-66072676D01*
X127803571Y-66072676D02*
X127708333Y-66167914D01*
X127708333Y-66167914D02*
X127613095Y-66215533D01*
X129089285Y-65929819D02*
X128613095Y-65929819D01*
X128613095Y-65929819D02*
X128565476Y-66406009D01*
X128565476Y-66406009D02*
X128613095Y-66358390D01*
X128613095Y-66358390D02*
X128708333Y-66310771D01*
X128708333Y-66310771D02*
X128946428Y-66310771D01*
X128946428Y-66310771D02*
X129041666Y-66358390D01*
X129041666Y-66358390D02*
X129089285Y-66406009D01*
X129089285Y-66406009D02*
X129136904Y-66501247D01*
X129136904Y-66501247D02*
X129136904Y-66739342D01*
X129136904Y-66739342D02*
X129089285Y-66834580D01*
X129089285Y-66834580D02*
X129041666Y-66882200D01*
X129041666Y-66882200D02*
X128946428Y-66929819D01*
X128946428Y-66929819D02*
X128708333Y-66929819D01*
X128708333Y-66929819D02*
X128613095Y-66882200D01*
X128613095Y-66882200D02*
X128565476Y-66834580D01*
X133579819Y-73367857D02*
X133103628Y-73701190D01*
X133579819Y-73939285D02*
X132579819Y-73939285D01*
X132579819Y-73939285D02*
X132579819Y-73558333D01*
X132579819Y-73558333D02*
X132627438Y-73463095D01*
X132627438Y-73463095D02*
X132675057Y-73415476D01*
X132675057Y-73415476D02*
X132770295Y-73367857D01*
X132770295Y-73367857D02*
X132913152Y-73367857D01*
X132913152Y-73367857D02*
X133008390Y-73415476D01*
X133008390Y-73415476D02*
X133056009Y-73463095D01*
X133056009Y-73463095D02*
X133103628Y-73558333D01*
X133103628Y-73558333D02*
X133103628Y-73939285D01*
X132675057Y-72986904D02*
X132627438Y-72939285D01*
X132627438Y-72939285D02*
X132579819Y-72844047D01*
X132579819Y-72844047D02*
X132579819Y-72605952D01*
X132579819Y-72605952D02*
X132627438Y-72510714D01*
X132627438Y-72510714D02*
X132675057Y-72463095D01*
X132675057Y-72463095D02*
X132770295Y-72415476D01*
X132770295Y-72415476D02*
X132865533Y-72415476D01*
X132865533Y-72415476D02*
X133008390Y-72463095D01*
X133008390Y-72463095D02*
X133579819Y-73034523D01*
X133579819Y-73034523D02*
X133579819Y-72415476D01*
X132579819Y-71796428D02*
X132579819Y-71701190D01*
X132579819Y-71701190D02*
X132627438Y-71605952D01*
X132627438Y-71605952D02*
X132675057Y-71558333D01*
X132675057Y-71558333D02*
X132770295Y-71510714D01*
X132770295Y-71510714D02*
X132960771Y-71463095D01*
X132960771Y-71463095D02*
X133198866Y-71463095D01*
X133198866Y-71463095D02*
X133389342Y-71510714D01*
X133389342Y-71510714D02*
X133484580Y-71558333D01*
X133484580Y-71558333D02*
X133532200Y-71605952D01*
X133532200Y-71605952D02*
X133579819Y-71701190D01*
X133579819Y-71701190D02*
X133579819Y-71796428D01*
X133579819Y-71796428D02*
X133532200Y-71891666D01*
X133532200Y-71891666D02*
X133484580Y-71939285D01*
X133484580Y-71939285D02*
X133389342Y-71986904D01*
X133389342Y-71986904D02*
X133198866Y-72034523D01*
X133198866Y-72034523D02*
X132960771Y-72034523D01*
X132960771Y-72034523D02*
X132770295Y-71986904D01*
X132770295Y-71986904D02*
X132675057Y-71939285D01*
X132675057Y-71939285D02*
X132627438Y-71891666D01*
X132627438Y-71891666D02*
X132579819Y-71796428D01*
X116507142Y-53929819D02*
X116173809Y-53453628D01*
X115935714Y-53929819D02*
X115935714Y-52929819D01*
X115935714Y-52929819D02*
X116316666Y-52929819D01*
X116316666Y-52929819D02*
X116411904Y-52977438D01*
X116411904Y-52977438D02*
X116459523Y-53025057D01*
X116459523Y-53025057D02*
X116507142Y-53120295D01*
X116507142Y-53120295D02*
X116507142Y-53263152D01*
X116507142Y-53263152D02*
X116459523Y-53358390D01*
X116459523Y-53358390D02*
X116411904Y-53406009D01*
X116411904Y-53406009D02*
X116316666Y-53453628D01*
X116316666Y-53453628D02*
X115935714Y-53453628D01*
X117459523Y-53929819D02*
X116888095Y-53929819D01*
X117173809Y-53929819D02*
X117173809Y-52929819D01*
X117173809Y-52929819D02*
X117078571Y-53072676D01*
X117078571Y-53072676D02*
X116983333Y-53167914D01*
X116983333Y-53167914D02*
X116888095Y-53215533D01*
X117792857Y-52929819D02*
X118411904Y-52929819D01*
X118411904Y-52929819D02*
X118078571Y-53310771D01*
X118078571Y-53310771D02*
X118221428Y-53310771D01*
X118221428Y-53310771D02*
X118316666Y-53358390D01*
X118316666Y-53358390D02*
X118364285Y-53406009D01*
X118364285Y-53406009D02*
X118411904Y-53501247D01*
X118411904Y-53501247D02*
X118411904Y-53739342D01*
X118411904Y-53739342D02*
X118364285Y-53834580D01*
X118364285Y-53834580D02*
X118316666Y-53882200D01*
X118316666Y-53882200D02*
X118221428Y-53929819D01*
X118221428Y-53929819D02*
X117935714Y-53929819D01*
X117935714Y-53929819D02*
X117840476Y-53882200D01*
X117840476Y-53882200D02*
X117792857Y-53834580D01*
X138757142Y-47429819D02*
X138423809Y-46953628D01*
X138185714Y-47429819D02*
X138185714Y-46429819D01*
X138185714Y-46429819D02*
X138566666Y-46429819D01*
X138566666Y-46429819D02*
X138661904Y-46477438D01*
X138661904Y-46477438D02*
X138709523Y-46525057D01*
X138709523Y-46525057D02*
X138757142Y-46620295D01*
X138757142Y-46620295D02*
X138757142Y-46763152D01*
X138757142Y-46763152D02*
X138709523Y-46858390D01*
X138709523Y-46858390D02*
X138661904Y-46906009D01*
X138661904Y-46906009D02*
X138566666Y-46953628D01*
X138566666Y-46953628D02*
X138185714Y-46953628D01*
X139709523Y-47429819D02*
X139138095Y-47429819D01*
X139423809Y-47429819D02*
X139423809Y-46429819D01*
X139423809Y-46429819D02*
X139328571Y-46572676D01*
X139328571Y-46572676D02*
X139233333Y-46667914D01*
X139233333Y-46667914D02*
X139138095Y-46715533D01*
X140090476Y-46525057D02*
X140138095Y-46477438D01*
X140138095Y-46477438D02*
X140233333Y-46429819D01*
X140233333Y-46429819D02*
X140471428Y-46429819D01*
X140471428Y-46429819D02*
X140566666Y-46477438D01*
X140566666Y-46477438D02*
X140614285Y-46525057D01*
X140614285Y-46525057D02*
X140661904Y-46620295D01*
X140661904Y-46620295D02*
X140661904Y-46715533D01*
X140661904Y-46715533D02*
X140614285Y-46858390D01*
X140614285Y-46858390D02*
X140042857Y-47429819D01*
X140042857Y-47429819D02*
X140661904Y-47429819D01*
X112007142Y-50929819D02*
X111673809Y-50453628D01*
X111435714Y-50929819D02*
X111435714Y-49929819D01*
X111435714Y-49929819D02*
X111816666Y-49929819D01*
X111816666Y-49929819D02*
X111911904Y-49977438D01*
X111911904Y-49977438D02*
X111959523Y-50025057D01*
X111959523Y-50025057D02*
X112007142Y-50120295D01*
X112007142Y-50120295D02*
X112007142Y-50263152D01*
X112007142Y-50263152D02*
X111959523Y-50358390D01*
X111959523Y-50358390D02*
X111911904Y-50406009D01*
X111911904Y-50406009D02*
X111816666Y-50453628D01*
X111816666Y-50453628D02*
X111435714Y-50453628D01*
X112959523Y-50929819D02*
X112388095Y-50929819D01*
X112673809Y-50929819D02*
X112673809Y-49929819D01*
X112673809Y-49929819D02*
X112578571Y-50072676D01*
X112578571Y-50072676D02*
X112483333Y-50167914D01*
X112483333Y-50167914D02*
X112388095Y-50215533D01*
X113911904Y-50929819D02*
X113340476Y-50929819D01*
X113626190Y-50929819D02*
X113626190Y-49929819D01*
X113626190Y-49929819D02*
X113530952Y-50072676D01*
X113530952Y-50072676D02*
X113435714Y-50167914D01*
X113435714Y-50167914D02*
X113340476Y-50215533D01*
X115007142Y-47429819D02*
X114673809Y-46953628D01*
X114435714Y-47429819D02*
X114435714Y-46429819D01*
X114435714Y-46429819D02*
X114816666Y-46429819D01*
X114816666Y-46429819D02*
X114911904Y-46477438D01*
X114911904Y-46477438D02*
X114959523Y-46525057D01*
X114959523Y-46525057D02*
X115007142Y-46620295D01*
X115007142Y-46620295D02*
X115007142Y-46763152D01*
X115007142Y-46763152D02*
X114959523Y-46858390D01*
X114959523Y-46858390D02*
X114911904Y-46906009D01*
X114911904Y-46906009D02*
X114816666Y-46953628D01*
X114816666Y-46953628D02*
X114435714Y-46953628D01*
X115959523Y-47429819D02*
X115388095Y-47429819D01*
X115673809Y-47429819D02*
X115673809Y-46429819D01*
X115673809Y-46429819D02*
X115578571Y-46572676D01*
X115578571Y-46572676D02*
X115483333Y-46667914D01*
X115483333Y-46667914D02*
X115388095Y-46715533D01*
X116578571Y-46429819D02*
X116673809Y-46429819D01*
X116673809Y-46429819D02*
X116769047Y-46477438D01*
X116769047Y-46477438D02*
X116816666Y-46525057D01*
X116816666Y-46525057D02*
X116864285Y-46620295D01*
X116864285Y-46620295D02*
X116911904Y-46810771D01*
X116911904Y-46810771D02*
X116911904Y-47048866D01*
X116911904Y-47048866D02*
X116864285Y-47239342D01*
X116864285Y-47239342D02*
X116816666Y-47334580D01*
X116816666Y-47334580D02*
X116769047Y-47382200D01*
X116769047Y-47382200D02*
X116673809Y-47429819D01*
X116673809Y-47429819D02*
X116578571Y-47429819D01*
X116578571Y-47429819D02*
X116483333Y-47382200D01*
X116483333Y-47382200D02*
X116435714Y-47334580D01*
X116435714Y-47334580D02*
X116388095Y-47239342D01*
X116388095Y-47239342D02*
X116340476Y-47048866D01*
X116340476Y-47048866D02*
X116340476Y-46810771D01*
X116340476Y-46810771D02*
X116388095Y-46620295D01*
X116388095Y-46620295D02*
X116435714Y-46525057D01*
X116435714Y-46525057D02*
X116483333Y-46477438D01*
X116483333Y-46477438D02*
X116578571Y-46429819D01*
X135983333Y-45749819D02*
X135650000Y-45273628D01*
X135411905Y-45749819D02*
X135411905Y-44749819D01*
X135411905Y-44749819D02*
X135792857Y-44749819D01*
X135792857Y-44749819D02*
X135888095Y-44797438D01*
X135888095Y-44797438D02*
X135935714Y-44845057D01*
X135935714Y-44845057D02*
X135983333Y-44940295D01*
X135983333Y-44940295D02*
X135983333Y-45083152D01*
X135983333Y-45083152D02*
X135935714Y-45178390D01*
X135935714Y-45178390D02*
X135888095Y-45226009D01*
X135888095Y-45226009D02*
X135792857Y-45273628D01*
X135792857Y-45273628D02*
X135411905Y-45273628D01*
X136459524Y-45749819D02*
X136650000Y-45749819D01*
X136650000Y-45749819D02*
X136745238Y-45702200D01*
X136745238Y-45702200D02*
X136792857Y-45654580D01*
X136792857Y-45654580D02*
X136888095Y-45511723D01*
X136888095Y-45511723D02*
X136935714Y-45321247D01*
X136935714Y-45321247D02*
X136935714Y-44940295D01*
X136935714Y-44940295D02*
X136888095Y-44845057D01*
X136888095Y-44845057D02*
X136840476Y-44797438D01*
X136840476Y-44797438D02*
X136745238Y-44749819D01*
X136745238Y-44749819D02*
X136554762Y-44749819D01*
X136554762Y-44749819D02*
X136459524Y-44797438D01*
X136459524Y-44797438D02*
X136411905Y-44845057D01*
X136411905Y-44845057D02*
X136364286Y-44940295D01*
X136364286Y-44940295D02*
X136364286Y-45178390D01*
X136364286Y-45178390D02*
X136411905Y-45273628D01*
X136411905Y-45273628D02*
X136459524Y-45321247D01*
X136459524Y-45321247D02*
X136554762Y-45368866D01*
X136554762Y-45368866D02*
X136745238Y-45368866D01*
X136745238Y-45368866D02*
X136840476Y-45321247D01*
X136840476Y-45321247D02*
X136888095Y-45273628D01*
X136888095Y-45273628D02*
X136935714Y-45178390D01*
X123354819Y-46141666D02*
X122878628Y-46474999D01*
X123354819Y-46713094D02*
X122354819Y-46713094D01*
X122354819Y-46713094D02*
X122354819Y-46332142D01*
X122354819Y-46332142D02*
X122402438Y-46236904D01*
X122402438Y-46236904D02*
X122450057Y-46189285D01*
X122450057Y-46189285D02*
X122545295Y-46141666D01*
X122545295Y-46141666D02*
X122688152Y-46141666D01*
X122688152Y-46141666D02*
X122783390Y-46189285D01*
X122783390Y-46189285D02*
X122831009Y-46236904D01*
X122831009Y-46236904D02*
X122878628Y-46332142D01*
X122878628Y-46332142D02*
X122878628Y-46713094D01*
X122783390Y-45570237D02*
X122735771Y-45665475D01*
X122735771Y-45665475D02*
X122688152Y-45713094D01*
X122688152Y-45713094D02*
X122592914Y-45760713D01*
X122592914Y-45760713D02*
X122545295Y-45760713D01*
X122545295Y-45760713D02*
X122450057Y-45713094D01*
X122450057Y-45713094D02*
X122402438Y-45665475D01*
X122402438Y-45665475D02*
X122354819Y-45570237D01*
X122354819Y-45570237D02*
X122354819Y-45379761D01*
X122354819Y-45379761D02*
X122402438Y-45284523D01*
X122402438Y-45284523D02*
X122450057Y-45236904D01*
X122450057Y-45236904D02*
X122545295Y-45189285D01*
X122545295Y-45189285D02*
X122592914Y-45189285D01*
X122592914Y-45189285D02*
X122688152Y-45236904D01*
X122688152Y-45236904D02*
X122735771Y-45284523D01*
X122735771Y-45284523D02*
X122783390Y-45379761D01*
X122783390Y-45379761D02*
X122783390Y-45570237D01*
X122783390Y-45570237D02*
X122831009Y-45665475D01*
X122831009Y-45665475D02*
X122878628Y-45713094D01*
X122878628Y-45713094D02*
X122973866Y-45760713D01*
X122973866Y-45760713D02*
X123164342Y-45760713D01*
X123164342Y-45760713D02*
X123259580Y-45713094D01*
X123259580Y-45713094D02*
X123307200Y-45665475D01*
X123307200Y-45665475D02*
X123354819Y-45570237D01*
X123354819Y-45570237D02*
X123354819Y-45379761D01*
X123354819Y-45379761D02*
X123307200Y-45284523D01*
X123307200Y-45284523D02*
X123259580Y-45236904D01*
X123259580Y-45236904D02*
X123164342Y-45189285D01*
X123164342Y-45189285D02*
X122973866Y-45189285D01*
X122973866Y-45189285D02*
X122878628Y-45236904D01*
X122878628Y-45236904D02*
X122831009Y-45284523D01*
X122831009Y-45284523D02*
X122783390Y-45379761D01*
X118604819Y-57391666D02*
X118128628Y-57724999D01*
X118604819Y-57963094D02*
X117604819Y-57963094D01*
X117604819Y-57963094D02*
X117604819Y-57582142D01*
X117604819Y-57582142D02*
X117652438Y-57486904D01*
X117652438Y-57486904D02*
X117700057Y-57439285D01*
X117700057Y-57439285D02*
X117795295Y-57391666D01*
X117795295Y-57391666D02*
X117938152Y-57391666D01*
X117938152Y-57391666D02*
X118033390Y-57439285D01*
X118033390Y-57439285D02*
X118081009Y-57486904D01*
X118081009Y-57486904D02*
X118128628Y-57582142D01*
X118128628Y-57582142D02*
X118128628Y-57963094D01*
X117604819Y-56534523D02*
X117604819Y-56724999D01*
X117604819Y-56724999D02*
X117652438Y-56820237D01*
X117652438Y-56820237D02*
X117700057Y-56867856D01*
X117700057Y-56867856D02*
X117842914Y-56963094D01*
X117842914Y-56963094D02*
X118033390Y-57010713D01*
X118033390Y-57010713D02*
X118414342Y-57010713D01*
X118414342Y-57010713D02*
X118509580Y-56963094D01*
X118509580Y-56963094D02*
X118557200Y-56915475D01*
X118557200Y-56915475D02*
X118604819Y-56820237D01*
X118604819Y-56820237D02*
X118604819Y-56629761D01*
X118604819Y-56629761D02*
X118557200Y-56534523D01*
X118557200Y-56534523D02*
X118509580Y-56486904D01*
X118509580Y-56486904D02*
X118414342Y-56439285D01*
X118414342Y-56439285D02*
X118176247Y-56439285D01*
X118176247Y-56439285D02*
X118081009Y-56486904D01*
X118081009Y-56486904D02*
X118033390Y-56534523D01*
X118033390Y-56534523D02*
X117985771Y-56629761D01*
X117985771Y-56629761D02*
X117985771Y-56820237D01*
X117985771Y-56820237D02*
X118033390Y-56915475D01*
X118033390Y-56915475D02*
X118081009Y-56963094D01*
X118081009Y-56963094D02*
X118176247Y-57010713D01*
X121854819Y-59891666D02*
X121378628Y-60224999D01*
X121854819Y-60463094D02*
X120854819Y-60463094D01*
X120854819Y-60463094D02*
X120854819Y-60082142D01*
X120854819Y-60082142D02*
X120902438Y-59986904D01*
X120902438Y-59986904D02*
X120950057Y-59939285D01*
X120950057Y-59939285D02*
X121045295Y-59891666D01*
X121045295Y-59891666D02*
X121188152Y-59891666D01*
X121188152Y-59891666D02*
X121283390Y-59939285D01*
X121283390Y-59939285D02*
X121331009Y-59986904D01*
X121331009Y-59986904D02*
X121378628Y-60082142D01*
X121378628Y-60082142D02*
X121378628Y-60463094D01*
X120854819Y-58986904D02*
X120854819Y-59463094D01*
X120854819Y-59463094D02*
X121331009Y-59510713D01*
X121331009Y-59510713D02*
X121283390Y-59463094D01*
X121283390Y-59463094D02*
X121235771Y-59367856D01*
X121235771Y-59367856D02*
X121235771Y-59129761D01*
X121235771Y-59129761D02*
X121283390Y-59034523D01*
X121283390Y-59034523D02*
X121331009Y-58986904D01*
X121331009Y-58986904D02*
X121426247Y-58939285D01*
X121426247Y-58939285D02*
X121664342Y-58939285D01*
X121664342Y-58939285D02*
X121759580Y-58986904D01*
X121759580Y-58986904D02*
X121807200Y-59034523D01*
X121807200Y-59034523D02*
X121854819Y-59129761D01*
X121854819Y-59129761D02*
X121854819Y-59367856D01*
X121854819Y-59367856D02*
X121807200Y-59463094D01*
X121807200Y-59463094D02*
X121759580Y-59510713D01*
X127983333Y-54429819D02*
X127650000Y-53953628D01*
X127411905Y-54429819D02*
X127411905Y-53429819D01*
X127411905Y-53429819D02*
X127792857Y-53429819D01*
X127792857Y-53429819D02*
X127888095Y-53477438D01*
X127888095Y-53477438D02*
X127935714Y-53525057D01*
X127935714Y-53525057D02*
X127983333Y-53620295D01*
X127983333Y-53620295D02*
X127983333Y-53763152D01*
X127983333Y-53763152D02*
X127935714Y-53858390D01*
X127935714Y-53858390D02*
X127888095Y-53906009D01*
X127888095Y-53906009D02*
X127792857Y-53953628D01*
X127792857Y-53953628D02*
X127411905Y-53953628D01*
X128840476Y-53763152D02*
X128840476Y-54429819D01*
X128602381Y-53382200D02*
X128364286Y-54096485D01*
X128364286Y-54096485D02*
X128983333Y-54096485D01*
X127983333Y-56179819D02*
X127650000Y-55703628D01*
X127411905Y-56179819D02*
X127411905Y-55179819D01*
X127411905Y-55179819D02*
X127792857Y-55179819D01*
X127792857Y-55179819D02*
X127888095Y-55227438D01*
X127888095Y-55227438D02*
X127935714Y-55275057D01*
X127935714Y-55275057D02*
X127983333Y-55370295D01*
X127983333Y-55370295D02*
X127983333Y-55513152D01*
X127983333Y-55513152D02*
X127935714Y-55608390D01*
X127935714Y-55608390D02*
X127888095Y-55656009D01*
X127888095Y-55656009D02*
X127792857Y-55703628D01*
X127792857Y-55703628D02*
X127411905Y-55703628D01*
X128316667Y-55179819D02*
X128935714Y-55179819D01*
X128935714Y-55179819D02*
X128602381Y-55560771D01*
X128602381Y-55560771D02*
X128745238Y-55560771D01*
X128745238Y-55560771D02*
X128840476Y-55608390D01*
X128840476Y-55608390D02*
X128888095Y-55656009D01*
X128888095Y-55656009D02*
X128935714Y-55751247D01*
X128935714Y-55751247D02*
X128935714Y-55989342D01*
X128935714Y-55989342D02*
X128888095Y-56084580D01*
X128888095Y-56084580D02*
X128840476Y-56132200D01*
X128840476Y-56132200D02*
X128745238Y-56179819D01*
X128745238Y-56179819D02*
X128459524Y-56179819D01*
X128459524Y-56179819D02*
X128364286Y-56132200D01*
X128364286Y-56132200D02*
X128316667Y-56084580D01*
X122820833Y-50429819D02*
X122487500Y-49953628D01*
X122249405Y-50429819D02*
X122249405Y-49429819D01*
X122249405Y-49429819D02*
X122630357Y-49429819D01*
X122630357Y-49429819D02*
X122725595Y-49477438D01*
X122725595Y-49477438D02*
X122773214Y-49525057D01*
X122773214Y-49525057D02*
X122820833Y-49620295D01*
X122820833Y-49620295D02*
X122820833Y-49763152D01*
X122820833Y-49763152D02*
X122773214Y-49858390D01*
X122773214Y-49858390D02*
X122725595Y-49906009D01*
X122725595Y-49906009D02*
X122630357Y-49953628D01*
X122630357Y-49953628D02*
X122249405Y-49953628D01*
X123773214Y-50429819D02*
X123201786Y-50429819D01*
X123487500Y-50429819D02*
X123487500Y-49429819D01*
X123487500Y-49429819D02*
X123392262Y-49572676D01*
X123392262Y-49572676D02*
X123297024Y-49667914D01*
X123297024Y-49667914D02*
X123201786Y-49715533D01*
X138232142Y-65679819D02*
X137898809Y-65203628D01*
X137660714Y-65679819D02*
X137660714Y-64679819D01*
X137660714Y-64679819D02*
X138041666Y-64679819D01*
X138041666Y-64679819D02*
X138136904Y-64727438D01*
X138136904Y-64727438D02*
X138184523Y-64775057D01*
X138184523Y-64775057D02*
X138232142Y-64870295D01*
X138232142Y-64870295D02*
X138232142Y-65013152D01*
X138232142Y-65013152D02*
X138184523Y-65108390D01*
X138184523Y-65108390D02*
X138136904Y-65156009D01*
X138136904Y-65156009D02*
X138041666Y-65203628D01*
X138041666Y-65203628D02*
X137660714Y-65203628D01*
X138613095Y-64775057D02*
X138660714Y-64727438D01*
X138660714Y-64727438D02*
X138755952Y-64679819D01*
X138755952Y-64679819D02*
X138994047Y-64679819D01*
X138994047Y-64679819D02*
X139089285Y-64727438D01*
X139089285Y-64727438D02*
X139136904Y-64775057D01*
X139136904Y-64775057D02*
X139184523Y-64870295D01*
X139184523Y-64870295D02*
X139184523Y-64965533D01*
X139184523Y-64965533D02*
X139136904Y-65108390D01*
X139136904Y-65108390D02*
X138565476Y-65679819D01*
X138565476Y-65679819D02*
X139184523Y-65679819D01*
X140041666Y-64679819D02*
X139851190Y-64679819D01*
X139851190Y-64679819D02*
X139755952Y-64727438D01*
X139755952Y-64727438D02*
X139708333Y-64775057D01*
X139708333Y-64775057D02*
X139613095Y-64917914D01*
X139613095Y-64917914D02*
X139565476Y-65108390D01*
X139565476Y-65108390D02*
X139565476Y-65489342D01*
X139565476Y-65489342D02*
X139613095Y-65584580D01*
X139613095Y-65584580D02*
X139660714Y-65632200D01*
X139660714Y-65632200D02*
X139755952Y-65679819D01*
X139755952Y-65679819D02*
X139946428Y-65679819D01*
X139946428Y-65679819D02*
X140041666Y-65632200D01*
X140041666Y-65632200D02*
X140089285Y-65584580D01*
X140089285Y-65584580D02*
X140136904Y-65489342D01*
X140136904Y-65489342D02*
X140136904Y-65251247D01*
X140136904Y-65251247D02*
X140089285Y-65156009D01*
X140089285Y-65156009D02*
X140041666Y-65108390D01*
X140041666Y-65108390D02*
X139946428Y-65060771D01*
X139946428Y-65060771D02*
X139755952Y-65060771D01*
X139755952Y-65060771D02*
X139660714Y-65108390D01*
X139660714Y-65108390D02*
X139613095Y-65156009D01*
X139613095Y-65156009D02*
X139565476Y-65251247D01*
X115982142Y-72179819D02*
X115648809Y-71703628D01*
X115410714Y-72179819D02*
X115410714Y-71179819D01*
X115410714Y-71179819D02*
X115791666Y-71179819D01*
X115791666Y-71179819D02*
X115886904Y-71227438D01*
X115886904Y-71227438D02*
X115934523Y-71275057D01*
X115934523Y-71275057D02*
X115982142Y-71370295D01*
X115982142Y-71370295D02*
X115982142Y-71513152D01*
X115982142Y-71513152D02*
X115934523Y-71608390D01*
X115934523Y-71608390D02*
X115886904Y-71656009D01*
X115886904Y-71656009D02*
X115791666Y-71703628D01*
X115791666Y-71703628D02*
X115410714Y-71703628D01*
X116363095Y-71275057D02*
X116410714Y-71227438D01*
X116410714Y-71227438D02*
X116505952Y-71179819D01*
X116505952Y-71179819D02*
X116744047Y-71179819D01*
X116744047Y-71179819D02*
X116839285Y-71227438D01*
X116839285Y-71227438D02*
X116886904Y-71275057D01*
X116886904Y-71275057D02*
X116934523Y-71370295D01*
X116934523Y-71370295D02*
X116934523Y-71465533D01*
X116934523Y-71465533D02*
X116886904Y-71608390D01*
X116886904Y-71608390D02*
X116315476Y-72179819D01*
X116315476Y-72179819D02*
X116934523Y-72179819D01*
X117839285Y-71179819D02*
X117363095Y-71179819D01*
X117363095Y-71179819D02*
X117315476Y-71656009D01*
X117315476Y-71656009D02*
X117363095Y-71608390D01*
X117363095Y-71608390D02*
X117458333Y-71560771D01*
X117458333Y-71560771D02*
X117696428Y-71560771D01*
X117696428Y-71560771D02*
X117791666Y-71608390D01*
X117791666Y-71608390D02*
X117839285Y-71656009D01*
X117839285Y-71656009D02*
X117886904Y-71751247D01*
X117886904Y-71751247D02*
X117886904Y-71989342D01*
X117886904Y-71989342D02*
X117839285Y-72084580D01*
X117839285Y-72084580D02*
X117791666Y-72132200D01*
X117791666Y-72132200D02*
X117696428Y-72179819D01*
X117696428Y-72179819D02*
X117458333Y-72179819D01*
X117458333Y-72179819D02*
X117363095Y-72132200D01*
X117363095Y-72132200D02*
X117315476Y-72084580D01*
X142732142Y-68679819D02*
X142398809Y-68203628D01*
X142160714Y-68679819D02*
X142160714Y-67679819D01*
X142160714Y-67679819D02*
X142541666Y-67679819D01*
X142541666Y-67679819D02*
X142636904Y-67727438D01*
X142636904Y-67727438D02*
X142684523Y-67775057D01*
X142684523Y-67775057D02*
X142732142Y-67870295D01*
X142732142Y-67870295D02*
X142732142Y-68013152D01*
X142732142Y-68013152D02*
X142684523Y-68108390D01*
X142684523Y-68108390D02*
X142636904Y-68156009D01*
X142636904Y-68156009D02*
X142541666Y-68203628D01*
X142541666Y-68203628D02*
X142160714Y-68203628D01*
X143113095Y-67775057D02*
X143160714Y-67727438D01*
X143160714Y-67727438D02*
X143255952Y-67679819D01*
X143255952Y-67679819D02*
X143494047Y-67679819D01*
X143494047Y-67679819D02*
X143589285Y-67727438D01*
X143589285Y-67727438D02*
X143636904Y-67775057D01*
X143636904Y-67775057D02*
X143684523Y-67870295D01*
X143684523Y-67870295D02*
X143684523Y-67965533D01*
X143684523Y-67965533D02*
X143636904Y-68108390D01*
X143636904Y-68108390D02*
X143065476Y-68679819D01*
X143065476Y-68679819D02*
X143684523Y-68679819D01*
X144541666Y-68013152D02*
X144541666Y-68679819D01*
X144303571Y-67632200D02*
X144065476Y-68346485D01*
X144065476Y-68346485D02*
X144684523Y-68346485D01*
X139732142Y-72179819D02*
X139398809Y-71703628D01*
X139160714Y-72179819D02*
X139160714Y-71179819D01*
X139160714Y-71179819D02*
X139541666Y-71179819D01*
X139541666Y-71179819D02*
X139636904Y-71227438D01*
X139636904Y-71227438D02*
X139684523Y-71275057D01*
X139684523Y-71275057D02*
X139732142Y-71370295D01*
X139732142Y-71370295D02*
X139732142Y-71513152D01*
X139732142Y-71513152D02*
X139684523Y-71608390D01*
X139684523Y-71608390D02*
X139636904Y-71656009D01*
X139636904Y-71656009D02*
X139541666Y-71703628D01*
X139541666Y-71703628D02*
X139160714Y-71703628D01*
X140113095Y-71275057D02*
X140160714Y-71227438D01*
X140160714Y-71227438D02*
X140255952Y-71179819D01*
X140255952Y-71179819D02*
X140494047Y-71179819D01*
X140494047Y-71179819D02*
X140589285Y-71227438D01*
X140589285Y-71227438D02*
X140636904Y-71275057D01*
X140636904Y-71275057D02*
X140684523Y-71370295D01*
X140684523Y-71370295D02*
X140684523Y-71465533D01*
X140684523Y-71465533D02*
X140636904Y-71608390D01*
X140636904Y-71608390D02*
X140065476Y-72179819D01*
X140065476Y-72179819D02*
X140684523Y-72179819D01*
X141017857Y-71179819D02*
X141636904Y-71179819D01*
X141636904Y-71179819D02*
X141303571Y-71560771D01*
X141303571Y-71560771D02*
X141446428Y-71560771D01*
X141446428Y-71560771D02*
X141541666Y-71608390D01*
X141541666Y-71608390D02*
X141589285Y-71656009D01*
X141589285Y-71656009D02*
X141636904Y-71751247D01*
X141636904Y-71751247D02*
X141636904Y-71989342D01*
X141636904Y-71989342D02*
X141589285Y-72084580D01*
X141589285Y-72084580D02*
X141541666Y-72132200D01*
X141541666Y-72132200D02*
X141446428Y-72179819D01*
X141446428Y-72179819D02*
X141160714Y-72179819D01*
X141160714Y-72179819D02*
X141065476Y-72132200D01*
X141065476Y-72132200D02*
X141017857Y-72084580D01*
X119232142Y-73859819D02*
X118898809Y-73383628D01*
X118660714Y-73859819D02*
X118660714Y-72859819D01*
X118660714Y-72859819D02*
X119041666Y-72859819D01*
X119041666Y-72859819D02*
X119136904Y-72907438D01*
X119136904Y-72907438D02*
X119184523Y-72955057D01*
X119184523Y-72955057D02*
X119232142Y-73050295D01*
X119232142Y-73050295D02*
X119232142Y-73193152D01*
X119232142Y-73193152D02*
X119184523Y-73288390D01*
X119184523Y-73288390D02*
X119136904Y-73336009D01*
X119136904Y-73336009D02*
X119041666Y-73383628D01*
X119041666Y-73383628D02*
X118660714Y-73383628D01*
X119613095Y-72955057D02*
X119660714Y-72907438D01*
X119660714Y-72907438D02*
X119755952Y-72859819D01*
X119755952Y-72859819D02*
X119994047Y-72859819D01*
X119994047Y-72859819D02*
X120089285Y-72907438D01*
X120089285Y-72907438D02*
X120136904Y-72955057D01*
X120136904Y-72955057D02*
X120184523Y-73050295D01*
X120184523Y-73050295D02*
X120184523Y-73145533D01*
X120184523Y-73145533D02*
X120136904Y-73288390D01*
X120136904Y-73288390D02*
X119565476Y-73859819D01*
X119565476Y-73859819D02*
X120184523Y-73859819D01*
X120565476Y-72955057D02*
X120613095Y-72907438D01*
X120613095Y-72907438D02*
X120708333Y-72859819D01*
X120708333Y-72859819D02*
X120946428Y-72859819D01*
X120946428Y-72859819D02*
X121041666Y-72907438D01*
X121041666Y-72907438D02*
X121089285Y-72955057D01*
X121089285Y-72955057D02*
X121136904Y-73050295D01*
X121136904Y-73050295D02*
X121136904Y-73145533D01*
X121136904Y-73145533D02*
X121089285Y-73288390D01*
X121089285Y-73288390D02*
X120517857Y-73859819D01*
X120517857Y-73859819D02*
X121136904Y-73859819D01*
X138259819Y-73367857D02*
X137783628Y-73701190D01*
X138259819Y-73939285D02*
X137259819Y-73939285D01*
X137259819Y-73939285D02*
X137259819Y-73558333D01*
X137259819Y-73558333D02*
X137307438Y-73463095D01*
X137307438Y-73463095D02*
X137355057Y-73415476D01*
X137355057Y-73415476D02*
X137450295Y-73367857D01*
X137450295Y-73367857D02*
X137593152Y-73367857D01*
X137593152Y-73367857D02*
X137688390Y-73415476D01*
X137688390Y-73415476D02*
X137736009Y-73463095D01*
X137736009Y-73463095D02*
X137783628Y-73558333D01*
X137783628Y-73558333D02*
X137783628Y-73939285D01*
X137355057Y-72986904D02*
X137307438Y-72939285D01*
X137307438Y-72939285D02*
X137259819Y-72844047D01*
X137259819Y-72844047D02*
X137259819Y-72605952D01*
X137259819Y-72605952D02*
X137307438Y-72510714D01*
X137307438Y-72510714D02*
X137355057Y-72463095D01*
X137355057Y-72463095D02*
X137450295Y-72415476D01*
X137450295Y-72415476D02*
X137545533Y-72415476D01*
X137545533Y-72415476D02*
X137688390Y-72463095D01*
X137688390Y-72463095D02*
X138259819Y-73034523D01*
X138259819Y-73034523D02*
X138259819Y-72415476D01*
X138259819Y-71463095D02*
X138259819Y-72034523D01*
X138259819Y-71748809D02*
X137259819Y-71748809D01*
X137259819Y-71748809D02*
X137402676Y-71844047D01*
X137402676Y-71844047D02*
X137497914Y-71939285D01*
X137497914Y-71939285D02*
X137545533Y-72034523D01*
X138329819Y-62117857D02*
X137853628Y-62451190D01*
X138329819Y-62689285D02*
X137329819Y-62689285D01*
X137329819Y-62689285D02*
X137329819Y-62308333D01*
X137329819Y-62308333D02*
X137377438Y-62213095D01*
X137377438Y-62213095D02*
X137425057Y-62165476D01*
X137425057Y-62165476D02*
X137520295Y-62117857D01*
X137520295Y-62117857D02*
X137663152Y-62117857D01*
X137663152Y-62117857D02*
X137758390Y-62165476D01*
X137758390Y-62165476D02*
X137806009Y-62213095D01*
X137806009Y-62213095D02*
X137853628Y-62308333D01*
X137853628Y-62308333D02*
X137853628Y-62689285D01*
X138329819Y-61165476D02*
X138329819Y-61736904D01*
X138329819Y-61451190D02*
X137329819Y-61451190D01*
X137329819Y-61451190D02*
X137472676Y-61546428D01*
X137472676Y-61546428D02*
X137567914Y-61641666D01*
X137567914Y-61641666D02*
X137615533Y-61736904D01*
X138329819Y-60689285D02*
X138329819Y-60498809D01*
X138329819Y-60498809D02*
X138282200Y-60403571D01*
X138282200Y-60403571D02*
X138234580Y-60355952D01*
X138234580Y-60355952D02*
X138091723Y-60260714D01*
X138091723Y-60260714D02*
X137901247Y-60213095D01*
X137901247Y-60213095D02*
X137520295Y-60213095D01*
X137520295Y-60213095D02*
X137425057Y-60260714D01*
X137425057Y-60260714D02*
X137377438Y-60308333D01*
X137377438Y-60308333D02*
X137329819Y-60403571D01*
X137329819Y-60403571D02*
X137329819Y-60594047D01*
X137329819Y-60594047D02*
X137377438Y-60689285D01*
X137377438Y-60689285D02*
X137425057Y-60736904D01*
X137425057Y-60736904D02*
X137520295Y-60784523D01*
X137520295Y-60784523D02*
X137758390Y-60784523D01*
X137758390Y-60784523D02*
X137853628Y-60736904D01*
X137853628Y-60736904D02*
X137901247Y-60689285D01*
X137901247Y-60689285D02*
X137948866Y-60594047D01*
X137948866Y-60594047D02*
X137948866Y-60403571D01*
X137948866Y-60403571D02*
X137901247Y-60308333D01*
X137901247Y-60308333D02*
X137853628Y-60260714D01*
X137853628Y-60260714D02*
X137758390Y-60213095D01*
X135079819Y-59617857D02*
X134603628Y-59951190D01*
X135079819Y-60189285D02*
X134079819Y-60189285D01*
X134079819Y-60189285D02*
X134079819Y-59808333D01*
X134079819Y-59808333D02*
X134127438Y-59713095D01*
X134127438Y-59713095D02*
X134175057Y-59665476D01*
X134175057Y-59665476D02*
X134270295Y-59617857D01*
X134270295Y-59617857D02*
X134413152Y-59617857D01*
X134413152Y-59617857D02*
X134508390Y-59665476D01*
X134508390Y-59665476D02*
X134556009Y-59713095D01*
X134556009Y-59713095D02*
X134603628Y-59808333D01*
X134603628Y-59808333D02*
X134603628Y-60189285D01*
X135079819Y-58665476D02*
X135079819Y-59236904D01*
X135079819Y-58951190D02*
X134079819Y-58951190D01*
X134079819Y-58951190D02*
X134222676Y-59046428D01*
X134222676Y-59046428D02*
X134317914Y-59141666D01*
X134317914Y-59141666D02*
X134365533Y-59236904D01*
X134508390Y-58094047D02*
X134460771Y-58189285D01*
X134460771Y-58189285D02*
X134413152Y-58236904D01*
X134413152Y-58236904D02*
X134317914Y-58284523D01*
X134317914Y-58284523D02*
X134270295Y-58284523D01*
X134270295Y-58284523D02*
X134175057Y-58236904D01*
X134175057Y-58236904D02*
X134127438Y-58189285D01*
X134127438Y-58189285D02*
X134079819Y-58094047D01*
X134079819Y-58094047D02*
X134079819Y-57903571D01*
X134079819Y-57903571D02*
X134127438Y-57808333D01*
X134127438Y-57808333D02*
X134175057Y-57760714D01*
X134175057Y-57760714D02*
X134270295Y-57713095D01*
X134270295Y-57713095D02*
X134317914Y-57713095D01*
X134317914Y-57713095D02*
X134413152Y-57760714D01*
X134413152Y-57760714D02*
X134460771Y-57808333D01*
X134460771Y-57808333D02*
X134508390Y-57903571D01*
X134508390Y-57903571D02*
X134508390Y-58094047D01*
X134508390Y-58094047D02*
X134556009Y-58189285D01*
X134556009Y-58189285D02*
X134603628Y-58236904D01*
X134603628Y-58236904D02*
X134698866Y-58284523D01*
X134698866Y-58284523D02*
X134889342Y-58284523D01*
X134889342Y-58284523D02*
X134984580Y-58236904D01*
X134984580Y-58236904D02*
X135032200Y-58189285D01*
X135032200Y-58189285D02*
X135079819Y-58094047D01*
X135079819Y-58094047D02*
X135079819Y-57903571D01*
X135079819Y-57903571D02*
X135032200Y-57808333D01*
X135032200Y-57808333D02*
X134984580Y-57760714D01*
X134984580Y-57760714D02*
X134889342Y-57713095D01*
X134889342Y-57713095D02*
X134698866Y-57713095D01*
X134698866Y-57713095D02*
X134603628Y-57760714D01*
X134603628Y-57760714D02*
X134556009Y-57808333D01*
X134556009Y-57808333D02*
X134508390Y-57903571D01*
X127232142Y-65179819D02*
X126898809Y-64703628D01*
X126660714Y-65179819D02*
X126660714Y-64179819D01*
X126660714Y-64179819D02*
X127041666Y-64179819D01*
X127041666Y-64179819D02*
X127136904Y-64227438D01*
X127136904Y-64227438D02*
X127184523Y-64275057D01*
X127184523Y-64275057D02*
X127232142Y-64370295D01*
X127232142Y-64370295D02*
X127232142Y-64513152D01*
X127232142Y-64513152D02*
X127184523Y-64608390D01*
X127184523Y-64608390D02*
X127136904Y-64656009D01*
X127136904Y-64656009D02*
X127041666Y-64703628D01*
X127041666Y-64703628D02*
X126660714Y-64703628D01*
X128184523Y-65179819D02*
X127613095Y-65179819D01*
X127898809Y-65179819D02*
X127898809Y-64179819D01*
X127898809Y-64179819D02*
X127803571Y-64322676D01*
X127803571Y-64322676D02*
X127708333Y-64417914D01*
X127708333Y-64417914D02*
X127613095Y-64465533D01*
X128517857Y-64179819D02*
X129184523Y-64179819D01*
X129184523Y-64179819D02*
X128755952Y-65179819D01*
X127232142Y-63429819D02*
X126898809Y-62953628D01*
X126660714Y-63429819D02*
X126660714Y-62429819D01*
X126660714Y-62429819D02*
X127041666Y-62429819D01*
X127041666Y-62429819D02*
X127136904Y-62477438D01*
X127136904Y-62477438D02*
X127184523Y-62525057D01*
X127184523Y-62525057D02*
X127232142Y-62620295D01*
X127232142Y-62620295D02*
X127232142Y-62763152D01*
X127232142Y-62763152D02*
X127184523Y-62858390D01*
X127184523Y-62858390D02*
X127136904Y-62906009D01*
X127136904Y-62906009D02*
X127041666Y-62953628D01*
X127041666Y-62953628D02*
X126660714Y-62953628D01*
X128184523Y-63429819D02*
X127613095Y-63429819D01*
X127898809Y-63429819D02*
X127898809Y-62429819D01*
X127898809Y-62429819D02*
X127803571Y-62572676D01*
X127803571Y-62572676D02*
X127708333Y-62667914D01*
X127708333Y-62667914D02*
X127613095Y-62715533D01*
X129041666Y-62429819D02*
X128851190Y-62429819D01*
X128851190Y-62429819D02*
X128755952Y-62477438D01*
X128755952Y-62477438D02*
X128708333Y-62525057D01*
X128708333Y-62525057D02*
X128613095Y-62667914D01*
X128613095Y-62667914D02*
X128565476Y-62858390D01*
X128565476Y-62858390D02*
X128565476Y-63239342D01*
X128565476Y-63239342D02*
X128613095Y-63334580D01*
X128613095Y-63334580D02*
X128660714Y-63382200D01*
X128660714Y-63382200D02*
X128755952Y-63429819D01*
X128755952Y-63429819D02*
X128946428Y-63429819D01*
X128946428Y-63429819D02*
X129041666Y-63382200D01*
X129041666Y-63382200D02*
X129089285Y-63334580D01*
X129089285Y-63334580D02*
X129136904Y-63239342D01*
X129136904Y-63239342D02*
X129136904Y-63001247D01*
X129136904Y-63001247D02*
X129089285Y-62906009D01*
X129089285Y-62906009D02*
X129041666Y-62858390D01*
X129041666Y-62858390D02*
X128946428Y-62810771D01*
X128946428Y-62810771D02*
X128755952Y-62810771D01*
X128755952Y-62810771D02*
X128660714Y-62858390D01*
X128660714Y-62858390D02*
X128613095Y-62906009D01*
X128613095Y-62906009D02*
X128565476Y-63001247D01*
X132394642Y-69179819D02*
X132061309Y-68703628D01*
X131823214Y-69179819D02*
X131823214Y-68179819D01*
X131823214Y-68179819D02*
X132204166Y-68179819D01*
X132204166Y-68179819D02*
X132299404Y-68227438D01*
X132299404Y-68227438D02*
X132347023Y-68275057D01*
X132347023Y-68275057D02*
X132394642Y-68370295D01*
X132394642Y-68370295D02*
X132394642Y-68513152D01*
X132394642Y-68513152D02*
X132347023Y-68608390D01*
X132347023Y-68608390D02*
X132299404Y-68656009D01*
X132299404Y-68656009D02*
X132204166Y-68703628D01*
X132204166Y-68703628D02*
X131823214Y-68703628D01*
X133347023Y-69179819D02*
X132775595Y-69179819D01*
X133061309Y-69179819D02*
X133061309Y-68179819D01*
X133061309Y-68179819D02*
X132966071Y-68322676D01*
X132966071Y-68322676D02*
X132870833Y-68417914D01*
X132870833Y-68417914D02*
X132775595Y-68465533D01*
X134204166Y-68513152D02*
X134204166Y-69179819D01*
X133966071Y-68132200D02*
X133727976Y-68846485D01*
X133727976Y-68846485D02*
X134347023Y-68846485D01*
X126469819Y-45464285D02*
X125469819Y-45464285D01*
X125469819Y-45464285D02*
X125469819Y-45083333D01*
X125469819Y-45083333D02*
X125517438Y-44988095D01*
X125517438Y-44988095D02*
X125565057Y-44940476D01*
X125565057Y-44940476D02*
X125660295Y-44892857D01*
X125660295Y-44892857D02*
X125803152Y-44892857D01*
X125803152Y-44892857D02*
X125898390Y-44940476D01*
X125898390Y-44940476D02*
X125946009Y-44988095D01*
X125946009Y-44988095D02*
X125993628Y-45083333D01*
X125993628Y-45083333D02*
X125993628Y-45464285D01*
X126422200Y-44511904D02*
X126469819Y-44369047D01*
X126469819Y-44369047D02*
X126469819Y-44130952D01*
X126469819Y-44130952D02*
X126422200Y-44035714D01*
X126422200Y-44035714D02*
X126374580Y-43988095D01*
X126374580Y-43988095D02*
X126279342Y-43940476D01*
X126279342Y-43940476D02*
X126184104Y-43940476D01*
X126184104Y-43940476D02*
X126088866Y-43988095D01*
X126088866Y-43988095D02*
X126041247Y-44035714D01*
X126041247Y-44035714D02*
X125993628Y-44130952D01*
X125993628Y-44130952D02*
X125946009Y-44321428D01*
X125946009Y-44321428D02*
X125898390Y-44416666D01*
X125898390Y-44416666D02*
X125850771Y-44464285D01*
X125850771Y-44464285D02*
X125755533Y-44511904D01*
X125755533Y-44511904D02*
X125660295Y-44511904D01*
X125660295Y-44511904D02*
X125565057Y-44464285D01*
X125565057Y-44464285D02*
X125517438Y-44416666D01*
X125517438Y-44416666D02*
X125469819Y-44321428D01*
X125469819Y-44321428D02*
X125469819Y-44083333D01*
X125469819Y-44083333D02*
X125517438Y-43940476D01*
X125565057Y-43559523D02*
X125517438Y-43511904D01*
X125517438Y-43511904D02*
X125469819Y-43416666D01*
X125469819Y-43416666D02*
X125469819Y-43178571D01*
X125469819Y-43178571D02*
X125517438Y-43083333D01*
X125517438Y-43083333D02*
X125565057Y-43035714D01*
X125565057Y-43035714D02*
X125660295Y-42988095D01*
X125660295Y-42988095D02*
X125755533Y-42988095D01*
X125755533Y-42988095D02*
X125898390Y-43035714D01*
X125898390Y-43035714D02*
X126469819Y-43607142D01*
X126469819Y-43607142D02*
X126469819Y-42988095D01*
X130464819Y-75664285D02*
X129464819Y-75664285D01*
X129464819Y-75664285D02*
X129464819Y-75283333D01*
X129464819Y-75283333D02*
X129512438Y-75188095D01*
X129512438Y-75188095D02*
X129560057Y-75140476D01*
X129560057Y-75140476D02*
X129655295Y-75092857D01*
X129655295Y-75092857D02*
X129798152Y-75092857D01*
X129798152Y-75092857D02*
X129893390Y-75140476D01*
X129893390Y-75140476D02*
X129941009Y-75188095D01*
X129941009Y-75188095D02*
X129988628Y-75283333D01*
X129988628Y-75283333D02*
X129988628Y-75664285D01*
X130417200Y-74711904D02*
X130464819Y-74569047D01*
X130464819Y-74569047D02*
X130464819Y-74330952D01*
X130464819Y-74330952D02*
X130417200Y-74235714D01*
X130417200Y-74235714D02*
X130369580Y-74188095D01*
X130369580Y-74188095D02*
X130274342Y-74140476D01*
X130274342Y-74140476D02*
X130179104Y-74140476D01*
X130179104Y-74140476D02*
X130083866Y-74188095D01*
X130083866Y-74188095D02*
X130036247Y-74235714D01*
X130036247Y-74235714D02*
X129988628Y-74330952D01*
X129988628Y-74330952D02*
X129941009Y-74521428D01*
X129941009Y-74521428D02*
X129893390Y-74616666D01*
X129893390Y-74616666D02*
X129845771Y-74664285D01*
X129845771Y-74664285D02*
X129750533Y-74711904D01*
X129750533Y-74711904D02*
X129655295Y-74711904D01*
X129655295Y-74711904D02*
X129560057Y-74664285D01*
X129560057Y-74664285D02*
X129512438Y-74616666D01*
X129512438Y-74616666D02*
X129464819Y-74521428D01*
X129464819Y-74521428D02*
X129464819Y-74283333D01*
X129464819Y-74283333D02*
X129512438Y-74140476D01*
X129464819Y-73807142D02*
X129464819Y-73188095D01*
X129464819Y-73188095D02*
X129845771Y-73521428D01*
X129845771Y-73521428D02*
X129845771Y-73378571D01*
X129845771Y-73378571D02*
X129893390Y-73283333D01*
X129893390Y-73283333D02*
X129941009Y-73235714D01*
X129941009Y-73235714D02*
X130036247Y-73188095D01*
X130036247Y-73188095D02*
X130274342Y-73188095D01*
X130274342Y-73188095D02*
X130369580Y-73235714D01*
X130369580Y-73235714D02*
X130417200Y-73283333D01*
X130417200Y-73283333D02*
X130464819Y-73378571D01*
X130464819Y-73378571D02*
X130464819Y-73664285D01*
X130464819Y-73664285D02*
X130417200Y-73759523D01*
X130417200Y-73759523D02*
X130369580Y-73807142D01*
X20554819Y-60689285D02*
X19554819Y-60689285D01*
X19554819Y-60689285D02*
X19554819Y-60308333D01*
X19554819Y-60308333D02*
X19602438Y-60213095D01*
X19602438Y-60213095D02*
X19650057Y-60165476D01*
X19650057Y-60165476D02*
X19745295Y-60117857D01*
X19745295Y-60117857D02*
X19888152Y-60117857D01*
X19888152Y-60117857D02*
X19983390Y-60165476D01*
X19983390Y-60165476D02*
X20031009Y-60213095D01*
X20031009Y-60213095D02*
X20078628Y-60308333D01*
X20078628Y-60308333D02*
X20078628Y-60689285D01*
X20507200Y-59736904D02*
X20554819Y-59594047D01*
X20554819Y-59594047D02*
X20554819Y-59355952D01*
X20554819Y-59355952D02*
X20507200Y-59260714D01*
X20507200Y-59260714D02*
X20459580Y-59213095D01*
X20459580Y-59213095D02*
X20364342Y-59165476D01*
X20364342Y-59165476D02*
X20269104Y-59165476D01*
X20269104Y-59165476D02*
X20173866Y-59213095D01*
X20173866Y-59213095D02*
X20126247Y-59260714D01*
X20126247Y-59260714D02*
X20078628Y-59355952D01*
X20078628Y-59355952D02*
X20031009Y-59546428D01*
X20031009Y-59546428D02*
X19983390Y-59641666D01*
X19983390Y-59641666D02*
X19935771Y-59689285D01*
X19935771Y-59689285D02*
X19840533Y-59736904D01*
X19840533Y-59736904D02*
X19745295Y-59736904D01*
X19745295Y-59736904D02*
X19650057Y-59689285D01*
X19650057Y-59689285D02*
X19602438Y-59641666D01*
X19602438Y-59641666D02*
X19554819Y-59546428D01*
X19554819Y-59546428D02*
X19554819Y-59308333D01*
X19554819Y-59308333D02*
X19602438Y-59165476D01*
X20554819Y-58213095D02*
X20554819Y-58784523D01*
X20554819Y-58498809D02*
X19554819Y-58498809D01*
X19554819Y-58498809D02*
X19697676Y-58594047D01*
X19697676Y-58594047D02*
X19792914Y-58689285D01*
X19792914Y-58689285D02*
X19840533Y-58784523D01*
X123053571Y-84427819D02*
X123244047Y-84427819D01*
X123244047Y-84427819D02*
X123339285Y-84475438D01*
X123339285Y-84475438D02*
X123434523Y-84570676D01*
X123434523Y-84570676D02*
X123482142Y-84761152D01*
X123482142Y-84761152D02*
X123482142Y-85094485D01*
X123482142Y-85094485D02*
X123434523Y-85284961D01*
X123434523Y-85284961D02*
X123339285Y-85380200D01*
X123339285Y-85380200D02*
X123244047Y-85427819D01*
X123244047Y-85427819D02*
X123053571Y-85427819D01*
X123053571Y-85427819D02*
X122958333Y-85380200D01*
X122958333Y-85380200D02*
X122863095Y-85284961D01*
X122863095Y-85284961D02*
X122815476Y-85094485D01*
X122815476Y-85094485D02*
X122815476Y-84761152D01*
X122815476Y-84761152D02*
X122863095Y-84570676D01*
X122863095Y-84570676D02*
X122958333Y-84475438D01*
X122958333Y-84475438D02*
X123053571Y-84427819D01*
X124339285Y-84761152D02*
X124339285Y-85427819D01*
X123910714Y-84761152D02*
X123910714Y-85284961D01*
X123910714Y-85284961D02*
X123958333Y-85380200D01*
X123958333Y-85380200D02*
X124053571Y-85427819D01*
X124053571Y-85427819D02*
X124196428Y-85427819D01*
X124196428Y-85427819D02*
X124291666Y-85380200D01*
X124291666Y-85380200D02*
X124339285Y-85332580D01*
X124672619Y-84761152D02*
X125053571Y-84761152D01*
X124815476Y-84427819D02*
X124815476Y-85284961D01*
X124815476Y-85284961D02*
X124863095Y-85380200D01*
X124863095Y-85380200D02*
X124958333Y-85427819D01*
X124958333Y-85427819D02*
X125053571Y-85427819D01*
X125148810Y-85523057D02*
X125910714Y-85523057D01*
X126005953Y-84427819D02*
X126577381Y-84427819D01*
X126291667Y-85427819D02*
X126291667Y-84427819D01*
X126910715Y-85427819D02*
X126910715Y-84427819D01*
X126910715Y-84427819D02*
X127291667Y-84427819D01*
X127291667Y-84427819D02*
X127386905Y-84475438D01*
X127386905Y-84475438D02*
X127434524Y-84523057D01*
X127434524Y-84523057D02*
X127482143Y-84618295D01*
X127482143Y-84618295D02*
X127482143Y-84761152D01*
X127482143Y-84761152D02*
X127434524Y-84856390D01*
X127434524Y-84856390D02*
X127386905Y-84904009D01*
X127386905Y-84904009D02*
X127291667Y-84951628D01*
X127291667Y-84951628D02*
X126910715Y-84951628D01*
X127863096Y-84523057D02*
X127910715Y-84475438D01*
X127910715Y-84475438D02*
X128005953Y-84427819D01*
X128005953Y-84427819D02*
X128244048Y-84427819D01*
X128244048Y-84427819D02*
X128339286Y-84475438D01*
X128339286Y-84475438D02*
X128386905Y-84523057D01*
X128386905Y-84523057D02*
X128434524Y-84618295D01*
X128434524Y-84618295D02*
X128434524Y-84713533D01*
X128434524Y-84713533D02*
X128386905Y-84856390D01*
X128386905Y-84856390D02*
X127815477Y-85427819D01*
X127815477Y-85427819D02*
X128434524Y-85427819D01*
X151379166Y-55929819D02*
X151379166Y-56644104D01*
X151379166Y-56644104D02*
X151331547Y-56786961D01*
X151331547Y-56786961D02*
X151236309Y-56882200D01*
X151236309Y-56882200D02*
X151093452Y-56929819D01*
X151093452Y-56929819D02*
X150998214Y-56929819D01*
X151807738Y-56025057D02*
X151855357Y-55977438D01*
X151855357Y-55977438D02*
X151950595Y-55929819D01*
X151950595Y-55929819D02*
X152188690Y-55929819D01*
X152188690Y-55929819D02*
X152283928Y-55977438D01*
X152283928Y-55977438D02*
X152331547Y-56025057D01*
X152331547Y-56025057D02*
X152379166Y-56120295D01*
X152379166Y-56120295D02*
X152379166Y-56215533D01*
X152379166Y-56215533D02*
X152331547Y-56358390D01*
X152331547Y-56358390D02*
X151760119Y-56929819D01*
X151760119Y-56929819D02*
X152379166Y-56929819D01*
X42466666Y-26179819D02*
X42466666Y-26894104D01*
X42466666Y-26894104D02*
X42419047Y-27036961D01*
X42419047Y-27036961D02*
X42323809Y-27132200D01*
X42323809Y-27132200D02*
X42180952Y-27179819D01*
X42180952Y-27179819D02*
X42085714Y-27179819D01*
X43466666Y-27179819D02*
X42895238Y-27179819D01*
X43180952Y-27179819D02*
X43180952Y-26179819D01*
X43180952Y-26179819D02*
X43085714Y-26322676D01*
X43085714Y-26322676D02*
X42990476Y-26417914D01*
X42990476Y-26417914D02*
X42895238Y-26465533D01*
X116411904Y-35229438D02*
X116316666Y-35181819D01*
X116316666Y-35181819D02*
X116173809Y-35181819D01*
X116173809Y-35181819D02*
X116030952Y-35229438D01*
X116030952Y-35229438D02*
X115935714Y-35324676D01*
X115935714Y-35324676D02*
X115888095Y-35419914D01*
X115888095Y-35419914D02*
X115840476Y-35610390D01*
X115840476Y-35610390D02*
X115840476Y-35753247D01*
X115840476Y-35753247D02*
X115888095Y-35943723D01*
X115888095Y-35943723D02*
X115935714Y-36038961D01*
X115935714Y-36038961D02*
X116030952Y-36134200D01*
X116030952Y-36134200D02*
X116173809Y-36181819D01*
X116173809Y-36181819D02*
X116269047Y-36181819D01*
X116269047Y-36181819D02*
X116411904Y-36134200D01*
X116411904Y-36134200D02*
X116459523Y-36086580D01*
X116459523Y-36086580D02*
X116459523Y-35753247D01*
X116459523Y-35753247D02*
X116269047Y-35753247D01*
X116888095Y-36181819D02*
X116888095Y-35181819D01*
X116888095Y-35181819D02*
X117459523Y-36181819D01*
X117459523Y-36181819D02*
X117459523Y-35181819D01*
X117935714Y-36181819D02*
X117935714Y-35181819D01*
X117935714Y-35181819D02*
X118173809Y-35181819D01*
X118173809Y-35181819D02*
X118316666Y-35229438D01*
X118316666Y-35229438D02*
X118411904Y-35324676D01*
X118411904Y-35324676D02*
X118459523Y-35419914D01*
X118459523Y-35419914D02*
X118507142Y-35610390D01*
X118507142Y-35610390D02*
X118507142Y-35753247D01*
X118507142Y-35753247D02*
X118459523Y-35943723D01*
X118459523Y-35943723D02*
X118411904Y-36038961D01*
X118411904Y-36038961D02*
X118316666Y-36134200D01*
X118316666Y-36134200D02*
X118173809Y-36181819D01*
X118173809Y-36181819D02*
X117935714Y-36181819D01*
X118840476Y-35181819D02*
X119459523Y-35181819D01*
X119459523Y-35181819D02*
X119126190Y-35562771D01*
X119126190Y-35562771D02*
X119269047Y-35562771D01*
X119269047Y-35562771D02*
X119364285Y-35610390D01*
X119364285Y-35610390D02*
X119411904Y-35658009D01*
X119411904Y-35658009D02*
X119459523Y-35753247D01*
X119459523Y-35753247D02*
X119459523Y-35991342D01*
X119459523Y-35991342D02*
X119411904Y-36086580D01*
X119411904Y-36086580D02*
X119364285Y-36134200D01*
X119364285Y-36134200D02*
X119269047Y-36181819D01*
X119269047Y-36181819D02*
X118983333Y-36181819D01*
X118983333Y-36181819D02*
X118888095Y-36134200D01*
X118888095Y-36134200D02*
X118840476Y-36086580D01*
X137411904Y-54479438D02*
X137316666Y-54431819D01*
X137316666Y-54431819D02*
X137173809Y-54431819D01*
X137173809Y-54431819D02*
X137030952Y-54479438D01*
X137030952Y-54479438D02*
X136935714Y-54574676D01*
X136935714Y-54574676D02*
X136888095Y-54669914D01*
X136888095Y-54669914D02*
X136840476Y-54860390D01*
X136840476Y-54860390D02*
X136840476Y-55003247D01*
X136840476Y-55003247D02*
X136888095Y-55193723D01*
X136888095Y-55193723D02*
X136935714Y-55288961D01*
X136935714Y-55288961D02*
X137030952Y-55384200D01*
X137030952Y-55384200D02*
X137173809Y-55431819D01*
X137173809Y-55431819D02*
X137269047Y-55431819D01*
X137269047Y-55431819D02*
X137411904Y-55384200D01*
X137411904Y-55384200D02*
X137459523Y-55336580D01*
X137459523Y-55336580D02*
X137459523Y-55003247D01*
X137459523Y-55003247D02*
X137269047Y-55003247D01*
X137888095Y-55431819D02*
X137888095Y-54431819D01*
X137888095Y-54431819D02*
X138459523Y-55431819D01*
X138459523Y-55431819D02*
X138459523Y-54431819D01*
X138935714Y-55431819D02*
X138935714Y-54431819D01*
X138935714Y-54431819D02*
X139173809Y-54431819D01*
X139173809Y-54431819D02*
X139316666Y-54479438D01*
X139316666Y-54479438D02*
X139411904Y-54574676D01*
X139411904Y-54574676D02*
X139459523Y-54669914D01*
X139459523Y-54669914D02*
X139507142Y-54860390D01*
X139507142Y-54860390D02*
X139507142Y-55003247D01*
X139507142Y-55003247D02*
X139459523Y-55193723D01*
X139459523Y-55193723D02*
X139411904Y-55288961D01*
X139411904Y-55288961D02*
X139316666Y-55384200D01*
X139316666Y-55384200D02*
X139173809Y-55431819D01*
X139173809Y-55431819D02*
X138935714Y-55431819D01*
X139888095Y-54527057D02*
X139935714Y-54479438D01*
X139935714Y-54479438D02*
X140030952Y-54431819D01*
X140030952Y-54431819D02*
X140269047Y-54431819D01*
X140269047Y-54431819D02*
X140364285Y-54479438D01*
X140364285Y-54479438D02*
X140411904Y-54527057D01*
X140411904Y-54527057D02*
X140459523Y-54622295D01*
X140459523Y-54622295D02*
X140459523Y-54717533D01*
X140459523Y-54717533D02*
X140411904Y-54860390D01*
X140411904Y-54860390D02*
X139840476Y-55431819D01*
X139840476Y-55431819D02*
X140459523Y-55431819D01*
X141974404Y-36977438D02*
X141879166Y-36929819D01*
X141879166Y-36929819D02*
X141736309Y-36929819D01*
X141736309Y-36929819D02*
X141593452Y-36977438D01*
X141593452Y-36977438D02*
X141498214Y-37072676D01*
X141498214Y-37072676D02*
X141450595Y-37167914D01*
X141450595Y-37167914D02*
X141402976Y-37358390D01*
X141402976Y-37358390D02*
X141402976Y-37501247D01*
X141402976Y-37501247D02*
X141450595Y-37691723D01*
X141450595Y-37691723D02*
X141498214Y-37786961D01*
X141498214Y-37786961D02*
X141593452Y-37882200D01*
X141593452Y-37882200D02*
X141736309Y-37929819D01*
X141736309Y-37929819D02*
X141831547Y-37929819D01*
X141831547Y-37929819D02*
X141974404Y-37882200D01*
X141974404Y-37882200D02*
X142022023Y-37834580D01*
X142022023Y-37834580D02*
X142022023Y-37501247D01*
X142022023Y-37501247D02*
X141831547Y-37501247D01*
X142450595Y-37929819D02*
X142450595Y-36929819D01*
X142450595Y-36929819D02*
X143022023Y-37929819D01*
X143022023Y-37929819D02*
X143022023Y-36929819D01*
X143498214Y-37929819D02*
X143498214Y-36929819D01*
X143498214Y-36929819D02*
X143736309Y-36929819D01*
X143736309Y-36929819D02*
X143879166Y-36977438D01*
X143879166Y-36977438D02*
X143974404Y-37072676D01*
X143974404Y-37072676D02*
X144022023Y-37167914D01*
X144022023Y-37167914D02*
X144069642Y-37358390D01*
X144069642Y-37358390D02*
X144069642Y-37501247D01*
X144069642Y-37501247D02*
X144022023Y-37691723D01*
X144022023Y-37691723D02*
X143974404Y-37786961D01*
X143974404Y-37786961D02*
X143879166Y-37882200D01*
X143879166Y-37882200D02*
X143736309Y-37929819D01*
X143736309Y-37929819D02*
X143498214Y-37929819D01*
X145022023Y-37929819D02*
X144450595Y-37929819D01*
X144736309Y-37929819D02*
X144736309Y-36929819D01*
X144736309Y-36929819D02*
X144641071Y-37072676D01*
X144641071Y-37072676D02*
X144545833Y-37167914D01*
X144545833Y-37167914D02*
X144450595Y-37215533D01*
X137136904Y-82475438D02*
X137041666Y-82427819D01*
X137041666Y-82427819D02*
X136898809Y-82427819D01*
X136898809Y-82427819D02*
X136755952Y-82475438D01*
X136755952Y-82475438D02*
X136660714Y-82570676D01*
X136660714Y-82570676D02*
X136613095Y-82665914D01*
X136613095Y-82665914D02*
X136565476Y-82856390D01*
X136565476Y-82856390D02*
X136565476Y-82999247D01*
X136565476Y-82999247D02*
X136613095Y-83189723D01*
X136613095Y-83189723D02*
X136660714Y-83284961D01*
X136660714Y-83284961D02*
X136755952Y-83380200D01*
X136755952Y-83380200D02*
X136898809Y-83427819D01*
X136898809Y-83427819D02*
X136994047Y-83427819D01*
X136994047Y-83427819D02*
X137136904Y-83380200D01*
X137136904Y-83380200D02*
X137184523Y-83332580D01*
X137184523Y-83332580D02*
X137184523Y-82999247D01*
X137184523Y-82999247D02*
X136994047Y-82999247D01*
X137613095Y-83427819D02*
X137613095Y-82427819D01*
X137613095Y-82427819D02*
X138184523Y-83427819D01*
X138184523Y-83427819D02*
X138184523Y-82427819D01*
X138660714Y-83427819D02*
X138660714Y-82427819D01*
X138660714Y-82427819D02*
X138898809Y-82427819D01*
X138898809Y-82427819D02*
X139041666Y-82475438D01*
X139041666Y-82475438D02*
X139136904Y-82570676D01*
X139136904Y-82570676D02*
X139184523Y-82665914D01*
X139184523Y-82665914D02*
X139232142Y-82856390D01*
X139232142Y-82856390D02*
X139232142Y-82999247D01*
X139232142Y-82999247D02*
X139184523Y-83189723D01*
X139184523Y-83189723D02*
X139136904Y-83284961D01*
X139136904Y-83284961D02*
X139041666Y-83380200D01*
X139041666Y-83380200D02*
X138898809Y-83427819D01*
X138898809Y-83427819D02*
X138660714Y-83427819D01*
X140089285Y-82427819D02*
X139898809Y-82427819D01*
X139898809Y-82427819D02*
X139803571Y-82475438D01*
X139803571Y-82475438D02*
X139755952Y-82523057D01*
X139755952Y-82523057D02*
X139660714Y-82665914D01*
X139660714Y-82665914D02*
X139613095Y-82856390D01*
X139613095Y-82856390D02*
X139613095Y-83237342D01*
X139613095Y-83237342D02*
X139660714Y-83332580D01*
X139660714Y-83332580D02*
X139708333Y-83380200D01*
X139708333Y-83380200D02*
X139803571Y-83427819D01*
X139803571Y-83427819D02*
X139994047Y-83427819D01*
X139994047Y-83427819D02*
X140089285Y-83380200D01*
X140089285Y-83380200D02*
X140136904Y-83332580D01*
X140136904Y-83332580D02*
X140184523Y-83237342D01*
X140184523Y-83237342D02*
X140184523Y-82999247D01*
X140184523Y-82999247D02*
X140136904Y-82904009D01*
X140136904Y-82904009D02*
X140089285Y-82856390D01*
X140089285Y-82856390D02*
X139994047Y-82808771D01*
X139994047Y-82808771D02*
X139803571Y-82808771D01*
X139803571Y-82808771D02*
X139708333Y-82856390D01*
X139708333Y-82856390D02*
X139660714Y-82904009D01*
X139660714Y-82904009D02*
X139613095Y-82999247D01*
X116136904Y-63225438D02*
X116041666Y-63177819D01*
X116041666Y-63177819D02*
X115898809Y-63177819D01*
X115898809Y-63177819D02*
X115755952Y-63225438D01*
X115755952Y-63225438D02*
X115660714Y-63320676D01*
X115660714Y-63320676D02*
X115613095Y-63415914D01*
X115613095Y-63415914D02*
X115565476Y-63606390D01*
X115565476Y-63606390D02*
X115565476Y-63749247D01*
X115565476Y-63749247D02*
X115613095Y-63939723D01*
X115613095Y-63939723D02*
X115660714Y-64034961D01*
X115660714Y-64034961D02*
X115755952Y-64130200D01*
X115755952Y-64130200D02*
X115898809Y-64177819D01*
X115898809Y-64177819D02*
X115994047Y-64177819D01*
X115994047Y-64177819D02*
X116136904Y-64130200D01*
X116136904Y-64130200D02*
X116184523Y-64082580D01*
X116184523Y-64082580D02*
X116184523Y-63749247D01*
X116184523Y-63749247D02*
X115994047Y-63749247D01*
X116613095Y-64177819D02*
X116613095Y-63177819D01*
X116613095Y-63177819D02*
X117184523Y-64177819D01*
X117184523Y-64177819D02*
X117184523Y-63177819D01*
X117660714Y-64177819D02*
X117660714Y-63177819D01*
X117660714Y-63177819D02*
X117898809Y-63177819D01*
X117898809Y-63177819D02*
X118041666Y-63225438D01*
X118041666Y-63225438D02*
X118136904Y-63320676D01*
X118136904Y-63320676D02*
X118184523Y-63415914D01*
X118184523Y-63415914D02*
X118232142Y-63606390D01*
X118232142Y-63606390D02*
X118232142Y-63749247D01*
X118232142Y-63749247D02*
X118184523Y-63939723D01*
X118184523Y-63939723D02*
X118136904Y-64034961D01*
X118136904Y-64034961D02*
X118041666Y-64130200D01*
X118041666Y-64130200D02*
X117898809Y-64177819D01*
X117898809Y-64177819D02*
X117660714Y-64177819D01*
X119136904Y-63177819D02*
X118660714Y-63177819D01*
X118660714Y-63177819D02*
X118613095Y-63654009D01*
X118613095Y-63654009D02*
X118660714Y-63606390D01*
X118660714Y-63606390D02*
X118755952Y-63558771D01*
X118755952Y-63558771D02*
X118994047Y-63558771D01*
X118994047Y-63558771D02*
X119089285Y-63606390D01*
X119089285Y-63606390D02*
X119136904Y-63654009D01*
X119136904Y-63654009D02*
X119184523Y-63749247D01*
X119184523Y-63749247D02*
X119184523Y-63987342D01*
X119184523Y-63987342D02*
X119136904Y-64082580D01*
X119136904Y-64082580D02*
X119089285Y-64130200D01*
X119089285Y-64130200D02*
X118994047Y-64177819D01*
X118994047Y-64177819D02*
X118755952Y-64177819D01*
X118755952Y-64177819D02*
X118660714Y-64130200D01*
X118660714Y-64130200D02*
X118613095Y-64082580D01*
X111911904Y-80727438D02*
X111816666Y-80679819D01*
X111816666Y-80679819D02*
X111673809Y-80679819D01*
X111673809Y-80679819D02*
X111530952Y-80727438D01*
X111530952Y-80727438D02*
X111435714Y-80822676D01*
X111435714Y-80822676D02*
X111388095Y-80917914D01*
X111388095Y-80917914D02*
X111340476Y-81108390D01*
X111340476Y-81108390D02*
X111340476Y-81251247D01*
X111340476Y-81251247D02*
X111388095Y-81441723D01*
X111388095Y-81441723D02*
X111435714Y-81536961D01*
X111435714Y-81536961D02*
X111530952Y-81632200D01*
X111530952Y-81632200D02*
X111673809Y-81679819D01*
X111673809Y-81679819D02*
X111769047Y-81679819D01*
X111769047Y-81679819D02*
X111911904Y-81632200D01*
X111911904Y-81632200D02*
X111959523Y-81584580D01*
X111959523Y-81584580D02*
X111959523Y-81251247D01*
X111959523Y-81251247D02*
X111769047Y-81251247D01*
X112388095Y-81679819D02*
X112388095Y-80679819D01*
X112388095Y-80679819D02*
X112959523Y-81679819D01*
X112959523Y-81679819D02*
X112959523Y-80679819D01*
X113435714Y-81679819D02*
X113435714Y-80679819D01*
X113435714Y-80679819D02*
X113673809Y-80679819D01*
X113673809Y-80679819D02*
X113816666Y-80727438D01*
X113816666Y-80727438D02*
X113911904Y-80822676D01*
X113911904Y-80822676D02*
X113959523Y-80917914D01*
X113959523Y-80917914D02*
X114007142Y-81108390D01*
X114007142Y-81108390D02*
X114007142Y-81251247D01*
X114007142Y-81251247D02*
X113959523Y-81441723D01*
X113959523Y-81441723D02*
X113911904Y-81536961D01*
X113911904Y-81536961D02*
X113816666Y-81632200D01*
X113816666Y-81632200D02*
X113673809Y-81679819D01*
X113673809Y-81679819D02*
X113435714Y-81679819D01*
X114864285Y-81013152D02*
X114864285Y-81679819D01*
X114626190Y-80632200D02*
X114388095Y-81346485D01*
X114388095Y-81346485D02*
X115007142Y-81346485D01*
X114816666Y-54158009D02*
X114483333Y-54158009D01*
X114483333Y-54681819D02*
X114483333Y-53681819D01*
X114483333Y-53681819D02*
X114959523Y-53681819D01*
X115673809Y-54158009D02*
X115816666Y-54205628D01*
X115816666Y-54205628D02*
X115864285Y-54253247D01*
X115864285Y-54253247D02*
X115911904Y-54348485D01*
X115911904Y-54348485D02*
X115911904Y-54491342D01*
X115911904Y-54491342D02*
X115864285Y-54586580D01*
X115864285Y-54586580D02*
X115816666Y-54634200D01*
X115816666Y-54634200D02*
X115721428Y-54681819D01*
X115721428Y-54681819D02*
X115340476Y-54681819D01*
X115340476Y-54681819D02*
X115340476Y-53681819D01*
X115340476Y-53681819D02*
X115673809Y-53681819D01*
X115673809Y-53681819D02*
X115769047Y-53729438D01*
X115769047Y-53729438D02*
X115816666Y-53777057D01*
X115816666Y-53777057D02*
X115864285Y-53872295D01*
X115864285Y-53872295D02*
X115864285Y-53967533D01*
X115864285Y-53967533D02*
X115816666Y-54062771D01*
X115816666Y-54062771D02*
X115769047Y-54110390D01*
X115769047Y-54110390D02*
X115673809Y-54158009D01*
X115673809Y-54158009D02*
X115340476Y-54158009D01*
X116864285Y-54681819D02*
X116292857Y-54681819D01*
X116578571Y-54681819D02*
X116578571Y-53681819D01*
X116578571Y-53681819D02*
X116483333Y-53824676D01*
X116483333Y-53824676D02*
X116388095Y-53919914D01*
X116388095Y-53919914D02*
X116292857Y-53967533D01*
X139541666Y-64404009D02*
X139208333Y-64404009D01*
X139208333Y-64927819D02*
X139208333Y-63927819D01*
X139208333Y-63927819D02*
X139684523Y-63927819D01*
X140398809Y-64404009D02*
X140541666Y-64451628D01*
X140541666Y-64451628D02*
X140589285Y-64499247D01*
X140589285Y-64499247D02*
X140636904Y-64594485D01*
X140636904Y-64594485D02*
X140636904Y-64737342D01*
X140636904Y-64737342D02*
X140589285Y-64832580D01*
X140589285Y-64832580D02*
X140541666Y-64880200D01*
X140541666Y-64880200D02*
X140446428Y-64927819D01*
X140446428Y-64927819D02*
X140065476Y-64927819D01*
X140065476Y-64927819D02*
X140065476Y-63927819D01*
X140065476Y-63927819D02*
X140398809Y-63927819D01*
X140398809Y-63927819D02*
X140494047Y-63975438D01*
X140494047Y-63975438D02*
X140541666Y-64023057D01*
X140541666Y-64023057D02*
X140589285Y-64118295D01*
X140589285Y-64118295D02*
X140589285Y-64213533D01*
X140589285Y-64213533D02*
X140541666Y-64308771D01*
X140541666Y-64308771D02*
X140494047Y-64356390D01*
X140494047Y-64356390D02*
X140398809Y-64404009D01*
X140398809Y-64404009D02*
X140065476Y-64404009D01*
X141017857Y-64023057D02*
X141065476Y-63975438D01*
X141065476Y-63975438D02*
X141160714Y-63927819D01*
X141160714Y-63927819D02*
X141398809Y-63927819D01*
X141398809Y-63927819D02*
X141494047Y-63975438D01*
X141494047Y-63975438D02*
X141541666Y-64023057D01*
X141541666Y-64023057D02*
X141589285Y-64118295D01*
X141589285Y-64118295D02*
X141589285Y-64213533D01*
X141589285Y-64213533D02*
X141541666Y-64356390D01*
X141541666Y-64356390D02*
X140970238Y-64927819D01*
X140970238Y-64927819D02*
X141589285Y-64927819D01*
X115757142Y-52334580D02*
X115709523Y-52382200D01*
X115709523Y-52382200D02*
X115566666Y-52429819D01*
X115566666Y-52429819D02*
X115471428Y-52429819D01*
X115471428Y-52429819D02*
X115328571Y-52382200D01*
X115328571Y-52382200D02*
X115233333Y-52286961D01*
X115233333Y-52286961D02*
X115185714Y-52191723D01*
X115185714Y-52191723D02*
X115138095Y-52001247D01*
X115138095Y-52001247D02*
X115138095Y-51858390D01*
X115138095Y-51858390D02*
X115185714Y-51667914D01*
X115185714Y-51667914D02*
X115233333Y-51572676D01*
X115233333Y-51572676D02*
X115328571Y-51477438D01*
X115328571Y-51477438D02*
X115471428Y-51429819D01*
X115471428Y-51429819D02*
X115566666Y-51429819D01*
X115566666Y-51429819D02*
X115709523Y-51477438D01*
X115709523Y-51477438D02*
X115757142Y-51525057D01*
X116709523Y-52429819D02*
X116138095Y-52429819D01*
X116423809Y-52429819D02*
X116423809Y-51429819D01*
X116423809Y-51429819D02*
X116328571Y-51572676D01*
X116328571Y-51572676D02*
X116233333Y-51667914D01*
X116233333Y-51667914D02*
X116138095Y-51715533D01*
X117090476Y-51525057D02*
X117138095Y-51477438D01*
X117138095Y-51477438D02*
X117233333Y-51429819D01*
X117233333Y-51429819D02*
X117471428Y-51429819D01*
X117471428Y-51429819D02*
X117566666Y-51477438D01*
X117566666Y-51477438D02*
X117614285Y-51525057D01*
X117614285Y-51525057D02*
X117661904Y-51620295D01*
X117661904Y-51620295D02*
X117661904Y-51715533D01*
X117661904Y-51715533D02*
X117614285Y-51858390D01*
X117614285Y-51858390D02*
X117042857Y-52429819D01*
X117042857Y-52429819D02*
X117661904Y-52429819D01*
X140257142Y-34584580D02*
X140209523Y-34632200D01*
X140209523Y-34632200D02*
X140066666Y-34679819D01*
X140066666Y-34679819D02*
X139971428Y-34679819D01*
X139971428Y-34679819D02*
X139828571Y-34632200D01*
X139828571Y-34632200D02*
X139733333Y-34536961D01*
X139733333Y-34536961D02*
X139685714Y-34441723D01*
X139685714Y-34441723D02*
X139638095Y-34251247D01*
X139638095Y-34251247D02*
X139638095Y-34108390D01*
X139638095Y-34108390D02*
X139685714Y-33917914D01*
X139685714Y-33917914D02*
X139733333Y-33822676D01*
X139733333Y-33822676D02*
X139828571Y-33727438D01*
X139828571Y-33727438D02*
X139971428Y-33679819D01*
X139971428Y-33679819D02*
X140066666Y-33679819D01*
X140066666Y-33679819D02*
X140209523Y-33727438D01*
X140209523Y-33727438D02*
X140257142Y-33775057D01*
X141209523Y-34679819D02*
X140638095Y-34679819D01*
X140923809Y-34679819D02*
X140923809Y-33679819D01*
X140923809Y-33679819D02*
X140828571Y-33822676D01*
X140828571Y-33822676D02*
X140733333Y-33917914D01*
X140733333Y-33917914D02*
X140638095Y-33965533D01*
X142161904Y-34679819D02*
X141590476Y-34679819D01*
X141876190Y-34679819D02*
X141876190Y-33679819D01*
X141876190Y-33679819D02*
X141780952Y-33822676D01*
X141780952Y-33822676D02*
X141685714Y-33917914D01*
X141685714Y-33917914D02*
X141590476Y-33965533D01*
X135507142Y-51584580D02*
X135459523Y-51632200D01*
X135459523Y-51632200D02*
X135316666Y-51679819D01*
X135316666Y-51679819D02*
X135221428Y-51679819D01*
X135221428Y-51679819D02*
X135078571Y-51632200D01*
X135078571Y-51632200D02*
X134983333Y-51536961D01*
X134983333Y-51536961D02*
X134935714Y-51441723D01*
X134935714Y-51441723D02*
X134888095Y-51251247D01*
X134888095Y-51251247D02*
X134888095Y-51108390D01*
X134888095Y-51108390D02*
X134935714Y-50917914D01*
X134935714Y-50917914D02*
X134983333Y-50822676D01*
X134983333Y-50822676D02*
X135078571Y-50727438D01*
X135078571Y-50727438D02*
X135221428Y-50679819D01*
X135221428Y-50679819D02*
X135316666Y-50679819D01*
X135316666Y-50679819D02*
X135459523Y-50727438D01*
X135459523Y-50727438D02*
X135507142Y-50775057D01*
X136459523Y-51679819D02*
X135888095Y-51679819D01*
X136173809Y-51679819D02*
X136173809Y-50679819D01*
X136173809Y-50679819D02*
X136078571Y-50822676D01*
X136078571Y-50822676D02*
X135983333Y-50917914D01*
X135983333Y-50917914D02*
X135888095Y-50965533D01*
X137078571Y-50679819D02*
X137173809Y-50679819D01*
X137173809Y-50679819D02*
X137269047Y-50727438D01*
X137269047Y-50727438D02*
X137316666Y-50775057D01*
X137316666Y-50775057D02*
X137364285Y-50870295D01*
X137364285Y-50870295D02*
X137411904Y-51060771D01*
X137411904Y-51060771D02*
X137411904Y-51298866D01*
X137411904Y-51298866D02*
X137364285Y-51489342D01*
X137364285Y-51489342D02*
X137316666Y-51584580D01*
X137316666Y-51584580D02*
X137269047Y-51632200D01*
X137269047Y-51632200D02*
X137173809Y-51679819D01*
X137173809Y-51679819D02*
X137078571Y-51679819D01*
X137078571Y-51679819D02*
X136983333Y-51632200D01*
X136983333Y-51632200D02*
X136935714Y-51584580D01*
X136935714Y-51584580D02*
X136888095Y-51489342D01*
X136888095Y-51489342D02*
X136840476Y-51298866D01*
X136840476Y-51298866D02*
X136840476Y-51060771D01*
X136840476Y-51060771D02*
X136888095Y-50870295D01*
X136888095Y-50870295D02*
X136935714Y-50775057D01*
X136935714Y-50775057D02*
X136983333Y-50727438D01*
X136983333Y-50727438D02*
X137078571Y-50679819D01*
X140233333Y-38084580D02*
X140185714Y-38132200D01*
X140185714Y-38132200D02*
X140042857Y-38179819D01*
X140042857Y-38179819D02*
X139947619Y-38179819D01*
X139947619Y-38179819D02*
X139804762Y-38132200D01*
X139804762Y-38132200D02*
X139709524Y-38036961D01*
X139709524Y-38036961D02*
X139661905Y-37941723D01*
X139661905Y-37941723D02*
X139614286Y-37751247D01*
X139614286Y-37751247D02*
X139614286Y-37608390D01*
X139614286Y-37608390D02*
X139661905Y-37417914D01*
X139661905Y-37417914D02*
X139709524Y-37322676D01*
X139709524Y-37322676D02*
X139804762Y-37227438D01*
X139804762Y-37227438D02*
X139947619Y-37179819D01*
X139947619Y-37179819D02*
X140042857Y-37179819D01*
X140042857Y-37179819D02*
X140185714Y-37227438D01*
X140185714Y-37227438D02*
X140233333Y-37275057D01*
X140709524Y-38179819D02*
X140900000Y-38179819D01*
X140900000Y-38179819D02*
X140995238Y-38132200D01*
X140995238Y-38132200D02*
X141042857Y-38084580D01*
X141042857Y-38084580D02*
X141138095Y-37941723D01*
X141138095Y-37941723D02*
X141185714Y-37751247D01*
X141185714Y-37751247D02*
X141185714Y-37370295D01*
X141185714Y-37370295D02*
X141138095Y-37275057D01*
X141138095Y-37275057D02*
X141090476Y-37227438D01*
X141090476Y-37227438D02*
X140995238Y-37179819D01*
X140995238Y-37179819D02*
X140804762Y-37179819D01*
X140804762Y-37179819D02*
X140709524Y-37227438D01*
X140709524Y-37227438D02*
X140661905Y-37275057D01*
X140661905Y-37275057D02*
X140614286Y-37370295D01*
X140614286Y-37370295D02*
X140614286Y-37608390D01*
X140614286Y-37608390D02*
X140661905Y-37703628D01*
X140661905Y-37703628D02*
X140709524Y-37751247D01*
X140709524Y-37751247D02*
X140804762Y-37798866D01*
X140804762Y-37798866D02*
X140995238Y-37798866D01*
X140995238Y-37798866D02*
X141090476Y-37751247D01*
X141090476Y-37751247D02*
X141138095Y-37703628D01*
X141138095Y-37703628D02*
X141185714Y-37608390D01*
X133309580Y-52891666D02*
X133357200Y-52939285D01*
X133357200Y-52939285D02*
X133404819Y-53082142D01*
X133404819Y-53082142D02*
X133404819Y-53177380D01*
X133404819Y-53177380D02*
X133357200Y-53320237D01*
X133357200Y-53320237D02*
X133261961Y-53415475D01*
X133261961Y-53415475D02*
X133166723Y-53463094D01*
X133166723Y-53463094D02*
X132976247Y-53510713D01*
X132976247Y-53510713D02*
X132833390Y-53510713D01*
X132833390Y-53510713D02*
X132642914Y-53463094D01*
X132642914Y-53463094D02*
X132547676Y-53415475D01*
X132547676Y-53415475D02*
X132452438Y-53320237D01*
X132452438Y-53320237D02*
X132404819Y-53177380D01*
X132404819Y-53177380D02*
X132404819Y-53082142D01*
X132404819Y-53082142D02*
X132452438Y-52939285D01*
X132452438Y-52939285D02*
X132500057Y-52891666D01*
X132833390Y-52320237D02*
X132785771Y-52415475D01*
X132785771Y-52415475D02*
X132738152Y-52463094D01*
X132738152Y-52463094D02*
X132642914Y-52510713D01*
X132642914Y-52510713D02*
X132595295Y-52510713D01*
X132595295Y-52510713D02*
X132500057Y-52463094D01*
X132500057Y-52463094D02*
X132452438Y-52415475D01*
X132452438Y-52415475D02*
X132404819Y-52320237D01*
X132404819Y-52320237D02*
X132404819Y-52129761D01*
X132404819Y-52129761D02*
X132452438Y-52034523D01*
X132452438Y-52034523D02*
X132500057Y-51986904D01*
X132500057Y-51986904D02*
X132595295Y-51939285D01*
X132595295Y-51939285D02*
X132642914Y-51939285D01*
X132642914Y-51939285D02*
X132738152Y-51986904D01*
X132738152Y-51986904D02*
X132785771Y-52034523D01*
X132785771Y-52034523D02*
X132833390Y-52129761D01*
X132833390Y-52129761D02*
X132833390Y-52320237D01*
X132833390Y-52320237D02*
X132881009Y-52415475D01*
X132881009Y-52415475D02*
X132928628Y-52463094D01*
X132928628Y-52463094D02*
X133023866Y-52510713D01*
X133023866Y-52510713D02*
X133214342Y-52510713D01*
X133214342Y-52510713D02*
X133309580Y-52463094D01*
X133309580Y-52463094D02*
X133357200Y-52415475D01*
X133357200Y-52415475D02*
X133404819Y-52320237D01*
X133404819Y-52320237D02*
X133404819Y-52129761D01*
X133404819Y-52129761D02*
X133357200Y-52034523D01*
X133357200Y-52034523D02*
X133309580Y-51986904D01*
X133309580Y-51986904D02*
X133214342Y-51939285D01*
X133214342Y-51939285D02*
X133023866Y-51939285D01*
X133023866Y-51939285D02*
X132928628Y-51986904D01*
X132928628Y-51986904D02*
X132881009Y-52034523D01*
X132881009Y-52034523D02*
X132833390Y-52129761D01*
X143483333Y-49834580D02*
X143435714Y-49882200D01*
X143435714Y-49882200D02*
X143292857Y-49929819D01*
X143292857Y-49929819D02*
X143197619Y-49929819D01*
X143197619Y-49929819D02*
X143054762Y-49882200D01*
X143054762Y-49882200D02*
X142959524Y-49786961D01*
X142959524Y-49786961D02*
X142911905Y-49691723D01*
X142911905Y-49691723D02*
X142864286Y-49501247D01*
X142864286Y-49501247D02*
X142864286Y-49358390D01*
X142864286Y-49358390D02*
X142911905Y-49167914D01*
X142911905Y-49167914D02*
X142959524Y-49072676D01*
X142959524Y-49072676D02*
X143054762Y-48977438D01*
X143054762Y-48977438D02*
X143197619Y-48929819D01*
X143197619Y-48929819D02*
X143292857Y-48929819D01*
X143292857Y-48929819D02*
X143435714Y-48977438D01*
X143435714Y-48977438D02*
X143483333Y-49025057D01*
X143816667Y-48929819D02*
X144483333Y-48929819D01*
X144483333Y-48929819D02*
X144054762Y-49929819D01*
X120983333Y-38084580D02*
X120935714Y-38132200D01*
X120935714Y-38132200D02*
X120792857Y-38179819D01*
X120792857Y-38179819D02*
X120697619Y-38179819D01*
X120697619Y-38179819D02*
X120554762Y-38132200D01*
X120554762Y-38132200D02*
X120459524Y-38036961D01*
X120459524Y-38036961D02*
X120411905Y-37941723D01*
X120411905Y-37941723D02*
X120364286Y-37751247D01*
X120364286Y-37751247D02*
X120364286Y-37608390D01*
X120364286Y-37608390D02*
X120411905Y-37417914D01*
X120411905Y-37417914D02*
X120459524Y-37322676D01*
X120459524Y-37322676D02*
X120554762Y-37227438D01*
X120554762Y-37227438D02*
X120697619Y-37179819D01*
X120697619Y-37179819D02*
X120792857Y-37179819D01*
X120792857Y-37179819D02*
X120935714Y-37227438D01*
X120935714Y-37227438D02*
X120983333Y-37275057D01*
X121840476Y-37179819D02*
X121650000Y-37179819D01*
X121650000Y-37179819D02*
X121554762Y-37227438D01*
X121554762Y-37227438D02*
X121507143Y-37275057D01*
X121507143Y-37275057D02*
X121411905Y-37417914D01*
X121411905Y-37417914D02*
X121364286Y-37608390D01*
X121364286Y-37608390D02*
X121364286Y-37989342D01*
X121364286Y-37989342D02*
X121411905Y-38084580D01*
X121411905Y-38084580D02*
X121459524Y-38132200D01*
X121459524Y-38132200D02*
X121554762Y-38179819D01*
X121554762Y-38179819D02*
X121745238Y-38179819D01*
X121745238Y-38179819D02*
X121840476Y-38132200D01*
X121840476Y-38132200D02*
X121888095Y-38084580D01*
X121888095Y-38084580D02*
X121935714Y-37989342D01*
X121935714Y-37989342D02*
X121935714Y-37751247D01*
X121935714Y-37751247D02*
X121888095Y-37656009D01*
X121888095Y-37656009D02*
X121840476Y-37608390D01*
X121840476Y-37608390D02*
X121745238Y-37560771D01*
X121745238Y-37560771D02*
X121554762Y-37560771D01*
X121554762Y-37560771D02*
X121459524Y-37608390D01*
X121459524Y-37608390D02*
X121411905Y-37656009D01*
X121411905Y-37656009D02*
X121364286Y-37751247D01*
X120983333Y-34584580D02*
X120935714Y-34632200D01*
X120935714Y-34632200D02*
X120792857Y-34679819D01*
X120792857Y-34679819D02*
X120697619Y-34679819D01*
X120697619Y-34679819D02*
X120554762Y-34632200D01*
X120554762Y-34632200D02*
X120459524Y-34536961D01*
X120459524Y-34536961D02*
X120411905Y-34441723D01*
X120411905Y-34441723D02*
X120364286Y-34251247D01*
X120364286Y-34251247D02*
X120364286Y-34108390D01*
X120364286Y-34108390D02*
X120411905Y-33917914D01*
X120411905Y-33917914D02*
X120459524Y-33822676D01*
X120459524Y-33822676D02*
X120554762Y-33727438D01*
X120554762Y-33727438D02*
X120697619Y-33679819D01*
X120697619Y-33679819D02*
X120792857Y-33679819D01*
X120792857Y-33679819D02*
X120935714Y-33727438D01*
X120935714Y-33727438D02*
X120983333Y-33775057D01*
X121888095Y-33679819D02*
X121411905Y-33679819D01*
X121411905Y-33679819D02*
X121364286Y-34156009D01*
X121364286Y-34156009D02*
X121411905Y-34108390D01*
X121411905Y-34108390D02*
X121507143Y-34060771D01*
X121507143Y-34060771D02*
X121745238Y-34060771D01*
X121745238Y-34060771D02*
X121840476Y-34108390D01*
X121840476Y-34108390D02*
X121888095Y-34156009D01*
X121888095Y-34156009D02*
X121935714Y-34251247D01*
X121935714Y-34251247D02*
X121935714Y-34489342D01*
X121935714Y-34489342D02*
X121888095Y-34584580D01*
X121888095Y-34584580D02*
X121840476Y-34632200D01*
X121840476Y-34632200D02*
X121745238Y-34679819D01*
X121745238Y-34679819D02*
X121507143Y-34679819D01*
X121507143Y-34679819D02*
X121411905Y-34632200D01*
X121411905Y-34632200D02*
X121364286Y-34584580D01*
X112259580Y-43864265D02*
X112307200Y-43911884D01*
X112307200Y-43911884D02*
X112354819Y-44054741D01*
X112354819Y-44054741D02*
X112354819Y-44149979D01*
X112354819Y-44149979D02*
X112307200Y-44292836D01*
X112307200Y-44292836D02*
X112211961Y-44388074D01*
X112211961Y-44388074D02*
X112116723Y-44435693D01*
X112116723Y-44435693D02*
X111926247Y-44483312D01*
X111926247Y-44483312D02*
X111783390Y-44483312D01*
X111783390Y-44483312D02*
X111592914Y-44435693D01*
X111592914Y-44435693D02*
X111497676Y-44388074D01*
X111497676Y-44388074D02*
X111402438Y-44292836D01*
X111402438Y-44292836D02*
X111354819Y-44149979D01*
X111354819Y-44149979D02*
X111354819Y-44054741D01*
X111354819Y-44054741D02*
X111402438Y-43911884D01*
X111402438Y-43911884D02*
X111450057Y-43864265D01*
X111688152Y-43007122D02*
X112354819Y-43007122D01*
X111307200Y-43245217D02*
X112021485Y-43483312D01*
X112021485Y-43483312D02*
X112021485Y-42864265D01*
X123328333Y-59134580D02*
X123280714Y-59182200D01*
X123280714Y-59182200D02*
X123137857Y-59229819D01*
X123137857Y-59229819D02*
X123042619Y-59229819D01*
X123042619Y-59229819D02*
X122899762Y-59182200D01*
X122899762Y-59182200D02*
X122804524Y-59086961D01*
X122804524Y-59086961D02*
X122756905Y-58991723D01*
X122756905Y-58991723D02*
X122709286Y-58801247D01*
X122709286Y-58801247D02*
X122709286Y-58658390D01*
X122709286Y-58658390D02*
X122756905Y-58467914D01*
X122756905Y-58467914D02*
X122804524Y-58372676D01*
X122804524Y-58372676D02*
X122899762Y-58277438D01*
X122899762Y-58277438D02*
X123042619Y-58229819D01*
X123042619Y-58229819D02*
X123137857Y-58229819D01*
X123137857Y-58229819D02*
X123280714Y-58277438D01*
X123280714Y-58277438D02*
X123328333Y-58325057D01*
X123661667Y-58229819D02*
X124280714Y-58229819D01*
X124280714Y-58229819D02*
X123947381Y-58610771D01*
X123947381Y-58610771D02*
X124090238Y-58610771D01*
X124090238Y-58610771D02*
X124185476Y-58658390D01*
X124185476Y-58658390D02*
X124233095Y-58706009D01*
X124233095Y-58706009D02*
X124280714Y-58801247D01*
X124280714Y-58801247D02*
X124280714Y-59039342D01*
X124280714Y-59039342D02*
X124233095Y-59134580D01*
X124233095Y-59134580D02*
X124185476Y-59182200D01*
X124185476Y-59182200D02*
X124090238Y-59229819D01*
X124090238Y-59229819D02*
X123804524Y-59229819D01*
X123804524Y-59229819D02*
X123709286Y-59182200D01*
X123709286Y-59182200D02*
X123661667Y-59134580D01*
X139983333Y-41784580D02*
X139935714Y-41832200D01*
X139935714Y-41832200D02*
X139792857Y-41879819D01*
X139792857Y-41879819D02*
X139697619Y-41879819D01*
X139697619Y-41879819D02*
X139554762Y-41832200D01*
X139554762Y-41832200D02*
X139459524Y-41736961D01*
X139459524Y-41736961D02*
X139411905Y-41641723D01*
X139411905Y-41641723D02*
X139364286Y-41451247D01*
X139364286Y-41451247D02*
X139364286Y-41308390D01*
X139364286Y-41308390D02*
X139411905Y-41117914D01*
X139411905Y-41117914D02*
X139459524Y-41022676D01*
X139459524Y-41022676D02*
X139554762Y-40927438D01*
X139554762Y-40927438D02*
X139697619Y-40879819D01*
X139697619Y-40879819D02*
X139792857Y-40879819D01*
X139792857Y-40879819D02*
X139935714Y-40927438D01*
X139935714Y-40927438D02*
X139983333Y-40975057D01*
X140364286Y-40975057D02*
X140411905Y-40927438D01*
X140411905Y-40927438D02*
X140507143Y-40879819D01*
X140507143Y-40879819D02*
X140745238Y-40879819D01*
X140745238Y-40879819D02*
X140840476Y-40927438D01*
X140840476Y-40927438D02*
X140888095Y-40975057D01*
X140888095Y-40975057D02*
X140935714Y-41070295D01*
X140935714Y-41070295D02*
X140935714Y-41165533D01*
X140935714Y-41165533D02*
X140888095Y-41308390D01*
X140888095Y-41308390D02*
X140316667Y-41879819D01*
X140316667Y-41879819D02*
X140935714Y-41879819D01*
X119733333Y-40584580D02*
X119685714Y-40632200D01*
X119685714Y-40632200D02*
X119542857Y-40679819D01*
X119542857Y-40679819D02*
X119447619Y-40679819D01*
X119447619Y-40679819D02*
X119304762Y-40632200D01*
X119304762Y-40632200D02*
X119209524Y-40536961D01*
X119209524Y-40536961D02*
X119161905Y-40441723D01*
X119161905Y-40441723D02*
X119114286Y-40251247D01*
X119114286Y-40251247D02*
X119114286Y-40108390D01*
X119114286Y-40108390D02*
X119161905Y-39917914D01*
X119161905Y-39917914D02*
X119209524Y-39822676D01*
X119209524Y-39822676D02*
X119304762Y-39727438D01*
X119304762Y-39727438D02*
X119447619Y-39679819D01*
X119447619Y-39679819D02*
X119542857Y-39679819D01*
X119542857Y-39679819D02*
X119685714Y-39727438D01*
X119685714Y-39727438D02*
X119733333Y-39775057D01*
X120685714Y-40679819D02*
X120114286Y-40679819D01*
X120400000Y-40679819D02*
X120400000Y-39679819D01*
X120400000Y-39679819D02*
X120304762Y-39822676D01*
X120304762Y-39822676D02*
X120209524Y-39917914D01*
X120209524Y-39917914D02*
X120114286Y-39965533D01*
X138982142Y-67084580D02*
X138934523Y-67132200D01*
X138934523Y-67132200D02*
X138791666Y-67179819D01*
X138791666Y-67179819D02*
X138696428Y-67179819D01*
X138696428Y-67179819D02*
X138553571Y-67132200D01*
X138553571Y-67132200D02*
X138458333Y-67036961D01*
X138458333Y-67036961D02*
X138410714Y-66941723D01*
X138410714Y-66941723D02*
X138363095Y-66751247D01*
X138363095Y-66751247D02*
X138363095Y-66608390D01*
X138363095Y-66608390D02*
X138410714Y-66417914D01*
X138410714Y-66417914D02*
X138458333Y-66322676D01*
X138458333Y-66322676D02*
X138553571Y-66227438D01*
X138553571Y-66227438D02*
X138696428Y-66179819D01*
X138696428Y-66179819D02*
X138791666Y-66179819D01*
X138791666Y-66179819D02*
X138934523Y-66227438D01*
X138934523Y-66227438D02*
X138982142Y-66275057D01*
X139363095Y-66275057D02*
X139410714Y-66227438D01*
X139410714Y-66227438D02*
X139505952Y-66179819D01*
X139505952Y-66179819D02*
X139744047Y-66179819D01*
X139744047Y-66179819D02*
X139839285Y-66227438D01*
X139839285Y-66227438D02*
X139886904Y-66275057D01*
X139886904Y-66275057D02*
X139934523Y-66370295D01*
X139934523Y-66370295D02*
X139934523Y-66465533D01*
X139934523Y-66465533D02*
X139886904Y-66608390D01*
X139886904Y-66608390D02*
X139315476Y-67179819D01*
X139315476Y-67179819D02*
X139934523Y-67179819D01*
X140791666Y-66513152D02*
X140791666Y-67179819D01*
X140553571Y-66132200D02*
X140315476Y-66846485D01*
X140315476Y-66846485D02*
X140934523Y-66846485D01*
X114482142Y-84834580D02*
X114434523Y-84882200D01*
X114434523Y-84882200D02*
X114291666Y-84929819D01*
X114291666Y-84929819D02*
X114196428Y-84929819D01*
X114196428Y-84929819D02*
X114053571Y-84882200D01*
X114053571Y-84882200D02*
X113958333Y-84786961D01*
X113958333Y-84786961D02*
X113910714Y-84691723D01*
X113910714Y-84691723D02*
X113863095Y-84501247D01*
X113863095Y-84501247D02*
X113863095Y-84358390D01*
X113863095Y-84358390D02*
X113910714Y-84167914D01*
X113910714Y-84167914D02*
X113958333Y-84072676D01*
X113958333Y-84072676D02*
X114053571Y-83977438D01*
X114053571Y-83977438D02*
X114196428Y-83929819D01*
X114196428Y-83929819D02*
X114291666Y-83929819D01*
X114291666Y-83929819D02*
X114434523Y-83977438D01*
X114434523Y-83977438D02*
X114482142Y-84025057D01*
X114863095Y-84025057D02*
X114910714Y-83977438D01*
X114910714Y-83977438D02*
X115005952Y-83929819D01*
X115005952Y-83929819D02*
X115244047Y-83929819D01*
X115244047Y-83929819D02*
X115339285Y-83977438D01*
X115339285Y-83977438D02*
X115386904Y-84025057D01*
X115386904Y-84025057D02*
X115434523Y-84120295D01*
X115434523Y-84120295D02*
X115434523Y-84215533D01*
X115434523Y-84215533D02*
X115386904Y-84358390D01*
X115386904Y-84358390D02*
X114815476Y-84929819D01*
X114815476Y-84929819D02*
X115434523Y-84929819D01*
X115767857Y-83929819D02*
X116386904Y-83929819D01*
X116386904Y-83929819D02*
X116053571Y-84310771D01*
X116053571Y-84310771D02*
X116196428Y-84310771D01*
X116196428Y-84310771D02*
X116291666Y-84358390D01*
X116291666Y-84358390D02*
X116339285Y-84406009D01*
X116339285Y-84406009D02*
X116386904Y-84501247D01*
X116386904Y-84501247D02*
X116386904Y-84739342D01*
X116386904Y-84739342D02*
X116339285Y-84834580D01*
X116339285Y-84834580D02*
X116291666Y-84882200D01*
X116291666Y-84882200D02*
X116196428Y-84929819D01*
X116196428Y-84929819D02*
X115910714Y-84929819D01*
X115910714Y-84929819D02*
X115815476Y-84882200D01*
X115815476Y-84882200D02*
X115767857Y-84834580D01*
X119232142Y-67834580D02*
X119184523Y-67882200D01*
X119184523Y-67882200D02*
X119041666Y-67929819D01*
X119041666Y-67929819D02*
X118946428Y-67929819D01*
X118946428Y-67929819D02*
X118803571Y-67882200D01*
X118803571Y-67882200D02*
X118708333Y-67786961D01*
X118708333Y-67786961D02*
X118660714Y-67691723D01*
X118660714Y-67691723D02*
X118613095Y-67501247D01*
X118613095Y-67501247D02*
X118613095Y-67358390D01*
X118613095Y-67358390D02*
X118660714Y-67167914D01*
X118660714Y-67167914D02*
X118708333Y-67072676D01*
X118708333Y-67072676D02*
X118803571Y-66977438D01*
X118803571Y-66977438D02*
X118946428Y-66929819D01*
X118946428Y-66929819D02*
X119041666Y-66929819D01*
X119041666Y-66929819D02*
X119184523Y-66977438D01*
X119184523Y-66977438D02*
X119232142Y-67025057D01*
X119613095Y-67025057D02*
X119660714Y-66977438D01*
X119660714Y-66977438D02*
X119755952Y-66929819D01*
X119755952Y-66929819D02*
X119994047Y-66929819D01*
X119994047Y-66929819D02*
X120089285Y-66977438D01*
X120089285Y-66977438D02*
X120136904Y-67025057D01*
X120136904Y-67025057D02*
X120184523Y-67120295D01*
X120184523Y-67120295D02*
X120184523Y-67215533D01*
X120184523Y-67215533D02*
X120136904Y-67358390D01*
X120136904Y-67358390D02*
X119565476Y-67929819D01*
X119565476Y-67929819D02*
X120184523Y-67929819D01*
X120565476Y-67025057D02*
X120613095Y-66977438D01*
X120613095Y-66977438D02*
X120708333Y-66929819D01*
X120708333Y-66929819D02*
X120946428Y-66929819D01*
X120946428Y-66929819D02*
X121041666Y-66977438D01*
X121041666Y-66977438D02*
X121089285Y-67025057D01*
X121089285Y-67025057D02*
X121136904Y-67120295D01*
X121136904Y-67120295D02*
X121136904Y-67215533D01*
X121136904Y-67215533D02*
X121089285Y-67358390D01*
X121089285Y-67358390D02*
X120517857Y-67929819D01*
X120517857Y-67929819D02*
X121136904Y-67929819D01*
X134232142Y-81334580D02*
X134184523Y-81382200D01*
X134184523Y-81382200D02*
X134041666Y-81429819D01*
X134041666Y-81429819D02*
X133946428Y-81429819D01*
X133946428Y-81429819D02*
X133803571Y-81382200D01*
X133803571Y-81382200D02*
X133708333Y-81286961D01*
X133708333Y-81286961D02*
X133660714Y-81191723D01*
X133660714Y-81191723D02*
X133613095Y-81001247D01*
X133613095Y-81001247D02*
X133613095Y-80858390D01*
X133613095Y-80858390D02*
X133660714Y-80667914D01*
X133660714Y-80667914D02*
X133708333Y-80572676D01*
X133708333Y-80572676D02*
X133803571Y-80477438D01*
X133803571Y-80477438D02*
X133946428Y-80429819D01*
X133946428Y-80429819D02*
X134041666Y-80429819D01*
X134041666Y-80429819D02*
X134184523Y-80477438D01*
X134184523Y-80477438D02*
X134232142Y-80525057D01*
X134613095Y-80525057D02*
X134660714Y-80477438D01*
X134660714Y-80477438D02*
X134755952Y-80429819D01*
X134755952Y-80429819D02*
X134994047Y-80429819D01*
X134994047Y-80429819D02*
X135089285Y-80477438D01*
X135089285Y-80477438D02*
X135136904Y-80525057D01*
X135136904Y-80525057D02*
X135184523Y-80620295D01*
X135184523Y-80620295D02*
X135184523Y-80715533D01*
X135184523Y-80715533D02*
X135136904Y-80858390D01*
X135136904Y-80858390D02*
X134565476Y-81429819D01*
X134565476Y-81429819D02*
X135184523Y-81429819D01*
X136136904Y-81429819D02*
X135565476Y-81429819D01*
X135851190Y-81429819D02*
X135851190Y-80429819D01*
X135851190Y-80429819D02*
X135755952Y-80572676D01*
X135755952Y-80572676D02*
X135660714Y-80667914D01*
X135660714Y-80667914D02*
X135565476Y-80715533D01*
X123434580Y-66617857D02*
X123482200Y-66665476D01*
X123482200Y-66665476D02*
X123529819Y-66808333D01*
X123529819Y-66808333D02*
X123529819Y-66903571D01*
X123529819Y-66903571D02*
X123482200Y-67046428D01*
X123482200Y-67046428D02*
X123386961Y-67141666D01*
X123386961Y-67141666D02*
X123291723Y-67189285D01*
X123291723Y-67189285D02*
X123101247Y-67236904D01*
X123101247Y-67236904D02*
X122958390Y-67236904D01*
X122958390Y-67236904D02*
X122767914Y-67189285D01*
X122767914Y-67189285D02*
X122672676Y-67141666D01*
X122672676Y-67141666D02*
X122577438Y-67046428D01*
X122577438Y-67046428D02*
X122529819Y-66903571D01*
X122529819Y-66903571D02*
X122529819Y-66808333D01*
X122529819Y-66808333D02*
X122577438Y-66665476D01*
X122577438Y-66665476D02*
X122625057Y-66617857D01*
X122625057Y-66236904D02*
X122577438Y-66189285D01*
X122577438Y-66189285D02*
X122529819Y-66094047D01*
X122529819Y-66094047D02*
X122529819Y-65855952D01*
X122529819Y-65855952D02*
X122577438Y-65760714D01*
X122577438Y-65760714D02*
X122625057Y-65713095D01*
X122625057Y-65713095D02*
X122720295Y-65665476D01*
X122720295Y-65665476D02*
X122815533Y-65665476D01*
X122815533Y-65665476D02*
X122958390Y-65713095D01*
X122958390Y-65713095D02*
X123529819Y-66284523D01*
X123529819Y-66284523D02*
X123529819Y-65665476D01*
X122529819Y-65046428D02*
X122529819Y-64951190D01*
X122529819Y-64951190D02*
X122577438Y-64855952D01*
X122577438Y-64855952D02*
X122625057Y-64808333D01*
X122625057Y-64808333D02*
X122720295Y-64760714D01*
X122720295Y-64760714D02*
X122910771Y-64713095D01*
X122910771Y-64713095D02*
X123148866Y-64713095D01*
X123148866Y-64713095D02*
X123339342Y-64760714D01*
X123339342Y-64760714D02*
X123434580Y-64808333D01*
X123434580Y-64808333D02*
X123482200Y-64855952D01*
X123482200Y-64855952D02*
X123529819Y-64951190D01*
X123529819Y-64951190D02*
X123529819Y-65046428D01*
X123529819Y-65046428D02*
X123482200Y-65141666D01*
X123482200Y-65141666D02*
X123434580Y-65189285D01*
X123434580Y-65189285D02*
X123339342Y-65236904D01*
X123339342Y-65236904D02*
X123148866Y-65284523D01*
X123148866Y-65284523D02*
X122910771Y-65284523D01*
X122910771Y-65284523D02*
X122720295Y-65236904D01*
X122720295Y-65236904D02*
X122625057Y-65189285D01*
X122625057Y-65189285D02*
X122577438Y-65141666D01*
X122577438Y-65141666D02*
X122529819Y-65046428D01*
X111732142Y-69584580D02*
X111684523Y-69632200D01*
X111684523Y-69632200D02*
X111541666Y-69679819D01*
X111541666Y-69679819D02*
X111446428Y-69679819D01*
X111446428Y-69679819D02*
X111303571Y-69632200D01*
X111303571Y-69632200D02*
X111208333Y-69536961D01*
X111208333Y-69536961D02*
X111160714Y-69441723D01*
X111160714Y-69441723D02*
X111113095Y-69251247D01*
X111113095Y-69251247D02*
X111113095Y-69108390D01*
X111113095Y-69108390D02*
X111160714Y-68917914D01*
X111160714Y-68917914D02*
X111208333Y-68822676D01*
X111208333Y-68822676D02*
X111303571Y-68727438D01*
X111303571Y-68727438D02*
X111446428Y-68679819D01*
X111446428Y-68679819D02*
X111541666Y-68679819D01*
X111541666Y-68679819D02*
X111684523Y-68727438D01*
X111684523Y-68727438D02*
X111732142Y-68775057D01*
X112684523Y-69679819D02*
X112113095Y-69679819D01*
X112398809Y-69679819D02*
X112398809Y-68679819D01*
X112398809Y-68679819D02*
X112303571Y-68822676D01*
X112303571Y-68822676D02*
X112208333Y-68917914D01*
X112208333Y-68917914D02*
X112113095Y-68965533D01*
X113160714Y-69679819D02*
X113351190Y-69679819D01*
X113351190Y-69679819D02*
X113446428Y-69632200D01*
X113446428Y-69632200D02*
X113494047Y-69584580D01*
X113494047Y-69584580D02*
X113589285Y-69441723D01*
X113589285Y-69441723D02*
X113636904Y-69251247D01*
X113636904Y-69251247D02*
X113636904Y-68870295D01*
X113636904Y-68870295D02*
X113589285Y-68775057D01*
X113589285Y-68775057D02*
X113541666Y-68727438D01*
X113541666Y-68727438D02*
X113446428Y-68679819D01*
X113446428Y-68679819D02*
X113255952Y-68679819D01*
X113255952Y-68679819D02*
X113160714Y-68727438D01*
X113160714Y-68727438D02*
X113113095Y-68775057D01*
X113113095Y-68775057D02*
X113065476Y-68870295D01*
X113065476Y-68870295D02*
X113065476Y-69108390D01*
X113065476Y-69108390D02*
X113113095Y-69203628D01*
X113113095Y-69203628D02*
X113160714Y-69251247D01*
X113160714Y-69251247D02*
X113255952Y-69298866D01*
X113255952Y-69298866D02*
X113446428Y-69298866D01*
X113446428Y-69298866D02*
X113541666Y-69251247D01*
X113541666Y-69251247D02*
X113589285Y-69203628D01*
X113589285Y-69203628D02*
X113636904Y-69108390D01*
X134232142Y-84834580D02*
X134184523Y-84882200D01*
X134184523Y-84882200D02*
X134041666Y-84929819D01*
X134041666Y-84929819D02*
X133946428Y-84929819D01*
X133946428Y-84929819D02*
X133803571Y-84882200D01*
X133803571Y-84882200D02*
X133708333Y-84786961D01*
X133708333Y-84786961D02*
X133660714Y-84691723D01*
X133660714Y-84691723D02*
X133613095Y-84501247D01*
X133613095Y-84501247D02*
X133613095Y-84358390D01*
X133613095Y-84358390D02*
X133660714Y-84167914D01*
X133660714Y-84167914D02*
X133708333Y-84072676D01*
X133708333Y-84072676D02*
X133803571Y-83977438D01*
X133803571Y-83977438D02*
X133946428Y-83929819D01*
X133946428Y-83929819D02*
X134041666Y-83929819D01*
X134041666Y-83929819D02*
X134184523Y-83977438D01*
X134184523Y-83977438D02*
X134232142Y-84025057D01*
X135184523Y-84929819D02*
X134613095Y-84929819D01*
X134898809Y-84929819D02*
X134898809Y-83929819D01*
X134898809Y-83929819D02*
X134803571Y-84072676D01*
X134803571Y-84072676D02*
X134708333Y-84167914D01*
X134708333Y-84167914D02*
X134613095Y-84215533D01*
X135755952Y-84358390D02*
X135660714Y-84310771D01*
X135660714Y-84310771D02*
X135613095Y-84263152D01*
X135613095Y-84263152D02*
X135565476Y-84167914D01*
X135565476Y-84167914D02*
X135565476Y-84120295D01*
X135565476Y-84120295D02*
X135613095Y-84025057D01*
X135613095Y-84025057D02*
X135660714Y-83977438D01*
X135660714Y-83977438D02*
X135755952Y-83929819D01*
X135755952Y-83929819D02*
X135946428Y-83929819D01*
X135946428Y-83929819D02*
X136041666Y-83977438D01*
X136041666Y-83977438D02*
X136089285Y-84025057D01*
X136089285Y-84025057D02*
X136136904Y-84120295D01*
X136136904Y-84120295D02*
X136136904Y-84167914D01*
X136136904Y-84167914D02*
X136089285Y-84263152D01*
X136089285Y-84263152D02*
X136041666Y-84310771D01*
X136041666Y-84310771D02*
X135946428Y-84358390D01*
X135946428Y-84358390D02*
X135755952Y-84358390D01*
X135755952Y-84358390D02*
X135660714Y-84406009D01*
X135660714Y-84406009D02*
X135613095Y-84453628D01*
X135613095Y-84453628D02*
X135565476Y-84548866D01*
X135565476Y-84548866D02*
X135565476Y-84739342D01*
X135565476Y-84739342D02*
X135613095Y-84834580D01*
X135613095Y-84834580D02*
X135660714Y-84882200D01*
X135660714Y-84882200D02*
X135755952Y-84929819D01*
X135755952Y-84929819D02*
X135946428Y-84929819D01*
X135946428Y-84929819D02*
X136041666Y-84882200D01*
X136041666Y-84882200D02*
X136089285Y-84834580D01*
X136089285Y-84834580D02*
X136136904Y-84739342D01*
X136136904Y-84739342D02*
X136136904Y-84548866D01*
X136136904Y-84548866D02*
X136089285Y-84453628D01*
X136089285Y-84453628D02*
X136041666Y-84406009D01*
X136041666Y-84406009D02*
X135946428Y-84358390D01*
X116259580Y-81617857D02*
X116307200Y-81665476D01*
X116307200Y-81665476D02*
X116354819Y-81808333D01*
X116354819Y-81808333D02*
X116354819Y-81903571D01*
X116354819Y-81903571D02*
X116307200Y-82046428D01*
X116307200Y-82046428D02*
X116211961Y-82141666D01*
X116211961Y-82141666D02*
X116116723Y-82189285D01*
X116116723Y-82189285D02*
X115926247Y-82236904D01*
X115926247Y-82236904D02*
X115783390Y-82236904D01*
X115783390Y-82236904D02*
X115592914Y-82189285D01*
X115592914Y-82189285D02*
X115497676Y-82141666D01*
X115497676Y-82141666D02*
X115402438Y-82046428D01*
X115402438Y-82046428D02*
X115354819Y-81903571D01*
X115354819Y-81903571D02*
X115354819Y-81808333D01*
X115354819Y-81808333D02*
X115402438Y-81665476D01*
X115402438Y-81665476D02*
X115450057Y-81617857D01*
X116354819Y-80665476D02*
X116354819Y-81236904D01*
X116354819Y-80951190D02*
X115354819Y-80951190D01*
X115354819Y-80951190D02*
X115497676Y-81046428D01*
X115497676Y-81046428D02*
X115592914Y-81141666D01*
X115592914Y-81141666D02*
X115640533Y-81236904D01*
X115354819Y-80332142D02*
X115354819Y-79665476D01*
X115354819Y-79665476D02*
X116354819Y-80094047D01*
X144484580Y-75645258D02*
X144532200Y-75692877D01*
X144532200Y-75692877D02*
X144579819Y-75835734D01*
X144579819Y-75835734D02*
X144579819Y-75930972D01*
X144579819Y-75930972D02*
X144532200Y-76073829D01*
X144532200Y-76073829D02*
X144436961Y-76169067D01*
X144436961Y-76169067D02*
X144341723Y-76216686D01*
X144341723Y-76216686D02*
X144151247Y-76264305D01*
X144151247Y-76264305D02*
X144008390Y-76264305D01*
X144008390Y-76264305D02*
X143817914Y-76216686D01*
X143817914Y-76216686D02*
X143722676Y-76169067D01*
X143722676Y-76169067D02*
X143627438Y-76073829D01*
X143627438Y-76073829D02*
X143579819Y-75930972D01*
X143579819Y-75930972D02*
X143579819Y-75835734D01*
X143579819Y-75835734D02*
X143627438Y-75692877D01*
X143627438Y-75692877D02*
X143675057Y-75645258D01*
X144579819Y-74692877D02*
X144579819Y-75264305D01*
X144579819Y-74978591D02*
X143579819Y-74978591D01*
X143579819Y-74978591D02*
X143722676Y-75073829D01*
X143722676Y-75073829D02*
X143817914Y-75169067D01*
X143817914Y-75169067D02*
X143865533Y-75264305D01*
X143579819Y-73835734D02*
X143579819Y-74026210D01*
X143579819Y-74026210D02*
X143627438Y-74121448D01*
X143627438Y-74121448D02*
X143675057Y-74169067D01*
X143675057Y-74169067D02*
X143817914Y-74264305D01*
X143817914Y-74264305D02*
X144008390Y-74311924D01*
X144008390Y-74311924D02*
X144389342Y-74311924D01*
X144389342Y-74311924D02*
X144484580Y-74264305D01*
X144484580Y-74264305D02*
X144532200Y-74216686D01*
X144532200Y-74216686D02*
X144579819Y-74121448D01*
X144579819Y-74121448D02*
X144579819Y-73930972D01*
X144579819Y-73930972D02*
X144532200Y-73835734D01*
X144532200Y-73835734D02*
X144484580Y-73788115D01*
X144484580Y-73788115D02*
X144389342Y-73740496D01*
X144389342Y-73740496D02*
X144151247Y-73740496D01*
X144151247Y-73740496D02*
X144056009Y-73788115D01*
X144056009Y-73788115D02*
X144008390Y-73835734D01*
X144008390Y-73835734D02*
X143960771Y-73930972D01*
X143960771Y-73930972D02*
X143960771Y-74121448D01*
X143960771Y-74121448D02*
X144008390Y-74216686D01*
X144008390Y-74216686D02*
X144056009Y-74264305D01*
X144056009Y-74264305D02*
X144151247Y-74311924D01*
X131887142Y-60284580D02*
X131839523Y-60332200D01*
X131839523Y-60332200D02*
X131696666Y-60379819D01*
X131696666Y-60379819D02*
X131601428Y-60379819D01*
X131601428Y-60379819D02*
X131458571Y-60332200D01*
X131458571Y-60332200D02*
X131363333Y-60236961D01*
X131363333Y-60236961D02*
X131315714Y-60141723D01*
X131315714Y-60141723D02*
X131268095Y-59951247D01*
X131268095Y-59951247D02*
X131268095Y-59808390D01*
X131268095Y-59808390D02*
X131315714Y-59617914D01*
X131315714Y-59617914D02*
X131363333Y-59522676D01*
X131363333Y-59522676D02*
X131458571Y-59427438D01*
X131458571Y-59427438D02*
X131601428Y-59379819D01*
X131601428Y-59379819D02*
X131696666Y-59379819D01*
X131696666Y-59379819D02*
X131839523Y-59427438D01*
X131839523Y-59427438D02*
X131887142Y-59475057D01*
X132839523Y-60379819D02*
X132268095Y-60379819D01*
X132553809Y-60379819D02*
X132553809Y-59379819D01*
X132553809Y-59379819D02*
X132458571Y-59522676D01*
X132458571Y-59522676D02*
X132363333Y-59617914D01*
X132363333Y-59617914D02*
X132268095Y-59665533D01*
X133744285Y-59379819D02*
X133268095Y-59379819D01*
X133268095Y-59379819D02*
X133220476Y-59856009D01*
X133220476Y-59856009D02*
X133268095Y-59808390D01*
X133268095Y-59808390D02*
X133363333Y-59760771D01*
X133363333Y-59760771D02*
X133601428Y-59760771D01*
X133601428Y-59760771D02*
X133696666Y-59808390D01*
X133696666Y-59808390D02*
X133744285Y-59856009D01*
X133744285Y-59856009D02*
X133791904Y-59951247D01*
X133791904Y-59951247D02*
X133791904Y-60189342D01*
X133791904Y-60189342D02*
X133744285Y-60284580D01*
X133744285Y-60284580D02*
X133696666Y-60332200D01*
X133696666Y-60332200D02*
X133601428Y-60379819D01*
X133601428Y-60379819D02*
X133363333Y-60379819D01*
X133363333Y-60379819D02*
X133268095Y-60332200D01*
X133268095Y-60332200D02*
X133220476Y-60284580D01*
X115232142Y-77634580D02*
X115184523Y-77682200D01*
X115184523Y-77682200D02*
X115041666Y-77729819D01*
X115041666Y-77729819D02*
X114946428Y-77729819D01*
X114946428Y-77729819D02*
X114803571Y-77682200D01*
X114803571Y-77682200D02*
X114708333Y-77586961D01*
X114708333Y-77586961D02*
X114660714Y-77491723D01*
X114660714Y-77491723D02*
X114613095Y-77301247D01*
X114613095Y-77301247D02*
X114613095Y-77158390D01*
X114613095Y-77158390D02*
X114660714Y-76967914D01*
X114660714Y-76967914D02*
X114708333Y-76872676D01*
X114708333Y-76872676D02*
X114803571Y-76777438D01*
X114803571Y-76777438D02*
X114946428Y-76729819D01*
X114946428Y-76729819D02*
X115041666Y-76729819D01*
X115041666Y-76729819D02*
X115184523Y-76777438D01*
X115184523Y-76777438D02*
X115232142Y-76825057D01*
X116184523Y-77729819D02*
X115613095Y-77729819D01*
X115898809Y-77729819D02*
X115898809Y-76729819D01*
X115898809Y-76729819D02*
X115803571Y-76872676D01*
X115803571Y-76872676D02*
X115708333Y-76967914D01*
X115708333Y-76967914D02*
X115613095Y-77015533D01*
X117041666Y-77063152D02*
X117041666Y-77729819D01*
X116803571Y-76682200D02*
X116565476Y-77396485D01*
X116565476Y-77396485D02*
X117184523Y-77396485D01*
X135482142Y-78834580D02*
X135434523Y-78882200D01*
X135434523Y-78882200D02*
X135291666Y-78929819D01*
X135291666Y-78929819D02*
X135196428Y-78929819D01*
X135196428Y-78929819D02*
X135053571Y-78882200D01*
X135053571Y-78882200D02*
X134958333Y-78786961D01*
X134958333Y-78786961D02*
X134910714Y-78691723D01*
X134910714Y-78691723D02*
X134863095Y-78501247D01*
X134863095Y-78501247D02*
X134863095Y-78358390D01*
X134863095Y-78358390D02*
X134910714Y-78167914D01*
X134910714Y-78167914D02*
X134958333Y-78072676D01*
X134958333Y-78072676D02*
X135053571Y-77977438D01*
X135053571Y-77977438D02*
X135196428Y-77929819D01*
X135196428Y-77929819D02*
X135291666Y-77929819D01*
X135291666Y-77929819D02*
X135434523Y-77977438D01*
X135434523Y-77977438D02*
X135482142Y-78025057D01*
X136434523Y-78929819D02*
X135863095Y-78929819D01*
X136148809Y-78929819D02*
X136148809Y-77929819D01*
X136148809Y-77929819D02*
X136053571Y-78072676D01*
X136053571Y-78072676D02*
X135958333Y-78167914D01*
X135958333Y-78167914D02*
X135863095Y-78215533D01*
X136767857Y-77929819D02*
X137386904Y-77929819D01*
X137386904Y-77929819D02*
X137053571Y-78310771D01*
X137053571Y-78310771D02*
X137196428Y-78310771D01*
X137196428Y-78310771D02*
X137291666Y-78358390D01*
X137291666Y-78358390D02*
X137339285Y-78406009D01*
X137339285Y-78406009D02*
X137386904Y-78501247D01*
X137386904Y-78501247D02*
X137386904Y-78739342D01*
X137386904Y-78739342D02*
X137339285Y-78834580D01*
X137339285Y-78834580D02*
X137291666Y-78882200D01*
X137291666Y-78882200D02*
X137196428Y-78929819D01*
X137196428Y-78929819D02*
X136910714Y-78929819D01*
X136910714Y-78929819D02*
X136815476Y-78882200D01*
X136815476Y-78882200D02*
X136767857Y-78834580D01*
X122804761Y-41431819D02*
X122233333Y-41431819D01*
X122519047Y-41431819D02*
X122519047Y-40431819D01*
X122519047Y-40431819D02*
X122423809Y-40574676D01*
X122423809Y-40574676D02*
X122328571Y-40669914D01*
X122328571Y-40669914D02*
X122233333Y-40717533D01*
X123185714Y-40527057D02*
X123233333Y-40479438D01*
X123233333Y-40479438D02*
X123328571Y-40431819D01*
X123328571Y-40431819D02*
X123566666Y-40431819D01*
X123566666Y-40431819D02*
X123661904Y-40479438D01*
X123661904Y-40479438D02*
X123709523Y-40527057D01*
X123709523Y-40527057D02*
X123757142Y-40622295D01*
X123757142Y-40622295D02*
X123757142Y-40717533D01*
X123757142Y-40717533D02*
X123709523Y-40860390D01*
X123709523Y-40860390D02*
X123138095Y-41431819D01*
X123138095Y-41431819D02*
X123757142Y-41431819D01*
X124042857Y-40431819D02*
X124376190Y-41431819D01*
X124376190Y-41431819D02*
X124709523Y-40431819D01*
X125566666Y-41431819D02*
X124995238Y-41431819D01*
X125280952Y-41431819D02*
X125280952Y-40431819D01*
X125280952Y-40431819D02*
X125185714Y-40574676D01*
X125185714Y-40574676D02*
X125090476Y-40669914D01*
X125090476Y-40669914D02*
X124995238Y-40717533D01*
X131029761Y-78177819D02*
X130458333Y-78177819D01*
X130744047Y-78177819D02*
X130744047Y-77177819D01*
X130744047Y-77177819D02*
X130648809Y-77320676D01*
X130648809Y-77320676D02*
X130553571Y-77415914D01*
X130553571Y-77415914D02*
X130458333Y-77463533D01*
X131410714Y-77273057D02*
X131458333Y-77225438D01*
X131458333Y-77225438D02*
X131553571Y-77177819D01*
X131553571Y-77177819D02*
X131791666Y-77177819D01*
X131791666Y-77177819D02*
X131886904Y-77225438D01*
X131886904Y-77225438D02*
X131934523Y-77273057D01*
X131934523Y-77273057D02*
X131982142Y-77368295D01*
X131982142Y-77368295D02*
X131982142Y-77463533D01*
X131982142Y-77463533D02*
X131934523Y-77606390D01*
X131934523Y-77606390D02*
X131363095Y-78177819D01*
X131363095Y-78177819D02*
X131982142Y-78177819D01*
X132267857Y-77177819D02*
X132601190Y-78177819D01*
X132601190Y-78177819D02*
X132934523Y-77177819D01*
X133220238Y-77273057D02*
X133267857Y-77225438D01*
X133267857Y-77225438D02*
X133363095Y-77177819D01*
X133363095Y-77177819D02*
X133601190Y-77177819D01*
X133601190Y-77177819D02*
X133696428Y-77225438D01*
X133696428Y-77225438D02*
X133744047Y-77273057D01*
X133744047Y-77273057D02*
X133791666Y-77368295D01*
X133791666Y-77368295D02*
X133791666Y-77463533D01*
X133791666Y-77463533D02*
X133744047Y-77606390D01*
X133744047Y-77606390D02*
X133172619Y-78177819D01*
X133172619Y-78177819D02*
X133791666Y-78177819D01*
X127828571Y-33181819D02*
X128019047Y-33181819D01*
X128019047Y-33181819D02*
X128114285Y-33229438D01*
X128114285Y-33229438D02*
X128209523Y-33324676D01*
X128209523Y-33324676D02*
X128257142Y-33515152D01*
X128257142Y-33515152D02*
X128257142Y-33848485D01*
X128257142Y-33848485D02*
X128209523Y-34038961D01*
X128209523Y-34038961D02*
X128114285Y-34134200D01*
X128114285Y-34134200D02*
X128019047Y-34181819D01*
X128019047Y-34181819D02*
X127828571Y-34181819D01*
X127828571Y-34181819D02*
X127733333Y-34134200D01*
X127733333Y-34134200D02*
X127638095Y-34038961D01*
X127638095Y-34038961D02*
X127590476Y-33848485D01*
X127590476Y-33848485D02*
X127590476Y-33515152D01*
X127590476Y-33515152D02*
X127638095Y-33324676D01*
X127638095Y-33324676D02*
X127733333Y-33229438D01*
X127733333Y-33229438D02*
X127828571Y-33181819D01*
X129114285Y-33515152D02*
X129114285Y-34181819D01*
X128685714Y-33515152D02*
X128685714Y-34038961D01*
X128685714Y-34038961D02*
X128733333Y-34134200D01*
X128733333Y-34134200D02*
X128828571Y-34181819D01*
X128828571Y-34181819D02*
X128971428Y-34181819D01*
X128971428Y-34181819D02*
X129066666Y-34134200D01*
X129066666Y-34134200D02*
X129114285Y-34086580D01*
X129447619Y-33515152D02*
X129828571Y-33515152D01*
X129590476Y-33181819D02*
X129590476Y-34038961D01*
X129590476Y-34038961D02*
X129638095Y-34134200D01*
X129638095Y-34134200D02*
X129733333Y-34181819D01*
X129733333Y-34181819D02*
X129828571Y-34181819D01*
X129923810Y-34277057D02*
X130685714Y-34277057D01*
X130780953Y-33181819D02*
X131352381Y-33181819D01*
X131066667Y-34181819D02*
X131066667Y-33181819D01*
X131685715Y-34181819D02*
X131685715Y-33181819D01*
X131685715Y-33181819D02*
X132066667Y-33181819D01*
X132066667Y-33181819D02*
X132161905Y-33229438D01*
X132161905Y-33229438D02*
X132209524Y-33277057D01*
X132209524Y-33277057D02*
X132257143Y-33372295D01*
X132257143Y-33372295D02*
X132257143Y-33515152D01*
X132257143Y-33515152D02*
X132209524Y-33610390D01*
X132209524Y-33610390D02*
X132161905Y-33658009D01*
X132161905Y-33658009D02*
X132066667Y-33705628D01*
X132066667Y-33705628D02*
X131685715Y-33705628D01*
X133209524Y-34181819D02*
X132638096Y-34181819D01*
X132923810Y-34181819D02*
X132923810Y-33181819D01*
X132923810Y-33181819D02*
X132828572Y-33324676D01*
X132828572Y-33324676D02*
X132733334Y-33419914D01*
X132733334Y-33419914D02*
X132638096Y-33467533D01*
%TO.C,J3*%
D14*
X146642500Y-83295000D02*
X146642500Y-62735000D01*
X149662500Y-83295000D02*
X149662500Y-62735000D01*
X154562500Y-83295000D02*
X154562500Y-62735000D01*
X156062500Y-83295000D02*
X156062500Y-62735000D01*
X156682500Y-83295000D02*
X146642500Y-83295000D01*
X156682500Y-80935000D02*
X156682500Y-83295000D01*
X146642500Y-62735000D02*
X156682500Y-62735000D01*
X156682500Y-62735000D02*
X156682500Y-80335000D01*
X157292500Y-81075000D02*
X156682500Y-80635000D01*
X157292500Y-80195000D01*
X157292500Y-81075000D01*
G36*
X157292500Y-81075000D02*
G01*
X156682500Y-80635000D01*
X157292500Y-80195000D01*
X157292500Y-81075000D01*
G37*
%TO.C,RT1*%
X113350000Y-48675000D02*
X110950000Y-48675000D01*
X113350000Y-46275000D02*
X113350000Y-48675000D01*
X110950000Y-48675000D02*
X110950000Y-46275000D01*
X110950000Y-46275000D02*
X113350000Y-46275000D01*
%TO.C,RT2*%
X142675000Y-70025000D02*
X145075000Y-70025000D01*
X142675000Y-72425000D02*
X142675000Y-70025000D01*
X145075000Y-70025000D02*
X145075000Y-72425000D01*
X145075000Y-72425000D02*
X142675000Y-72425000D01*
%TO.C,R7*%
X120172500Y-46229724D02*
X120172500Y-45720276D01*
X119127500Y-46229724D02*
X119127500Y-45720276D01*
%TO.C,R2*%
X125742224Y-51702500D02*
X125232776Y-51702500D01*
X125742224Y-52747500D02*
X125232776Y-52747500D01*
%TO.C,R15*%
X130282776Y-66997500D02*
X130792224Y-66997500D01*
X130282776Y-65952500D02*
X130792224Y-65952500D01*
%TO.C,R20*%
X134102500Y-72470276D02*
X134102500Y-72979724D01*
X135147500Y-72470276D02*
X135147500Y-72979724D01*
%TO.C,R13*%
X120145276Y-53997500D02*
X120654724Y-53997500D01*
X120145276Y-52952500D02*
X120654724Y-52952500D01*
%TO.C,R12*%
X135895276Y-48997500D02*
X136404724Y-48997500D01*
X135895276Y-47952500D02*
X136404724Y-47952500D01*
%TO.C,R11*%
X116154724Y-49702500D02*
X115645276Y-49702500D01*
X116154724Y-50747500D02*
X115645276Y-50747500D01*
%TO.C,R10*%
X116645276Y-48997500D02*
X117154724Y-48997500D01*
X116645276Y-47952500D02*
X117154724Y-47952500D01*
%TO.C,R9*%
X135895276Y-47247500D02*
X136404724Y-47247500D01*
X135895276Y-46202500D02*
X136404724Y-46202500D01*
%TO.C,R8*%
X121922500Y-46229724D02*
X121922500Y-45720276D01*
X120877500Y-46229724D02*
X120877500Y-45720276D01*
%TO.C,R6*%
X119127500Y-56970276D02*
X119127500Y-57479724D01*
X120172500Y-56970276D02*
X120172500Y-57479724D01*
%TO.C,R5*%
X120877500Y-56970276D02*
X120877500Y-57479724D01*
X121922500Y-56970276D02*
X121922500Y-57479724D01*
%TO.C,R4*%
X125742224Y-53452500D02*
X125232776Y-53452500D01*
X125742224Y-54497500D02*
X125232776Y-54497500D01*
%TO.C,R3*%
X125232776Y-56247500D02*
X125742224Y-56247500D01*
X125232776Y-55202500D02*
X125742224Y-55202500D01*
%TO.C,R1*%
X125742224Y-49952500D02*
X125232776Y-49952500D01*
X125742224Y-50997500D02*
X125232776Y-50997500D01*
%TO.C,R26*%
X135879724Y-64702500D02*
X135370276Y-64702500D01*
X135879724Y-65747500D02*
X135370276Y-65747500D01*
%TO.C,R25*%
X120129724Y-69702500D02*
X119620276Y-69702500D01*
X120129724Y-70747500D02*
X119620276Y-70747500D01*
%TO.C,R24*%
X139870276Y-68997500D02*
X140379724Y-68997500D01*
X139870276Y-67952500D02*
X140379724Y-67952500D01*
%TO.C,R23*%
X139379724Y-69702500D02*
X138870276Y-69702500D01*
X139379724Y-70747500D02*
X138870276Y-70747500D01*
%TO.C,R22*%
X120129724Y-71452500D02*
X119620276Y-71452500D01*
X120129724Y-72497500D02*
X119620276Y-72497500D01*
%TO.C,R21*%
X135852500Y-72470276D02*
X135852500Y-72979724D01*
X136897500Y-72470276D02*
X136897500Y-72979724D01*
%TO.C,R19*%
X136897500Y-61729724D02*
X136897500Y-61220276D01*
X135852500Y-61729724D02*
X135852500Y-61220276D01*
%TO.C,R18*%
X135147500Y-61729724D02*
X135147500Y-61220276D01*
X134102500Y-61729724D02*
X134102500Y-61220276D01*
%TO.C,R17*%
X130282776Y-65247500D02*
X130792224Y-65247500D01*
X130282776Y-64202500D02*
X130792224Y-64202500D01*
%TO.C,R16*%
X130792224Y-62452500D02*
X130282776Y-62452500D01*
X130792224Y-63497500D02*
X130282776Y-63497500D01*
%TO.C,R14*%
X130282776Y-68747500D02*
X130792224Y-68747500D01*
X130282776Y-67702500D02*
X130792224Y-67702500D01*
%TO.C,PS2*%
D15*
X133995000Y-47070000D02*
X133995000Y-46570000D01*
X133595000Y-47070000D02*
X133995000Y-47070000D01*
X127305000Y-39880000D02*
X127305000Y-40380000D01*
X127705000Y-39880000D02*
X127305000Y-39880000D01*
X133995000Y-39880000D02*
X133995000Y-40380000D01*
X133595000Y-39880000D02*
X133995000Y-39880000D01*
X127305000Y-47070000D02*
X127305000Y-46570000D01*
X127705000Y-47070000D02*
X127305000Y-47070000D01*
D16*
X128000000Y-47975000D02*
G75*
G02*
X127800000Y-47975000I-100000J0D01*
G01*
X127800000Y-47975000D02*
G75*
G02*
X128000000Y-47975000I100000J0D01*
G01*
%TO.C,PS3*%
D15*
X122030000Y-71630000D02*
X122030000Y-72130000D01*
X122430000Y-71630000D02*
X122030000Y-71630000D01*
X128720000Y-78820000D02*
X128720000Y-78320000D01*
X128320000Y-78820000D02*
X128720000Y-78820000D01*
X122030000Y-78820000D02*
X122030000Y-78320000D01*
X122430000Y-78820000D02*
X122030000Y-78820000D01*
X128720000Y-71630000D02*
X128720000Y-72130000D01*
X128320000Y-71630000D02*
X128720000Y-71630000D01*
D16*
X128225000Y-70725000D02*
G75*
G02*
X128025000Y-70725000I-100000J0D01*
G01*
X128025000Y-70725000D02*
G75*
G02*
X128225000Y-70725000I100000J0D01*
G01*
%TO.C,PS1*%
D14*
X108200000Y-85675000D02*
X108200000Y-33275000D01*
X108200000Y-33275000D02*
X20800000Y-33275000D01*
X25000000Y-32775000D02*
X27500000Y-32775000D01*
X20800000Y-85675000D02*
X108200000Y-85675000D01*
X20800000Y-33275000D02*
X20800000Y-85675000D01*
%TO.C,Out_TP2*%
X124425000Y-81775000D02*
X126825000Y-81775000D01*
X124425000Y-84175000D02*
X124425000Y-81775000D01*
X126825000Y-81775000D02*
X126825000Y-84175000D01*
X126825000Y-84175000D02*
X124425000Y-84175000D01*
%TO.C,J2*%
X156782500Y-35075000D02*
X156782500Y-55635000D01*
X153762500Y-35075000D02*
X153762500Y-55635000D01*
X148862500Y-35075000D02*
X148862500Y-55635000D01*
X147362500Y-35075000D02*
X147362500Y-55635000D01*
X146742500Y-35075000D02*
X156782500Y-35075000D01*
X146742500Y-37435000D02*
X146742500Y-35075000D01*
X156782500Y-55635000D02*
X146742500Y-55635000D01*
X146742500Y-55635000D02*
X146742500Y-38035000D01*
X146742500Y-37735000D02*
X146132500Y-38175000D01*
X146132500Y-37295000D01*
X146742500Y-37735000D01*
G36*
X146742500Y-37735000D02*
G01*
X146132500Y-38175000D01*
X146132500Y-37295000D01*
X146742500Y-37735000D01*
G37*
%TO.C,J1*%
X38960000Y-22005000D02*
X38520000Y-21395000D01*
X39400000Y-21395000D01*
X38960000Y-22005000D01*
G36*
X38960000Y-22005000D02*
G01*
X38520000Y-21395000D01*
X39400000Y-21395000D01*
X38960000Y-22005000D01*
G37*
X21060000Y-22005000D02*
X38660000Y-22005000D01*
X21060000Y-32045000D02*
X21060000Y-22005000D01*
X39260000Y-22005000D02*
X41620000Y-22005000D01*
X41620000Y-22005000D02*
X41620000Y-32045000D01*
X41620000Y-22625000D02*
X21060000Y-22625000D01*
X41620000Y-24125000D02*
X21060000Y-24125000D01*
X41620000Y-29025000D02*
X21060000Y-29025000D01*
X41620000Y-32045000D02*
X21060000Y-32045000D01*
%TO.C,GND3*%
X118850000Y-38925000D02*
X116450000Y-38925000D01*
X118850000Y-36525000D02*
X118850000Y-38925000D01*
X116450000Y-38925000D02*
X116450000Y-36525000D01*
X116450000Y-36525000D02*
X118850000Y-36525000D01*
%TO.C,GND2*%
X139850000Y-58175000D02*
X137450000Y-58175000D01*
X139850000Y-55775000D02*
X139850000Y-58175000D01*
X137450000Y-58175000D02*
X137450000Y-55775000D01*
X137450000Y-55775000D02*
X139850000Y-55775000D01*
%TO.C,GND1*%
X144100000Y-40925000D02*
X141700000Y-40925000D01*
X144100000Y-38525000D02*
X144100000Y-40925000D01*
X141700000Y-40925000D02*
X141700000Y-38525000D01*
X141700000Y-38525000D02*
X144100000Y-38525000D01*
%TO.C,GND6*%
X137175000Y-79775000D02*
X139575000Y-79775000D01*
X137175000Y-82175000D02*
X137175000Y-79775000D01*
X139575000Y-79775000D02*
X139575000Y-82175000D01*
X139575000Y-82175000D02*
X137175000Y-82175000D01*
%TO.C,GND5*%
X116175000Y-60525000D02*
X118575000Y-60525000D01*
X116175000Y-62925000D02*
X116175000Y-60525000D01*
X118575000Y-60525000D02*
X118575000Y-62925000D01*
X118575000Y-62925000D02*
X116175000Y-62925000D01*
%TO.C,GND4*%
X111925000Y-77775000D02*
X114325000Y-77775000D01*
X111925000Y-80175000D02*
X111925000Y-77775000D01*
X114325000Y-77775000D02*
X114325000Y-80175000D01*
X114325000Y-80175000D02*
X111925000Y-80175000D01*
%TO.C,FB1*%
X116850000Y-57425000D02*
X114450000Y-57425000D01*
X116850000Y-55025000D02*
X116850000Y-57425000D01*
X114450000Y-57425000D02*
X114450000Y-55025000D01*
X114450000Y-55025000D02*
X116850000Y-55025000D01*
%TO.C,FB2*%
X139175000Y-61275000D02*
X141575000Y-61275000D01*
X139175000Y-63675000D02*
X139175000Y-61275000D01*
X141575000Y-61275000D02*
X141575000Y-63675000D01*
X141575000Y-63675000D02*
X139175000Y-63675000D01*
%TO.C,C12*%
X120861252Y-49615000D02*
X119438748Y-49615000D01*
X120861252Y-52335000D02*
X119438748Y-52335000D01*
%TO.C,C11*%
X136188748Y-35585000D02*
X137611252Y-35585000D01*
X136188748Y-32865000D02*
X137611252Y-32865000D01*
%TO.C,C9*%
X136188748Y-39085000D02*
X137611252Y-39085000D01*
X136188748Y-36365000D02*
X137611252Y-36365000D01*
%TO.C,C8*%
X129290000Y-52013748D02*
X129290000Y-53436252D01*
X132010000Y-52013748D02*
X132010000Y-53436252D01*
%TO.C,C7*%
X139688748Y-50835000D02*
X141111252Y-50835000D01*
X139688748Y-48115000D02*
X141111252Y-48115000D01*
%TO.C,C6*%
X125111252Y-39085000D02*
X123688748Y-39085000D01*
X125111252Y-36365000D02*
X123688748Y-36365000D01*
%TO.C,C5*%
X125111252Y-32865000D02*
X123688748Y-32865000D01*
X125111252Y-35585000D02*
X123688748Y-35585000D01*
%TO.C,C4*%
X117270000Y-43697599D02*
G75*
G02*
X113030000Y-43697599I-2120000J0D01*
G01*
X113030000Y-43697599D02*
G75*
G02*
X117270000Y-43697599I2120000J0D01*
G01*
X114780000Y-41617599D02*
X115520000Y-41617599D01*
X114613000Y-41657599D02*
X115687000Y-41657599D01*
X114487000Y-41697599D02*
X115813000Y-41697599D01*
X114382000Y-41737599D02*
X115918000Y-41737599D01*
X114291000Y-41777599D02*
X116009000Y-41777599D01*
X114210000Y-41817599D02*
X116090000Y-41817599D01*
X114137000Y-41857599D02*
X116163000Y-41857599D01*
X115990000Y-41897599D02*
X116230000Y-41897599D01*
X114070000Y-41897599D02*
X114310000Y-41897599D01*
X115990000Y-41937599D02*
X116292000Y-41937599D01*
X114008000Y-41937599D02*
X114310000Y-41937599D01*
X115990000Y-41977599D02*
X116349000Y-41977599D01*
X113951000Y-41977599D02*
X114310000Y-41977599D01*
X115990000Y-42017599D02*
X116403000Y-42017599D01*
X113897000Y-42017599D02*
X114310000Y-42017599D01*
X115990000Y-42057599D02*
X116453000Y-42057599D01*
X113847000Y-42057599D02*
X114310000Y-42057599D01*
X115990000Y-42097599D02*
X116501000Y-42097599D01*
X113799000Y-42097599D02*
X114310000Y-42097599D01*
X115990000Y-42137599D02*
X116546000Y-42137599D01*
X113754000Y-42137599D02*
X114310000Y-42137599D01*
X115990000Y-42177599D02*
X116588000Y-42177599D01*
X113712000Y-42177599D02*
X114310000Y-42177599D01*
X115990000Y-42217599D02*
X116628000Y-42217599D01*
X113672000Y-42217599D02*
X114310000Y-42217599D01*
X115990000Y-42257599D02*
X116666000Y-42257599D01*
X113634000Y-42257599D02*
X114310000Y-42257599D01*
X115990000Y-42297599D02*
X116702000Y-42297599D01*
X113598000Y-42297599D02*
X114310000Y-42297599D01*
X115990000Y-42337599D02*
X116736000Y-42337599D01*
X113564000Y-42337599D02*
X114310000Y-42337599D01*
X115990000Y-42377599D02*
X116769000Y-42377599D01*
X113531000Y-42377599D02*
X114310000Y-42377599D01*
X115990000Y-42417599D02*
X116800000Y-42417599D01*
X113500000Y-42417599D02*
X114310000Y-42417599D01*
X115990000Y-42457599D02*
X116830000Y-42457599D01*
X113470000Y-42457599D02*
X114310000Y-42457599D01*
X115990000Y-42497599D02*
X116858000Y-42497599D01*
X113442000Y-42497599D02*
X114310000Y-42497599D01*
X115990000Y-42537599D02*
X116884000Y-42537599D01*
X113416000Y-42537599D02*
X114310000Y-42537599D01*
X115990000Y-42577599D02*
X116910000Y-42577599D01*
X113390000Y-42577599D02*
X114310000Y-42577599D01*
X115990000Y-42617599D02*
X116934000Y-42617599D01*
X113366000Y-42617599D02*
X114310000Y-42617599D01*
X115990000Y-42657599D02*
X116957000Y-42657599D01*
X113343000Y-42657599D02*
X114310000Y-42657599D01*
X115990000Y-42697599D02*
X116979000Y-42697599D01*
X113321000Y-42697599D02*
X114310000Y-42697599D01*
X115990000Y-42737599D02*
X117000000Y-42737599D01*
X113300000Y-42737599D02*
X114310000Y-42737599D01*
X115990000Y-42777599D02*
X117020000Y-42777599D01*
X113280000Y-42777599D02*
X114310000Y-42777599D01*
X115990000Y-42817599D02*
X117039000Y-42817599D01*
X113261000Y-42817599D02*
X114310000Y-42817599D01*
X115990000Y-42857599D02*
X117056000Y-42857599D01*
X113244000Y-42857599D02*
X114310000Y-42857599D01*
X115990000Y-42897599D02*
X117073000Y-42897599D01*
X113227000Y-42897599D02*
X114310000Y-42897599D01*
X115990000Y-42937599D02*
X117089000Y-42937599D01*
X113211000Y-42937599D02*
X114310000Y-42937599D01*
X115990000Y-42977599D02*
X117104000Y-42977599D01*
X113196000Y-42977599D02*
X114310000Y-42977599D01*
X115990000Y-43017599D02*
X117118000Y-43017599D01*
X113182000Y-43017599D02*
X114310000Y-43017599D01*
X115990000Y-43057599D02*
X117131000Y-43057599D01*
X113169000Y-43057599D02*
X114310000Y-43057599D01*
X115990000Y-43097599D02*
X117143000Y-43097599D01*
X113157000Y-43097599D02*
X114310000Y-43097599D01*
X115990000Y-43137599D02*
X117155000Y-43137599D01*
X113145000Y-43137599D02*
X114310000Y-43137599D01*
X115990000Y-43177599D02*
X117165000Y-43177599D01*
X113135000Y-43177599D02*
X114310000Y-43177599D01*
X115990000Y-43217599D02*
X117175000Y-43217599D01*
X113125000Y-43217599D02*
X114310000Y-43217599D01*
X115990000Y-43257599D02*
X117184000Y-43257599D01*
X113116000Y-43257599D02*
X114310000Y-43257599D01*
X115990000Y-43297599D02*
X117192000Y-43297599D01*
X113108000Y-43297599D02*
X114310000Y-43297599D01*
X115990000Y-43337599D02*
X117199000Y-43337599D01*
X113101000Y-43337599D02*
X114310000Y-43337599D01*
X115990000Y-43377599D02*
X117206000Y-43377599D01*
X113094000Y-43377599D02*
X114310000Y-43377599D01*
X115990000Y-43417599D02*
X117211000Y-43417599D01*
X113089000Y-43417599D02*
X114310000Y-43417599D01*
X115990000Y-43457599D02*
X117216000Y-43457599D01*
X113084000Y-43457599D02*
X114310000Y-43457599D01*
X115990000Y-43497599D02*
X117221000Y-43497599D01*
X113079000Y-43497599D02*
X114310000Y-43497599D01*
X113076000Y-43537599D02*
X117224000Y-43537599D01*
X113073000Y-43577599D02*
X117227000Y-43577599D01*
X113072000Y-43617599D02*
X117228000Y-43617599D01*
X113070000Y-43657599D02*
X117230000Y-43657599D01*
X113070000Y-43697599D02*
X117230000Y-43697599D01*
X113755000Y-45767400D02*
X114155000Y-45767400D01*
X113955000Y-45967400D02*
X113955000Y-45567400D01*
%TO.C,C2*%
X139438748Y-45085000D02*
X140861252Y-45085000D01*
X139438748Y-42365000D02*
X140861252Y-42365000D01*
%TO.C,C1*%
X120611252Y-41265000D02*
X119188748Y-41265000D01*
X120611252Y-43985000D02*
X119188748Y-43985000D01*
%TO.C,C24*%
X135163748Y-69085000D02*
X136586252Y-69085000D01*
X135163748Y-66365000D02*
X136586252Y-66365000D01*
%TO.C,C23*%
X119836252Y-83115000D02*
X118413748Y-83115000D01*
X119836252Y-85835000D02*
X118413748Y-85835000D01*
%TO.C,C21*%
X130913748Y-82335000D02*
X132336252Y-82335000D01*
X130913748Y-79615000D02*
X132336252Y-79615000D01*
%TO.C,C20*%
X126735000Y-66686252D02*
X126735000Y-65263748D01*
X124015000Y-66686252D02*
X124015000Y-65263748D01*
%TO.C,C19*%
X116336252Y-67865000D02*
X114913748Y-67865000D01*
X116336252Y-70585000D02*
X114913748Y-70585000D01*
%TO.C,C18*%
X130913748Y-85835000D02*
X132336252Y-85835000D01*
X130913748Y-83115000D02*
X132336252Y-83115000D01*
%TO.C,C17*%
X119836252Y-79615000D02*
X118413748Y-79615000D01*
X119836252Y-82335000D02*
X118413748Y-82335000D01*
%TO.C,C16*%
X142995000Y-75002401D02*
G75*
G02*
X138755000Y-75002401I-2120000J0D01*
G01*
X138755000Y-75002401D02*
G75*
G02*
X142995000Y-75002401I2120000J0D01*
G01*
X141245000Y-77082401D02*
X140505000Y-77082401D01*
X141412000Y-77042401D02*
X140338000Y-77042401D01*
X141538000Y-77002401D02*
X140212000Y-77002401D01*
X141643000Y-76962401D02*
X140107000Y-76962401D01*
X141734000Y-76922401D02*
X140016000Y-76922401D01*
X141815000Y-76882401D02*
X139935000Y-76882401D01*
X141888000Y-76842401D02*
X139862000Y-76842401D01*
X140035000Y-76802401D02*
X139795000Y-76802401D01*
X141955000Y-76802401D02*
X141715000Y-76802401D01*
X140035000Y-76762401D02*
X139733000Y-76762401D01*
X142017000Y-76762401D02*
X141715000Y-76762401D01*
X140035000Y-76722401D02*
X139676000Y-76722401D01*
X142074000Y-76722401D02*
X141715000Y-76722401D01*
X140035000Y-76682401D02*
X139622000Y-76682401D01*
X142128000Y-76682401D02*
X141715000Y-76682401D01*
X140035000Y-76642401D02*
X139572000Y-76642401D01*
X142178000Y-76642401D02*
X141715000Y-76642401D01*
X140035000Y-76602401D02*
X139524000Y-76602401D01*
X142226000Y-76602401D02*
X141715000Y-76602401D01*
X140035000Y-76562401D02*
X139479000Y-76562401D01*
X142271000Y-76562401D02*
X141715000Y-76562401D01*
X140035000Y-76522401D02*
X139437000Y-76522401D01*
X142313000Y-76522401D02*
X141715000Y-76522401D01*
X140035000Y-76482401D02*
X139397000Y-76482401D01*
X142353000Y-76482401D02*
X141715000Y-76482401D01*
X140035000Y-76442401D02*
X139359000Y-76442401D01*
X142391000Y-76442401D02*
X141715000Y-76442401D01*
X140035000Y-76402401D02*
X139323000Y-76402401D01*
X142427000Y-76402401D02*
X141715000Y-76402401D01*
X140035000Y-76362401D02*
X139289000Y-76362401D01*
X142461000Y-76362401D02*
X141715000Y-76362401D01*
X140035000Y-76322401D02*
X139256000Y-76322401D01*
X142494000Y-76322401D02*
X141715000Y-76322401D01*
X140035000Y-76282401D02*
X139225000Y-76282401D01*
X142525000Y-76282401D02*
X141715000Y-76282401D01*
X140035000Y-76242401D02*
X139195000Y-76242401D01*
X142555000Y-76242401D02*
X141715000Y-76242401D01*
X140035000Y-76202401D02*
X139167000Y-76202401D01*
X142583000Y-76202401D02*
X141715000Y-76202401D01*
X140035000Y-76162401D02*
X139141000Y-76162401D01*
X142609000Y-76162401D02*
X141715000Y-76162401D01*
X140035000Y-76122401D02*
X139115000Y-76122401D01*
X142635000Y-76122401D02*
X141715000Y-76122401D01*
X140035000Y-76082401D02*
X139091000Y-76082401D01*
X142659000Y-76082401D02*
X141715000Y-76082401D01*
X140035000Y-76042401D02*
X139068000Y-76042401D01*
X142682000Y-76042401D02*
X141715000Y-76042401D01*
X140035000Y-76002401D02*
X139046000Y-76002401D01*
X142704000Y-76002401D02*
X141715000Y-76002401D01*
X140035000Y-75962401D02*
X139025000Y-75962401D01*
X142725000Y-75962401D02*
X141715000Y-75962401D01*
X140035000Y-75922401D02*
X139005000Y-75922401D01*
X142745000Y-75922401D02*
X141715000Y-75922401D01*
X140035000Y-75882401D02*
X138986000Y-75882401D01*
X142764000Y-75882401D02*
X141715000Y-75882401D01*
X140035000Y-75842401D02*
X138969000Y-75842401D01*
X142781000Y-75842401D02*
X141715000Y-75842401D01*
X140035000Y-75802401D02*
X138952000Y-75802401D01*
X142798000Y-75802401D02*
X141715000Y-75802401D01*
X140035000Y-75762401D02*
X138936000Y-75762401D01*
X142814000Y-75762401D02*
X141715000Y-75762401D01*
X140035000Y-75722401D02*
X138921000Y-75722401D01*
X142829000Y-75722401D02*
X141715000Y-75722401D01*
X140035000Y-75682401D02*
X138907000Y-75682401D01*
X142843000Y-75682401D02*
X141715000Y-75682401D01*
X140035000Y-75642401D02*
X138894000Y-75642401D01*
X142856000Y-75642401D02*
X141715000Y-75642401D01*
X140035000Y-75602401D02*
X138882000Y-75602401D01*
X142868000Y-75602401D02*
X141715000Y-75602401D01*
X140035000Y-75562401D02*
X138870000Y-75562401D01*
X142880000Y-75562401D02*
X141715000Y-75562401D01*
X140035000Y-75522401D02*
X138860000Y-75522401D01*
X142890000Y-75522401D02*
X141715000Y-75522401D01*
X140035000Y-75482401D02*
X138850000Y-75482401D01*
X142900000Y-75482401D02*
X141715000Y-75482401D01*
X140035000Y-75442401D02*
X138841000Y-75442401D01*
X142909000Y-75442401D02*
X141715000Y-75442401D01*
X140035000Y-75402401D02*
X138833000Y-75402401D01*
X142917000Y-75402401D02*
X141715000Y-75402401D01*
X140035000Y-75362401D02*
X138826000Y-75362401D01*
X142924000Y-75362401D02*
X141715000Y-75362401D01*
X140035000Y-75322401D02*
X138819000Y-75322401D01*
X142931000Y-75322401D02*
X141715000Y-75322401D01*
X140035000Y-75282401D02*
X138814000Y-75282401D01*
X142936000Y-75282401D02*
X141715000Y-75282401D01*
X140035000Y-75242401D02*
X138809000Y-75242401D01*
X142941000Y-75242401D02*
X141715000Y-75242401D01*
X140035000Y-75202401D02*
X138804000Y-75202401D01*
X142946000Y-75202401D02*
X141715000Y-75202401D01*
X142949000Y-75162401D02*
X138801000Y-75162401D01*
X142952000Y-75122401D02*
X138798000Y-75122401D01*
X142953000Y-75082401D02*
X138797000Y-75082401D01*
X142955000Y-75042401D02*
X138795000Y-75042401D01*
X142955000Y-75002401D02*
X138795000Y-75002401D01*
X142270000Y-72932600D02*
X141870000Y-72932600D01*
X142070000Y-72732600D02*
X142070000Y-73132600D01*
%TO.C,C14*%
X116586252Y-73615000D02*
X115163748Y-73615000D01*
X116586252Y-76335000D02*
X115163748Y-76335000D01*
%TO.C,C13*%
X135413748Y-77435000D02*
X136836252Y-77435000D01*
X135413748Y-74715000D02*
X136836252Y-74715000D01*
%TO.C,12V1*%
X125100000Y-44175000D02*
X122700000Y-44175000D01*
X125100000Y-41775000D02*
X125100000Y-44175000D01*
X122700000Y-44175000D02*
X122700000Y-41775000D01*
X122700000Y-41775000D02*
X125100000Y-41775000D01*
%TO.C,12V2*%
X130925000Y-74525000D02*
X133325000Y-74525000D01*
X130925000Y-76925000D02*
X130925000Y-74525000D01*
X133325000Y-74525000D02*
X133325000Y-76925000D01*
X133325000Y-76925000D02*
X130925000Y-76925000D01*
%TO.C,Out_TP1*%
X131600000Y-36925000D02*
X129200000Y-36925000D01*
X131600000Y-34525000D02*
X131600000Y-36925000D01*
X129200000Y-36925000D02*
X129200000Y-34525000D01*
X129200000Y-34525000D02*
X131600000Y-34525000D01*
%TD*%
M02*
